<svg id="svg" version="1.1" xmlns="http://www.w3.org/2000/svg" xmlns:xlink="http://www.w3.org/1999/xlink" width="400" height="282" viewBox="0, 0, 400,282"><g id="svgg"><path id="path0" d="M145.913 0.881 C 140.028 3.944,136.857 7.765,136.169 12.624 C 136.038 13.547,135.999 28.528,136.034 65.000 L 136.083 116.083 136.462 117.303 C 138.150 122.740,142.853 126.970,148.167 127.831 C 149.834 128.101,248.786 128.081,251.078 127.810 C 257.112 127.097,261.116 123.624,263.061 117.417 L 263.583 115.750 263.631 65.083 C 263.685 7.751,263.798 12.090,262.162 8.583 C 260.524 5.070,258.818 3.470,254.326 1.230 L 251.859 0.000 199.721 0.006 L 147.583 0.011 145.913 0.881 M249.667 4.393 C 255.057 5.816,259.200 10.571,259.850 16.081 C 260.150 18.622,259.950 40.647,259.608 42.816 C 257.277 57.584,251.977 63.930,242.000 63.894 C 234.739 63.867,226.929 60.866,209.424 51.377 C 192.015 41.939,185.709 39.259,179.956 38.854 C 165.526 37.837,152.834 46.529,142.750 64.333 C 141.034 67.363,139.802 69.333,139.622 69.333 C 139.552 69.333,139.514 57.315,139.539 42.625 L 139.583 15.917 139.961 14.583 C 141.618 8.728,146.518 4.526,152.167 4.117 C 155.586 3.869,248.682 4.133,249.667 4.393 M259.976 89.000 C 259.990 103.609,259.938 111.794,259.827 112.500 C 258.914 118.281,254.324 123.120,248.918 124.000 C 247.178 124.283,151.641 124.219,150.333 123.934 C 145.434 122.865,141.598 119.101,139.955 113.750 C 139.545 112.416,139.311 93.566,139.645 88.855 C 140.144 81.836,142.652 74.047,145.601 70.361 C 152.505 61.733,164.243 63.188,187.083 75.503 C 210.204 87.970,216.060 90.185,224.096 89.501 C 237.009 88.403,247.699 80.344,256.491 65.081 C 257.335 63.615,258.413 61.821,258.887 61.092 L 259.750 59.768 259.852 63.176 C 259.908 65.050,259.964 76.671,259.976 89.000 " stroke="none" fill="#cc9c2c" fill-rule="evenodd"></path><path id="path1" d="M150.583 4.412 C 144.992 5.446,140.232 10.822,139.707 16.694 C 139.639 17.458,139.607 29.588,139.636 43.649 L 139.689 69.214 140.398 68.149 C 140.789 67.563,141.807 65.846,142.660 64.333 C 151.550 48.582,162.166 40.185,174.917 38.820 C 182.845 37.971,189.139 40.242,209.333 51.239 C 218.848 56.420,226.256 59.980,230.879 61.592 C 246.062 66.888,254.750 62.862,258.255 48.907 C 259.811 42.710,259.750 43.549,259.750 28.333 L 259.750 14.917 259.229 13.462 C 257.624 8.976,254.036 5.639,249.598 4.504 C 247.932 4.078,152.869 3.990,150.583 4.412 M259.230 60.667 C 258.945 61.079,257.976 62.692,257.077 64.250 C 248.148 79.737,238.116 87.792,225.737 89.415 C 216.768 90.591,211.819 88.830,187.417 75.780 C 168.834 65.843,158.846 63.115,151.594 65.996 C 145.434 68.443,142.268 73.773,140.158 85.250 L 139.637 88.083 139.631 100.000 C 139.626 110.414,139.659 112.059,139.895 113.047 C 141.298 118.930,145.830 123.293,151.281 124.009 C 153.801 124.339,248.541 124.133,249.772 123.794 C 253.771 122.693,257.082 119.760,258.793 115.804 C 259.892 113.260,259.839 114.854,259.792 86.050 L 259.750 59.917 259.230 60.667 M196.144 156.343 L 193.722 157.520 191.882 157.617 C 189.597 157.738,187.108 157.475,183.500 156.733 C 177.730 155.546,175.745 156.218,174.339 159.834 C 173.412 162.218,173.783 163.665,175.998 166.292 C 177.259 167.788,177.001 167.890,178.629 165.255 C 179.985 163.059,180.017 163.023,180.546 163.092 C 180.841 163.130,182.321 163.330,183.833 163.535 C 193.468 164.847,197.051 163.375,198.431 157.539 C 198.664 156.555,198.892 155.619,198.938 155.458 C 199.076 154.982,198.701 155.101,196.144 156.343 M268.667 160.191 C 258.879 163.075,241.355 169.681,238.577 171.535 C 235.249 173.756,233.730 177.454,234.322 181.900 C 234.740 185.046,234.550 184.763,239.864 190.138 C 246.036 196.381,250.167 201.664,250.167 203.313 C 250.167 203.642,245.729 205.351,243.250 205.977 C 229.946 209.333,216.575 208.224,211.256 203.321 C 208.713 200.977,208.062 198.247,208.555 191.995 L 208.694 190.240 207.432 189.926 C 205.379 189.415,205.274 189.582,203.933 195.527 C 201.514 206.245,205.136 214.325,213.583 217.058 C 223.124 220.145,241.997 219.146,248.583 215.207 C 252.189 213.050,254.932 209.579,255.923 205.916 L 256.218 204.825 256.693 205.371 C 256.955 205.671,258.312 207.416,259.709 209.248 C 264.994 216.177,267.550 217.856,274.056 218.672 C 291.389 220.847,300.853 207.407,293.258 191.401 C 292.393 189.578,290.752 186.561,290.279 185.923 C 289.860 185.359,288.231 187.357,285.688 191.554 C 283.904 194.499,283.894 194.429,286.807 199.491 C 288.418 202.291,289.099 204.190,288.970 205.524 L 288.917 206.070 285.833 206.696 C 276.014 208.689,270.635 207.332,264.041 201.202 C 262.689 199.945,259.146 196.699,256.167 193.989 C 248.072 186.627,240.500 179.218,240.500 178.660 C 240.500 178.496,244.992 176.437,247.993 175.226 C 250.374 174.264,259.164 171.296,264.454 169.667 C 267.044 168.870,266.838 169.068,268.790 165.500 C 270.558 162.270,271.625 159.460,271.063 159.514 C 270.983 159.522,269.904 159.827,268.667 160.191 M303.500 165.025 C 302.919 165.353,301.686 166.455,300.134 168.031 L 297.685 170.518 297.762 171.301 C 298.561 179.321,299.293 190.847,299.420 197.417 C 299.643 208.971,300.392 212.341,303.423 215.417 C 308.151 220.216,322.844 219.698,328.365 214.538 C 334.102 209.176,334.308 199.569,328.917 188.757 C 327.038 184.989,326.962 184.995,324.265 189.083 C 320.665 194.543,320.741 193.810,323.282 198.583 C 327.082 205.718,327.079 205.819,323.083 206.564 C 315.863 207.909,309.157 207.514,307.394 205.639 C 305.914 204.067,305.935 204.301,305.914 189.333 C 305.895 176.313,305.813 173.727,305.238 168.167 C 304.804 163.978,304.935 164.214,303.500 165.025 M185.695 167.292 C 184.428 168.552,183.068 170.016,182.673 170.546 L 181.954 171.509 182.135 173.713 C 182.234 174.925,182.504 177.492,182.735 179.417 C 183.765 188.020,184.214 202.844,183.695 211.083 C 183.236 218.361,183.234 217.700,183.717 218.256 L 184.146 218.750 185.171 217.750 C 186.827 216.134,188.698 213.341,189.433 211.389 C 190.919 207.442,191.214 192.108,190.162 173.583 C 189.586 163.459,189.570 163.436,185.695 167.292 M119.123 178.880 C 118.229 180.092,117.155 181.743,116.736 182.550 L 115.976 184.016 116.845 186.800 C 119.795 196.248,120.129 197.655,120.282 201.279 L 120.381 203.642 119.232 204.383 C 114.767 207.261,110.080 208.085,106.272 206.661 C 104.466 205.985,103.469 204.606,102.881 201.969 L 102.583 200.632 101.250 200.740 C 100.517 200.800,99.673 200.891,99.375 200.943 L 98.833 201.037 98.833 204.913 C 98.833 210.517,99.325 212.794,101.059 215.225 C 105.615 221.609,119.490 218.755,122.737 210.765 L 123.111 209.845 124.079 211.798 C 128.289 220.284,138.839 221.279,146.909 213.951 L 147.902 213.050 149.076 214.254 C 154.061 219.369,165.624 220.435,173.333 216.491 C 179.368 213.404,182.085 203.418,179.223 194.844 C 178.414 192.420,175.032 185.490,174.667 185.508 C 174.235 185.528,170.727 190.501,169.644 192.628 C 168.612 194.655,168.593 194.491,170.186 197.335 C 172.520 201.505,173.378 203.415,173.745 205.261 L 173.847 205.773 171.548 206.310 C 161.708 208.609,154.013 207.332,152.569 203.161 C 152.056 201.680,152.241 197.792,152.936 195.458 C 153.072 195.001,152.671 195.098,151.029 195.920 C 148.850 197.011,148.229 197.684,147.340 199.919 C 145.180 205.353,142.786 207.110,137.077 207.454 C 130.478 207.851,128.095 205.242,126.332 195.691 C 124.026 183.197,122.522 176.913,121.803 176.769 C 120.862 176.581,120.763 176.659,119.123 178.880 M76.242 178.625 C 75.907 179.425,75.724 180.345,75.490 182.410 C 75.241 184.613,74.875 185.516,73.553 187.186 C 68.728 193.282,66.945 197.941,66.927 204.500 C 66.904 212.946,70.456 217.539,77.764 218.511 C 87.674 219.830,95.069 212.095,95.064 200.417 C 95.061 194.065,92.667 190.010,85.743 184.626 C 84.830 183.916,83.108 182.572,81.917 181.641 C 79.864 180.036,76.909 178.000,76.632 178.000 C 76.562 178.000,76.387 178.281,76.242 178.625 M133.803 189.876 C 131.759 192.352,130.337 194.642,130.528 195.149 C 130.707 195.623,136.926 200.238,137.852 200.584 C 138.753 200.921,142.725 195.587,142.435 194.430 C 142.205 193.515,140.040 191.575,136.314 188.947 L 135.212 188.170 133.803 189.876 M273.159 189.954 C 271.158 192.456,270.000 194.331,270.000 195.072 C 270.000 195.472,275.621 199.706,277.283 200.560 L 277.817 200.833 278.971 199.458 C 280.417 197.737,281.387 196.238,281.840 195.027 L 282.191 194.089 281.470 193.455 C 279.011 191.292,275.905 188.884,274.909 188.368 C 274.604 188.210,274.423 188.374,273.159 189.954 M80.719 192.948 C 85.358 195.743,87.776 198.089,89.279 201.255 L 89.874 202.507 89.395 203.200 C 86.374 207.571,77.518 208.502,73.850 204.834 C 70.929 201.913,71.902 198.380,76.985 193.448 C 78.960 191.531,78.474 191.596,80.719 192.948 M314.847 221.628 C 313.715 223.049,312.132 225.322,311.434 226.528 L 310.984 227.306 312.117 228.204 C 315.345 230.761,318.702 233.189,318.903 233.112 C 319.536 232.869,322.171 229.364,323.167 227.440 L 323.583 226.636 322.083 225.213 C 320.880 224.072,316.919 220.936,316.062 220.446 C 315.953 220.384,315.442 220.881,314.847 221.628 M155.734 222.208 C 153.476 224.510,152.000 226.172,152.000 226.415 C 152.000 226.709,158.271 232.833,158.572 232.833 C 158.712 232.833,159.844 231.846,161.087 230.639 L 163.346 228.445 164.048 229.095 C 164.434 229.452,165.478 230.454,166.368 231.321 C 168.296 233.198,168.035 233.226,170.502 230.882 C 172.762 228.734,173.435 227.731,173.166 226.914 C 172.801 225.807,168.911 221.622,167.555 220.876 L 166.874 220.502 164.729 222.822 L 162.583 225.142 160.750 223.351 C 158.803 221.448,157.733 220.500,157.533 220.500 C 157.466 220.500,156.656 221.269,155.734 222.208 M161.167 245.162 C 160.112 245.232,159.006 245.299,158.708 245.311 L 158.167 245.333 158.167 263.326 L 158.167 281.318 158.792 281.451 C 160.088 281.726,167.470 281.601,169.078 281.277 C 172.598 280.567,174.958 278.356,175.686 275.083 C 176.065 273.385,176.013 252.763,175.627 251.368 C 174.223 246.293,170.186 244.561,161.167 245.162 M243.958 245.113 L 241.333 245.175 241.333 263.322 L 241.333 281.468 243.120 281.590 C 247.714 281.903,253.043 281.403,254.965 280.479 C 259.833 278.138,261.218 267.369,257.171 263.321 L 256.322 262.473 257.228 261.494 C 261.171 257.236,259.837 248.608,254.877 246.281 C 252.576 245.201,250.336 244.961,243.958 245.113 M289.208 245.114 L 287.833 245.180 287.833 263.326 L 287.833 281.472 289.118 281.592 C 290.421 281.714,293.467 281.589,293.650 281.406 C 293.705 281.351,293.776 276.756,293.808 271.195 L 293.866 261.083 294.765 263.217 C 295.259 264.390,296.797 268.365,298.183 272.050 C 301.742 281.512,301.553 281.096,302.443 281.436 C 303.181 281.717,306.122 281.700,306.876 281.410 C 307.152 281.303,307.166 280.325,307.126 263.274 L 307.083 245.250 304.399 245.204 L 301.715 245.159 301.607 246.187 C 301.548 246.753,301.495 251.423,301.488 256.566 L 301.476 265.917 301.151 265.183 C 300.843 264.489,299.018 259.683,295.365 249.946 C 293.398 244.704,293.649 244.901,289.208 245.114 M74.277 248.958 C 73.764 251.044,72.822 255.037,72.185 257.833 C 70.971 263.156,70.137 266.698,68.496 273.500 C 67.608 277.180,67.141 279.443,66.960 280.940 C 66.885 281.562,67.304 281.667,69.862 281.667 C 72.482 281.667,72.454 281.697,73.260 277.917 C 73.495 276.817,73.776 275.504,73.885 275.000 L 74.083 274.083 77.613 274.038 C 80.867 273.997,81.149 274.016,81.230 274.288 C 81.306 274.545,82.132 278.832,82.474 280.750 C 82.615 281.534,82.960 281.634,85.583 281.652 C 87.596 281.667,88.333 281.536,88.333 281.165 C 88.333 280.879,83.944 261.900,81.362 251.023 C 80.584 247.742,79.948 245.403,79.813 245.317 C 79.687 245.237,78.599 245.171,77.396 245.169 L 75.209 245.167 74.277 248.958 M87.167 245.330 C 87.167 245.655,88.859 250.611,90.753 255.833 C 91.734 258.537,92.955 261.950,93.466 263.417 L 94.396 266.083 94.490 273.695 C 94.541 277.881,94.634 281.356,94.696 281.418 C 94.878 281.600,98.016 281.722,99.217 281.593 L 100.326 281.474 100.305 273.945 L 100.284 266.417 101.044 264.167 C 101.462 262.929,102.784 259.204,103.982 255.888 C 105.838 250.748,107.667 245.448,107.667 245.208 C 107.667 245.095,101.703 245.241,101.587 245.357 C 101.528 245.416,100.928 247.328,100.252 249.607 C 99.042 253.693,97.572 258.134,97.353 258.372 C 97.217 258.518,95.931 254.628,94.415 249.487 C 93.804 247.417,93.239 245.617,93.159 245.487 C 92.963 245.170,87.167 245.019,87.167 245.330 M114.604 245.458 C 114.557 245.619,114.097 247.662,113.580 250.000 C 113.064 252.338,111.715 258.150,110.583 262.917 C 109.451 267.683,108.105 273.496,107.592 275.833 C 107.079 278.171,106.590 280.381,106.505 280.745 C 106.315 281.558,106.153 281.462,107.938 281.597 C 109.718 281.731,112.000 281.554,112.072 281.276 C 112.100 281.170,112.444 279.583,112.837 277.750 C 113.717 273.643,113.287 274.000,117.352 274.000 L 120.639 274.000 121.002 275.625 C 121.481 277.774,122.139 280.450,122.354 281.125 L 122.526 281.667 123.988 281.667 C 126.396 281.667,128.000 281.486,128.000 281.216 C 128.000 281.086,126.871 276.203,125.491 270.365 C 122.569 257.999,121.272 252.391,120.393 248.309 L 119.759 245.368 119.023 245.268 C 117.320 245.034,114.695 245.148,114.604 245.458 M132.944 245.278 C 132.883 245.339,132.833 253.475,132.833 263.358 L 132.833 281.327 133.292 281.455 C 133.866 281.616,137.981 281.621,138.375 281.462 C 138.645 281.353,138.667 280.911,138.667 275.532 C 138.667 272.336,138.716 267.789,138.777 265.428 L 138.888 261.136 139.465 262.693 C 139.783 263.549,141.335 267.625,142.914 271.750 C 144.494 275.875,145.969 279.737,146.193 280.333 C 146.542 281.264,146.668 281.431,147.091 281.522 C 147.764 281.666,150.448 281.690,151.393 281.561 L 152.167 281.455 152.167 263.311 L 152.167 245.167 149.251 245.167 L 146.336 245.167 146.293 255.375 L 146.250 265.583 145.351 263.417 C 143.906 259.931,141.997 254.922,140.230 249.976 L 138.583 245.368 138.000 245.269 C 137.199 245.133,133.082 245.141,132.944 245.278 M182.000 263.308 L 182.000 281.449 184.026 281.558 C 189.234 281.838,198.463 281.623,198.619 281.218 C 198.667 281.092,198.652 279.904,198.586 278.578 L 198.465 276.167 193.255 276.167 L 188.045 276.167 187.939 275.393 C 187.802 274.393,187.804 268.418,187.942 266.958 L 188.048 265.833 192.607 265.833 L 197.167 265.833 197.167 263.353 C 197.167 260.353,197.753 260.672,192.234 260.669 L 188.051 260.667 187.942 258.891 C 187.812 256.765,187.826 253.780,187.975 251.833 L 188.083 250.417 193.333 250.333 L 198.583 250.250 198.629 247.708 L 198.675 245.167 190.338 245.167 L 182.000 245.167 182.000 263.308 M204.667 263.255 C 204.667 280.326,204.683 281.351,204.958 281.464 C 205.359 281.628,209.100 281.615,209.899 281.446 L 210.548 281.309 210.448 275.946 C 210.393 272.997,210.401 269.458,210.466 268.083 L 210.583 265.583 213.609 265.583 L 216.635 265.583 216.732 266.167 C 216.786 266.487,216.830 270.030,216.831 274.038 L 216.833 281.327 217.292 281.455 C 217.871 281.617,221.818 281.624,222.209 281.463 C 222.486 281.350,222.499 280.367,222.459 263.297 L 222.417 245.250 220.167 245.200 C 218.929 245.173,217.673 245.195,217.375 245.250 L 216.833 245.348 216.833 253.008 L 216.833 260.667 213.693 260.667 L 210.553 260.667 210.447 257.258 C 210.389 255.383,210.388 251.944,210.446 249.617 L 210.552 245.385 210.005 245.276 C 209.704 245.216,208.380 245.167,207.063 245.167 L 204.667 245.167 204.667 263.255 M271.167 245.240 C 271.167 245.427,268.829 255.539,267.081 262.917 C 264.630 273.258,262.815 281.370,262.927 281.482 C 263.080 281.636,267.060 281.688,267.826 281.547 L 268.569 281.410 268.865 279.913 C 269.027 279.090,269.392 277.423,269.676 276.208 L 270.192 274.000 273.668 274.000 C 276.836 274.000,277.152 274.026,277.228 274.292 C 277.344 274.698,278.448 279.754,278.619 280.663 C 278.754 281.384,278.784 281.414,279.505 281.548 C 280.234 281.683,284.265 281.624,284.413 281.476 C 284.516 281.373,282.583 272.753,280.251 262.917 C 278.541 255.702,276.581 247.263,276.254 245.708 L 276.140 245.167 273.653 245.167 C 272.286 245.167,271.167 245.200,271.167 245.240 M313.274 246.191 C 313.215 246.755,313.167 254.923,313.167 264.344 L 313.167 281.472 314.446 281.591 C 315.671 281.706,318.029 281.603,318.767 281.403 C 319.114 281.308,319.117 281.257,319.100 276.112 L 319.083 270.917 319.550 269.917 C 320.145 268.641,321.666 266.313,321.835 266.418 C 321.985 266.511,323.777 271.892,325.513 277.462 C 326.628 281.040,326.754 281.350,327.152 281.462 C 327.798 281.644,332.464 281.602,332.654 281.413 C 332.871 281.196,331.528 277.203,328.220 268.226 C 324.728 258.751,324.471 261.184,330.133 250.116 C 332.926 244.657,332.987 245.167,329.537 245.167 L 326.742 245.167 324.941 248.958 C 323.950 251.044,322.212 254.588,321.079 256.833 L 319.018 260.917 319.009 253.042 L 319.000 245.167 316.190 245.167 L 313.381 245.167 313.274 246.191 M168.475 250.865 C 169.115 251.183,169.337 251.424,169.750 252.250 L 170.250 253.250 170.298 263.144 C 170.362 276.394,170.459 276.113,165.730 276.431 L 164.044 276.545 163.969 271.332 C 163.806 259.885,163.998 250.528,164.397 250.437 C 165.301 250.231,167.707 250.484,168.475 250.865 M251.545 250.669 C 253.411 251.208,254.302 254.043,253.599 257.203 C 253.132 259.304,251.742 259.993,247.958 259.999 L 247.167 260.000 247.167 255.261 L 247.167 250.522 247.625 250.442 C 248.324 250.319,250.838 250.465,251.545 250.669 M274.969 262.943 L 276.086 268.470 275.501 268.566 C 273.772 268.852,271.123 268.682,271.234 268.292 C 271.292 268.085,271.717 266.042,272.177 263.750 C 273.051 259.401,273.706 256.740,273.798 257.167 C 273.827 257.304,274.354 259.904,274.969 262.943 M78.352 259.544 C 78.604 260.757,79.068 262.987,79.382 264.500 C 79.697 266.012,79.994 267.560,80.042 267.938 L 80.130 268.626 77.606 268.705 C 74.604 268.798,74.809 268.872,75.097 267.791 C 75.225 267.310,75.558 265.642,75.837 264.083 C 76.474 260.517,77.503 256.948,77.807 257.251 C 77.854 257.299,78.100 258.331,78.352 259.544 M117.315 257.728 C 117.419 257.853,117.845 259.710,118.262 261.853 C 118.679 263.996,119.165 266.325,119.343 267.028 C 119.521 267.731,119.667 268.349,119.667 268.403 C 119.667 268.456,118.557 268.500,117.201 268.500 L 114.735 268.500 115.826 263.002 C 116.426 259.978,116.964 257.503,117.021 257.502 C 117.079 257.501,117.211 257.603,117.315 257.728 M251.463 265.175 C 253.316 265.731,253.961 267.390,253.790 271.167 C 253.608 275.196,252.656 276.167,248.886 276.167 L 247.167 276.167 247.168 271.625 C 247.169 269.127,247.218 266.567,247.277 265.936 L 247.386 264.788 249.068 264.874 C 249.993 264.922,251.071 265.057,251.463 265.175 " stroke="none" fill="#542c1c" fill-rule="evenodd"></path><path id="path2" d="M77.285 258.375 C 76.855 259.450,76.346 261.636,75.588 265.667 C 75.355 266.904,75.119 268.085,75.063 268.292 L 74.961 268.667 77.481 268.667 L 80.000 268.667 79.999 268.208 C 79.997 267.613,77.929 257.541,77.778 257.389 C 77.739 257.350,77.518 257.794,77.285 258.375 " stroke="none" fill="#f9f9f8" fill-rule="evenodd"></path><path id="path3" d="M166.612 4.125 C 172.861 4.149,183.136 4.149,189.445 4.125 C 195.755 4.101,190.642 4.081,178.083 4.081 C 165.525 4.081,160.363 4.101,166.612 4.125 M221.958 4.125 C 226.656 4.150,234.344 4.150,239.042 4.125 C 243.740 4.100,239.896 4.080,230.500 4.080 C 221.104 4.080,217.260 4.100,221.958 4.125 M259.905 20.583 C 259.905 22.783,259.929 23.660,259.958 22.532 C 259.987 21.404,259.987 19.604,259.958 18.532 C 259.929 17.460,259.905 18.383,259.905 20.583 M259.889 26.333 C 259.889 27.021,259.919 27.302,259.955 26.958 C 259.991 26.615,259.991 26.052,259.955 25.708 C 259.919 25.365,259.889 25.646,259.889 26.333 M259.908 33.583 C 259.908 36.608,259.930 37.869,259.958 36.386 C 259.986 34.902,259.986 32.427,259.958 30.886 C 259.931 29.344,259.908 30.558,259.908 33.583 M153.500 49.583 C 153.095 49.996,152.801 50.333,152.847 50.333 C 152.893 50.333,153.262 49.996,153.667 49.583 C 154.072 49.171,154.365 48.833,154.319 48.833 C 154.274 48.833,153.905 49.171,153.500 49.583 M259.901 68.417 C 259.901 69.883,259.927 70.461,259.957 69.700 C 259.988 68.940,259.988 67.740,259.957 67.034 C 259.926 66.328,259.901 66.950,259.901 68.417 M146.742 69.042 L 146.083 69.750 146.792 69.091 C 147.181 68.729,147.500 68.410,147.500 68.383 C 147.500 68.257,147.355 68.383,146.742 69.042 M259.912 99.000 C 259.912 104.546,259.933 106.815,259.958 104.042 C 259.984 101.269,259.984 96.731,259.958 93.958 C 259.933 91.185,259.912 93.454,259.912 99.000 M153.792 124.289 C 154.181 124.324,154.819 124.324,155.208 124.289 C 155.598 124.254,155.279 124.225,154.500 124.225 C 153.721 124.225,153.402 124.254,153.792 124.289 " stroke="none" fill="#bd8d28" fill-rule="evenodd"></path><path id="path4" d="M154.042 4.119 C 154.294 4.158,154.706 4.158,154.958 4.119 C 155.210 4.081,155.004 4.050,154.500 4.050 C 153.996 4.050,153.790 4.081,154.042 4.119 M143.742 8.042 L 143.083 8.750 143.792 8.091 C 144.450 7.478,144.577 7.333,144.450 7.333 C 144.423 7.333,144.105 7.652,143.742 8.042 M255.833 8.083 C 256.144 8.404,256.436 8.667,256.482 8.667 C 256.528 8.667,256.311 8.404,256.000 8.083 C 255.689 7.763,255.397 7.500,255.351 7.500 C 255.305 7.500,255.522 7.763,255.833 8.083 M139.581 45.583 C 139.581 58.692,139.601 64.079,139.625 57.555 C 139.649 51.031,139.649 40.306,139.625 33.721 C 139.601 27.137,139.581 32.475,139.581 45.583 M152.240 50.875 L 151.750 51.417 152.292 50.927 C 152.590 50.658,152.833 50.414,152.833 50.385 C 152.833 50.257,152.696 50.370,152.240 50.875 M241.542 63.955 C 241.885 63.991,242.448 63.991,242.792 63.955 C 243.135 63.919,242.854 63.889,242.167 63.889 C 241.479 63.889,241.198 63.919,241.542 63.955 M259.911 79.583 C 259.911 84.350,259.932 86.276,259.958 83.863 C 259.984 81.451,259.984 77.551,259.958 75.197 C 259.932 72.843,259.911 74.817,259.911 79.583 M139.559 92.083 C 139.559 92.908,139.587 93.267,139.622 92.880 C 139.657 92.493,139.657 91.818,139.623 91.380 C 139.588 90.942,139.560 91.258,139.559 92.083 M139.574 103.917 C 139.574 106.667,139.597 107.815,139.625 106.469 C 139.653 105.122,139.653 102.872,139.625 101.469 C 139.597 100.065,139.574 101.167,139.574 103.917 M259.890 110.250 C 259.891 110.983,259.920 111.263,259.956 110.871 C 259.991 110.479,259.990 109.879,259.954 109.537 C 259.919 109.196,259.890 109.517,259.890 110.250 M74.980 268.713 C 75.060 268.794,75.341 268.833,75.605 268.800 C 76.045 268.745,76.034 268.733,75.458 268.653 C 75.100 268.604,74.896 268.629,74.980 268.713 " stroke="none" fill="#996e24" fill-rule="evenodd"></path></g></svg>