<svg id="svg" version="1.1" xmlns="http://www.w3.org/2000/svg" xmlns:xlink="http://www.w3.org/1999/xlink" width="400" height="400" viewBox="0, 0, 400,400"><g id="svgg"><path id="path0" d="M197.744 36.639 C 198.004 38.244,198.128 38.267,200.529 37.170 C 203.038 36.023,202.956 35.883,199.650 35.675 L 197.566 35.545 197.744 36.639 M199.467 40.762 C 199.467 41.716,198.432 51.547,197.863 56.000 C 197.572 58.273,197.334 60.278,197.334 60.455 C 197.334 60.631,198.286 61.501,199.451 62.388 C 202.053 64.369,201.961 64.208,201.284 65.575 C 199.862 68.449,196.618 70.858,193.345 71.469 C 187.382 72.582,185.469 68.371,187.850 59.369 C 188.971 55.131,188.947 54.592,187.765 57.432 C 184.544 65.169,184.888 74.085,188.490 76.202 C 194.515 79.744,202.400 72.191,202.400 62.877 C 202.400 60.618,202.269 60.240,200.661 57.867 C 199.733 56.497,198.667 54.362,198.667 53.875 C 198.667 53.757,199.198 53.581,199.847 53.484 C 202.375 53.104,203.734 51.356,204.282 47.779 C 204.660 45.305,204.643 45.295,202.538 46.767 C 201.403 47.561,200.743 47.878,200.673 47.664 C 200.613 47.482,200.370 45.777,200.134 43.874 C 199.732 40.642,199.467 39.404,199.467 40.762 M175.586 51.200 C 175.726 54.836,176.338 57.787,178.075 63.184 C 179.901 68.861,179.434 62.226,177.466 54.533 C 175.669 47.510,175.428 47.084,175.586 51.200 M156.668 60.239 C 157.015 63.769,158.540 68.437,161.035 73.600 L 162.131 75.867 161.983 74.533 C 161.641 71.431,159.720 65.481,157.551 60.800 L 156.500 58.533 156.668 60.239 M247.333 60.419 C 246.013 61.212,244.759 61.971,244.546 62.104 C 244.107 62.381,245.870 64.800,246.511 64.800 C 247.892 64.800,249.831 62.229,250.074 60.077 C 250.233 58.665,250.260 58.661,247.333 60.419 M171.092 62.616 C 169.975 64.835,169.421 66.744,169.181 69.200 C 168.948 71.586,168.239 73.892,166.770 77.039 C 166.126 78.417,165.600 79.587,165.600 79.639 C 165.600 79.884,168.329 77.732,169.030 76.934 C 169.642 76.237,169.863 75.674,169.992 74.481 C 170.084 73.630,170.564 70.773,171.057 68.133 C 172.571 60.042,172.573 59.675,171.092 62.616 M206.950 66.635 C 206.649 67.225,206.159 68.326,205.860 69.083 L 205.318 70.459 206.261 71.611 C 208.699 74.586,217.348 78.690,224.267 80.154 C 228.820 81.118,234.473 80.710,238.104 79.155 C 239.701 78.471,239.699 78.557,238.047 81.103 C 234.405 86.716,234.016 89.618,236.908 89.589 C 238.024 89.577,238.534 89.349,241.018 87.746 L 242.435 86.832 241.089 86.021 C 239.464 85.042,239.467 85.049,239.777 83.067 C 240.049 81.335,241.186 78.877,242.490 77.202 C 243.151 76.352,247.599 71.093,248.556 70.028 C 248.856 69.695,254.794 70.471,262.891 71.901 C 270.436 73.234,270.851 73.246,268.785 72.076 C 265.924 70.455,263.238 69.827,256.425 69.190 C 249.161 68.511,248.634 68.708,243.042 74.185 L 239.283 77.867 236.642 77.862 C 226.216 77.843,215.672 73.872,209.564 67.664 L 207.496 65.563 206.950 66.635 M148.844 67.904 C 149.202 69.207,150.014 70.833,152.172 74.572 C 154.545 78.683,155.032 80.145,154.675 82.078 C 153.788 86.875,149.995 90.812,145.750 91.343 C 143.093 91.675,141.387 89.788,139.585 84.524 C 138.304 80.781,138.144 81.059,139.189 85.216 C 141.422 94.105,145.583 97.900,150.587 95.610 C 158.325 92.070,158.424 80.164,150.803 69.467 C 149.083 67.053,148.476 66.568,148.844 67.904 M177.994 74.791 L 177.498 76.781 175.882 76.601 C 174.994 76.501,173.907 76.416,173.467 76.410 L 172.667 76.400 172.442 79.020 C 172.176 82.114,171.961 81.783,174.320 81.911 L 176.239 82.016 176.564 80.196 C 176.956 78.004,176.841 78.088,178.807 78.550 C 181.297 79.136,181.238 79.166,181.712 77.081 C 182.306 74.470,182.316 74.500,180.541 73.604 C 178.455 72.551,178.564 72.501,177.994 74.791 M257.838 76.733 C 252.365 82.326,249.831 86.516,249.091 91.199 L 248.870 92.596 250.019 92.439 C 251.226 92.273,254.905 91.068,255.247 90.727 C 255.356 90.617,254.778 89.662,253.963 88.603 L 252.480 86.679 253.884 84.339 C 254.656 83.053,256.326 80.440,257.595 78.533 C 260.982 73.446,260.970 73.534,257.838 76.733 M144.135 80.333 C 144.364 83.289,144.067 82.939,146.507 83.124 L 148.533 83.277 148.533 80.572 L 148.533 77.867 146.238 77.867 L 143.943 77.867 144.135 80.333 M247.996 94.561 C 245.950 95.906,245.336 96.702,245.335 98.016 C 245.332 100.015,245.701 100.152,248.000 99.001 L 250.000 98.000 250.084 96.667 C 250.282 93.520,250.006 93.241,247.996 94.561 M183.640 145.533 C 183.547 146.523,183.470 148.759,183.469 150.502 L 183.467 153.670 184.467 154.614 C 187.243 157.232,193.202 158.121,197.658 156.581 L 199.450 155.962 201.402 156.636 C 210.604 159.812,216.390 155.371,214.848 146.317 C 214.559 144.625,214.283 144.778,212.729 147.486 C 209.177 153.675,205.749 154.429,201.605 149.932 L 199.738 147.905 197.761 149.822 C 192.845 154.589,188.596 153.366,185.176 146.200 C 183.771 143.256,183.852 143.291,183.640 145.533 M197.291 158.041 C 196.067 159.015,194.437 160.419,193.667 161.163 L 192.267 162.515 192.272 173.991 C 192.276 180.303,192.389 189.907,192.524 195.333 C 192.659 200.760,192.853 210.110,192.956 216.112 L 193.143 227.024 192.283 226.412 C 174.116 213.476,169.408 182.659,182.538 162.620 C 184.610 159.457,184.587 159.255,182.350 160.959 C 165.917 173.472,160.899 197.065,170.570 216.342 C 173.365 221.914,176.725 226.323,183.161 232.867 C 185.578 235.324,187.505 237.377,187.444 237.431 C 185.908 238.774,180.323 239.605,173.200 239.552 L 166.800 239.504 167.733 240.278 C 171.534 243.430,174.280 244.045,185.431 244.241 L 194.462 244.400 195.392 245.467 C 195.903 246.053,197.007 247.493,197.844 248.667 C 199.732 251.311,199.516 251.373,201.643 247.573 L 203.420 244.400 212.043 244.375 C 222.625 244.344,225.076 243.991,229.933 241.800 C 232.247 240.756,232.200 240.533,229.667 240.533 C 224.635 240.533,218.112 239.560,213.538 238.129 L 210.943 237.318 213.671 234.961 C 224.338 225.751,230.139 216.114,232.310 204.000 C 235.168 188.045,228.020 169.511,215.367 160.067 C 214.096 159.118,214.067 159.346,215.229 161.133 C 227.936 180.666,224.699 209.233,207.969 225.200 L 205.733 227.333 205.655 222.933 C 205.612 220.513,205.763 208.513,205.989 196.267 C 206.216 184.020,206.402 171.467,206.401 168.371 L 206.400 162.742 205.307 161.500 C 204.705 160.817,203.156 159.361,201.864 158.264 L 199.515 156.271 197.291 158.041 M177.865 158.916 C 163.184 164.283,151.039 176.718,147.767 189.733 C 143.846 205.329,150.568 224.240,163.540 234.104 C 165.595 235.666,165.594 235.689,163.639 230.372 C 152.021 198.782,154.712 184.375,176.372 162.198 C 180.587 157.882,180.566 157.929,177.865 158.916 M220.068 159.187 C 220.299 159.517,222.088 161.536,224.044 163.674 C 238.607 179.592,243.305 192.054,240.824 208.187 C 239.738 215.248,238.517 219.083,233.555 231.022 C 231.441 236.108,231.440 236.134,233.408 234.827 C 238.878 231.197,244.263 224.788,247.442 218.126 C 258.050 195.895,248.516 172.052,224.400 160.506 C 220.438 158.609,219.453 158.310,220.068 159.187 " stroke="none" fill="#e40414" fill-rule="evenodd"></path><path id="path1" d="M209.067 67.283 C 209.067 67.329,209.457 67.719,209.933 68.150 L 210.800 68.933 210.017 68.067 C 209.287 67.259,209.067 67.077,209.067 67.283 M145.274 77.796 C 145.901 77.852,146.861 77.851,147.407 77.794 C 147.953 77.737,147.440 77.690,146.267 77.691 C 145.093 77.692,144.647 77.739,145.274 77.796 M144.073 81.333 C 144.073 81.993,144.125 82.263,144.188 81.933 C 144.252 81.603,144.252 81.063,144.188 80.733 C 144.125 80.403,144.073 80.673,144.073 81.333 M148.613 81.867 C 148.613 82.673,148.663 83.003,148.724 82.600 C 148.785 82.197,148.785 81.537,148.724 81.133 C 148.663 80.730,148.613 81.060,148.613 81.867 M144.470 91.389 C 144.801 91.452,145.281 91.450,145.536 91.383 C 145.791 91.316,145.520 91.264,144.933 91.267 C 144.347 91.270,144.138 91.325,144.470 91.389 M250.102 97.275 C 250.014 97.805,250.053 98.054,250.201 97.906 C 250.335 97.771,250.401 97.378,250.346 97.031 C 250.262 96.497,250.224 96.535,250.102 97.275 M303.487 114.961 C 302.373 118.064,299.344 122.133,298.149 122.133 C 296.689 122.133,299.461 124.852,302.788 126.682 C 307.486 129.266,307.844 129.987,306.631 134.413 L 306.061 136.491 306.894 137.844 C 309.099 141.428,309.450 144.811,308.528 153.597 C 307.821 160.323,307.749 159.982,309.685 159.032 C 311.299 158.240,311.324 158.192,311.611 155.397 C 311.769 153.856,312.034 153.176,313.431 150.714 C 314.331 149.130,315.480 146.971,315.985 145.917 L 316.903 144.001 315.081 140.276 L 313.259 136.552 313.434 134.743 C 314.219 126.611,314.291 126.821,309.333 122.681 C 308.131 121.677,307.716 121.066,306.616 118.681 C 305.902 117.133,305.044 115.279,304.709 114.561 L 304.100 113.255 303.487 114.961 M93.107 118.165 C 85.079 135.178,83.076 148.471,87.210 157.305 C 88.414 159.877,91.428 163.861,91.850 163.438 C 92.042 163.247,92.491 158.052,92.666 154.000 C 93.059 144.933,93.800 140.240,95.613 135.327 C 100.139 123.065,100.181 121.798,96.231 116.831 L 94.665 114.863 93.107 118.165 M274.400 127.873 C 274.400 128.247,277.512 134.450,278.914 136.871 L 280.269 139.210 279.320 141.094 L 278.371 142.978 279.063 143.886 C 280.463 145.721,282.744 148.007,284.552 149.385 C 285.889 150.404,286.818 151.415,287.872 152.999 C 289.571 155.551,290.985 156.697,292.755 156.955 C 296.185 157.455,299.201 159.008,302.980 162.220 C 305.089 164.012,305.102 164.016,304.748 162.733 C 304.063 160.244,302.824 158.482,298.420 153.733 C 295.536 150.623,293.963 148.033,293.681 145.930 C 293.544 144.904,293.440 144.794,291.868 144.021 C 289.829 143.017,288.205 141.309,287.201 139.115 C 285.989 136.466,285.978 136.581,287.613 134.747 L 289.085 133.094 287.714 132.010 C 284.971 129.842,280.561 128.218,276.388 127.840 C 275.295 127.741,274.400 127.756,274.400 127.873 M122.133 132.945 C 114.821 134.911,113.516 136.136,111.164 143.232 C 109.198 149.165,107.930 151.536,103.035 158.435 C 101.512 160.581,100.267 162.408,100.267 162.496 C 100.267 162.941,107.632 158.575,109.516 157.013 C 112.734 154.346,116.336 149.352,119.409 143.296 C 121.375 139.421,124.590 132.492,124.469 132.392 C 124.431 132.361,123.380 132.609,122.133 132.945 M323.989 168.611 C 323.188 169.668,321.416 171.825,320.050 173.404 L 317.568 176.275 318.917 178.613 C 320.522 181.394,320.471 180.843,319.429 184.196 L 318.580 186.925 319.334 189.384 C 320.747 193.988,320.942 193.076,316.457 202.800 C 315.510 204.853,314.418 207.416,314.029 208.496 L 313.324 210.458 314.595 209.493 C 315.295 208.962,317.594 207.419,319.705 206.064 L 323.543 203.600 324.317 201.867 C 325.925 198.267,326.447 197.411,328.265 195.390 C 330.696 192.689,330.696 192.572,328.267 187.904 C 326.052 183.648,326.089 184.067,327.634 180.784 L 328.868 178.160 328.127 175.147 C 327.537 172.744,325.739 167.001,325.497 166.744 C 325.468 166.714,324.789 167.554,323.989 168.611 M73.504 172.024 C 71.716 185.673,72.796 193.456,77.694 202.214 C 79.636 205.687,85.604 212.533,86.689 212.533 C 87.137 212.533,86.220 209.160,83.863 202.133 C 80.863 193.188,80.555 191.563,80.303 183.333 L 80.124 177.467 79.152 175.733 C 78.356 174.313,74.238 168.533,74.022 168.533 C 73.988 168.533,73.755 170.104,73.504 172.024 M293.166 170.533 C 295.066 175.458,295.676 183.549,294.307 185.688 C 293.476 186.987,293.427 187.185,293.606 188.542 C 293.822 190.184,293.546 192.664,292.962 194.319 L 292.571 195.426 294.552 196.796 L 296.533 198.165 296.533 200.670 C 296.533 204.125,296.890 205.491,298.461 208.055 C 301.070 212.312,302.260 214.559,303.623 217.809 C 304.378 219.611,305.060 221.149,305.138 221.227 C 305.390 221.479,305.724 215.719,305.720 211.200 C 305.715 206.069,305.573 205.614,302.690 201.460 C 300.780 198.708,300.785 198.779,302.304 195.456 L 303.291 193.297 302.682 191.915 C 299.256 184.138,299.196 182.418,302.271 180.104 L 304.267 178.602 302.334 177.274 C 301.270 176.545,298.979 174.789,297.243 173.374 C 293.037 169.944,292.902 169.850,293.166 170.533 M104.414 172.941 C 99.667 176.221,98.526 177.727,98.096 181.289 C 97.960 182.413,97.182 186.615,96.367 190.626 C 93.507 204.709,93.202 210.451,94.991 216.496 L 95.335 217.658 97.159 212.762 C 98.162 210.070,100.660 203.804,102.710 198.838 C 107.256 187.823,107.510 186.942,107.561 182.000 C 107.599 178.389,107.030 171.461,106.697 171.472 C 106.607 171.475,105.580 172.136,104.414 172.941 M315.273 172.800 C 315.273 173.460,315.325 173.730,315.388 173.400 C 315.452 173.070,315.452 172.530,315.388 172.200 C 315.325 171.870,315.273 172.140,315.273 172.800 M103.283 217.486 C 99.880 222.081,99.743 223.025,101.372 230.678 L 102.533 236.133 102.400 242.533 C 102.129 255.565,102.351 265.333,102.920 265.333 C 103.234 265.333,106.555 255.193,107.456 251.482 C 109.685 242.308,109.658 236.100,107.358 228.533 C 105.721 223.146,105.098 220.425,104.837 217.515 L 104.667 215.618 103.283 217.486 M296.826 218.049 C 296.653 218.430,296.149 220.073,295.706 221.700 C 294.843 224.873,294.125 226.108,292.630 226.991 C 291.519 227.646,291.506 227.547,292.931 229.434 C 295.184 232.417,295.152 232.669,291.913 237.388 C 290.835 238.958,289.665 240.786,289.312 241.451 L 288.671 242.660 291.108 247.530 C 296.591 258.483,296.341 262.534,289.454 274.400 L 288.757 275.600 290.445 273.865 C 292.551 271.701,293.835 269.780,295.791 265.867 C 297.936 261.575,297.924 260.512,295.621 249.808 C 295.093 247.356,294.589 244.476,294.501 243.408 L 294.341 241.467 296.087 240.409 L 297.832 239.351 296.653 237.189 L 295.475 235.028 298.337 232.234 C 299.912 230.698,301.721 229.019,302.357 228.504 L 303.514 227.566 303.204 226.383 C 302.062 222.021,297.646 216.250,296.826 218.049 M71.865 225.406 C 72.344 226.912,73.179 230.232,73.722 232.782 C 76.042 243.683,77.402 246.394,84.944 255.161 C 88.951 259.818,93.933 264.010,98.733 266.763 C 100.432 267.737,100.475 267.828,96.567 262.170 C 85.522 246.180,81.600 237.780,81.600 230.116 C 81.600 226.815,79.711 225.136,74.132 223.479 C 72.628 223.032,71.307 222.667,71.197 222.667 C 71.086 222.667,71.387 223.899,71.865 225.406 M326.533 226.850 C 325.067 227.375,323.822 227.844,323.767 227.892 C 323.712 227.939,323.163 230.742,322.547 234.120 C 321.931 237.497,321.376 240.303,321.314 240.353 C 321.251 240.404,320.090 241.198,318.733 242.118 C 317.377 243.039,316.271 243.869,316.276 243.962 C 316.281 244.056,316.457 244.913,316.667 245.867 C 317.535 249.816,317.112 251.027,314.136 253.107 C 310.669 255.532,305.947 261.236,306.746 262.035 C 307.498 262.787,314.092 260.352,316.451 258.451 C 318.117 257.108,320.255 256.202,322.618 255.837 C 325.267 255.428,325.196 251.672,322.435 246.203 L 321.597 244.542 322.686 243.854 C 323.285 243.476,324.846 242.557,326.155 241.811 C 328.836 240.283,328.781 240.384,327.836 238.771 L 327.138 237.581 327.798 236.057 C 328.641 234.109,329.247 231.678,329.695 228.438 C 330.119 225.377,330.338 225.487,326.533 226.850 M117.554 269.688 C 114.140 275.869,114.126 277.423,117.415 285.067 C 119.361 289.589,119.661 290.757,121.053 299.250 C 122.338 307.094,123.356 312.511,123.588 312.744 C 123.781 312.937,129.955 314.667,130.064 314.559 C 130.636 313.986,131.054 304.838,130.685 300.946 C 130.086 294.631,129.103 291.274,125.994 284.933 C 123.678 280.210,122.099 276.094,120.394 270.333 C 119.840 268.463,119.315 266.937,119.227 266.942 C 119.139 266.946,118.386 268.182,117.554 269.688 M279.494 268.721 C 279.170 269.718,278.009 272.186,276.915 274.206 C 274.486 278.689,273.600 281.191,273.600 283.565 L 273.600 285.302 270.719 287.857 C 269.134 289.261,267.383 290.954,266.829 291.617 L 265.821 292.823 267.034 295.545 C 269.238 300.487,269.258 301.899,267.233 309.200 C 266.067 313.404,266.078 313.633,267.366 312.133 C 268.780 310.489,269.984 307.735,271.330 303.067 C 272.636 298.536,273.481 296.422,274.540 295.034 L 275.193 294.178 273.966 291.996 L 272.739 289.815 273.438 288.574 C 273.823 287.892,274.880 285.911,275.788 284.172 C 277.762 280.391,277.769 280.385,281.408 279.979 L 284.282 279.658 285.208 278.004 C 286.740 275.263,286.613 274.875,282.536 269.858 C 281.407 268.469,280.394 267.238,280.283 267.121 C 280.173 267.005,279.818 267.725,279.494 268.721 M310.950 277.882 C 309.860 278.167,307.580 279.013,305.884 279.762 C 304.188 280.510,302.226 281.376,301.524 281.685 C 300.028 282.344,300.134 282.008,299.614 287.733 C 298.735 297.403,298.152 298.067,290.850 297.706 L 287.167 297.523 287.335 300.428 C 287.575 304.572,286.827 305.427,275.561 313.884 C 270.540 317.652,264.000 323.379,264.000 324.007 C 264.000 324.299,268.520 322.579,270.480 321.542 C 271.513 320.995,273.245 319.604,275.099 317.831 C 281.943 311.289,289.651 308.005,296.673 308.642 C 298.562 308.813,298.577 308.809,298.909 308.074 C 299.093 307.666,300.068 305.889,301.076 304.124 L 302.908 300.914 302.497 298.146 C 302.042 295.084,302.154 293.613,302.937 292.325 L 303.459 291.467 306.020 291.467 C 308.960 291.467,308.760 291.596,310.813 288.359 C 312.155 286.244,313.594 282.920,314.303 280.302 L 314.767 278.590 313.983 277.963 C 313.553 277.618,313.140 277.342,313.067 277.349 C 312.993 277.357,312.041 277.596,310.950 277.882 M85.976 282.533 C 87.792 285.305,88.521 286.849,91.727 294.708 C 94.831 302.316,98.474 306.139,109.867 313.740 C 115.810 317.706,126.358 323.005,125.628 321.658 C 125.040 320.573,121.704 317.094,117.867 313.562 C 106.234 302.856,100.118 294.863,97.595 287.067 C 96.551 283.842,94.710 282.680,90.000 282.272 C 88.973 282.184,87.540 282.041,86.815 281.957 L 85.497 281.802 85.976 282.533 M142.193 313.340 C 142.396 319.324,142.336 319.213,149.065 325.867 C 152.662 329.423,155.748 332.778,157.896 335.467 C 160.977 339.323,165.852 344.533,166.379 344.533 C 166.918 344.533,163.436 333.746,161.456 329.281 C 159.258 324.323,158.225 323.173,152.400 319.200 C 148.008 316.205,146.905 315.238,144.204 312.026 L 142.063 309.479 142.193 313.340 M252.288 318.224 C 249.341 320.663,247.540 321.755,245.626 322.260 C 244.837 322.468,243.144 323.455,241.053 324.926 C 239.227 326.210,237.587 327.319,237.407 327.390 C 237.228 327.460,237.008 327.957,236.918 328.492 C 236.364 331.802,235.105 335.109,233.695 336.959 C 233.350 337.412,233.067 337.937,233.067 338.125 C 233.067 339.024,231.028 344.405,229.853 346.607 L 228.533 349.081 229.375 348.645 C 235.000 345.736,236.603 343.981,238.694 338.438 C 239.414 336.530,239.595 336.410,242.174 336.133 C 244.407 335.894,244.363 335.932,244.901 333.768 C 246.125 328.836,247.803 327.785,252.984 328.703 C 253.821 328.851,253.852 328.818,254.948 326.638 L 256.062 324.422 255.729 320.211 C 255.546 317.895,255.301 316.000,255.184 316.000 C 255.068 316.000,253.765 317.001,252.288 318.224 M128.000 335.123 C 124.668 335.707,117.067 338.179,117.067 338.678 C 117.067 338.792,117.956 339.373,119.044 339.970 C 120.131 340.567,123.352 342.604,126.201 344.496 C 135.717 350.818,139.054 352.628,144.913 354.648 C 152.831 357.379,158.994 357.754,175.544 356.515 C 179.327 356.232,183.047 355.992,183.811 355.982 C 186.153 355.952,184.704 355.583,174.933 353.723 C 150.322 349.039,138.785 344.659,131.275 337.149 C 130.056 335.930,128.971 334.950,128.863 334.970 C 128.755 334.990,128.367 335.059,128.000 335.123 M260.683 345.396 C 260.612 345.728,260.417 346.720,260.250 347.600 C 259.284 352.679,254.662 353.759,250.643 349.843 L 249.312 348.547 247.389 349.319 C 246.332 349.743,243.900 350.806,241.985 351.681 C 234.241 355.220,233.126 355.499,224.214 356.121 C 214.827 356.777,213.314 357.089,217.800 357.445 C 221.524 357.740,228.364 358.649,232.267 359.368 C 235.794 360.017,235.967 360.024,240.846 359.701 C 246.489 359.328,251.277 359.608,255.150 360.536 C 256.370 360.828,257.607 361.067,257.901 361.067 C 258.680 361.067,262.008 357.569,263.809 354.856 C 265.553 352.230,265.465 352.265,268.454 353.041 L 270.374 353.540 271.472 352.600 C 273.058 351.243,276.421 349.282,278.200 348.677 C 279.043 348.391,279.733 348.087,279.733 348.003 C 279.733 347.711,269.458 345.891,267.012 345.749 C 264.852 345.625,263.788 345.469,261.406 344.928 C 260.949 344.824,260.782 344.932,260.683 345.396 M170.867 362.329 C 171.490 362.385,172.510 362.385,173.133 362.329 C 173.757 362.272,173.247 362.227,172.000 362.227 C 170.753 362.227,170.243 362.272,170.867 362.329 " stroke="none" fill="#f2a20c" fill-rule="evenodd"></path><path id="path2" d="M197.067 29.127 C 191.780 34.746,185.268 38.376,169.956 44.237 C 145.054 53.769,136.821 60.474,122.288 83.062 C 115.433 93.715,110.992 99.203,106.372 102.725 C 105.361 103.497,104.533 104.196,104.533 104.279 C 104.533 104.469,109.812 107.538,115.067 110.404 C 120.089 113.143,120.872 113.723,125.461 118.098 C 130.185 122.601,133.673 125.437,133.977 125.022 C 134.012 124.973,135.146 123.349,136.496 121.412 C 172.429 69.862,228.401 70.210,263.162 122.200 C 264.216 123.777,265.150 125.067,265.238 125.067 C 265.326 125.067,266.674 124.403,268.234 123.593 C 270.853 122.233,272.771 120.908,277.333 117.313 C 279.814 115.358,285.154 112.861,291.467 110.703 C 297.971 108.479,299.080 108.031,298.768 107.755 C 298.639 107.640,297.573 106.851,296.400 106.001 C 288.889 100.563,286.031 97.043,278.751 84.261 C 268.830 66.840,260.827 59.310,243.067 50.684 C 240.181 49.282,237.874 48.303,225.600 43.273 C 214.603 38.766,207.134 34.336,201.467 28.961 C 198.937 26.562,199.499 26.541,197.067 29.127 M202.667 35.914 C 203.062 36.049,198.926 38.133,198.264 38.133 C 197.981 38.133,197.612 36.831,197.603 35.798 C 197.600 35.470,201.633 35.562,202.667 35.914 M200.257 44.170 C 200.704 48.069,200.665 48.026,202.620 46.698 C 204.683 45.297,204.640 45.281,204.425 47.379 C 204.056 50.981,202.474 53.164,199.995 53.493 C 198.783 53.653,198.670 53.725,198.828 54.235 C 199.116 55.168,200.171 57.102,201.318 58.800 C 204.552 63.590,200.346 74.671,194.552 76.624 C 191.812 77.547,188.382 76.848,186.994 75.083 C 184.859 72.369,185.203 63.725,187.696 57.467 C 188.973 54.260,189.041 55.120,187.867 59.636 C 185.704 67.957,186.886 71.337,191.955 71.330 C 195.983 71.324,199.350 69.251,201.172 65.655 L 201.864 64.289 199.714 62.652 C 197.039 60.615,197.174 61.109,197.834 55.802 C 198.304 52.022,199.415 41.598,199.490 40.275 C 199.541 39.367,199.936 41.374,200.257 44.170 M177.595 54.678 C 178.625 58.717,179.202 62.358,179.179 64.667 L 179.160 66.533 178.365 64.267 C 176.551 59.092,175.689 55.048,175.580 51.200 L 175.477 47.600 176.144 49.600 C 176.510 50.700,177.163 52.985,177.595 54.678 M158.102 61.844 C 160.409 67.219,162.373 73.890,162.087 75.377 C 161.863 76.538,157.795 66.566,157.064 63.067 C 156.609 60.888,156.328 58.406,156.551 58.544 C 156.652 58.607,157.350 60.091,158.102 61.844 M250.133 59.875 C 250.133 61.777,248.965 63.625,247.186 64.538 L 246.238 65.024 245.252 63.809 C 243.958 62.212,243.869 62.379,247.000 60.542 C 250.219 58.654,250.133 58.672,250.133 59.875 M172.152 62.200 C 172.050 63.117,171.626 65.547,171.208 67.600 C 170.790 69.653,170.370 72.053,170.274 72.933 C 169.982 75.620,169.846 76.022,168.854 77.119 C 167.947 78.124,165.600 79.923,165.600 79.614 C 165.600 79.535,166.126 78.299,166.769 76.868 C 168.182 73.723,169.065 70.951,169.071 69.639 C 169.080 67.840,169.845 65.017,170.934 62.768 C 172.228 60.094,172.393 60.017,172.152 62.200 M213.488 70.930 C 219.579 75.141,228.861 77.867,237.111 77.867 L 239.261 77.867 243.079 74.131 C 248.785 68.546,249.116 68.429,257.091 69.194 C 264.072 69.863,267.473 70.808,269.860 72.741 L 270.516 73.272 269.191 73.061 C 268.463 72.946,265.107 72.361,261.733 71.761 C 258.360 71.162,254.043 70.491,252.140 70.270 L 248.679 69.868 248.006 70.730 C 247.636 71.204,246.433 72.616,245.333 73.867 C 241.378 78.366,240.024 80.742,239.809 83.563 L 239.684 85.200 241.042 85.949 C 242.706 86.866,242.786 86.613,240.326 88.228 C 234.368 92.139,233.126 88.714,237.830 81.343 C 239.727 78.369,239.743 78.509,237.606 79.373 C 229.812 82.521,214.395 79.114,207.275 72.671 C 205.092 70.696,205.069 70.565,206.406 67.751 L 207.524 65.399 209.506 67.473 C 210.596 68.614,212.388 70.170,213.488 70.930 M151.607 70.564 C 157.632 79.486,158.161 89.309,152.877 94.138 C 147.248 99.283,141.740 95.603,139.043 84.896 C 137.894 80.335,137.995 79.814,139.296 83.583 C 141.485 89.917,142.679 91.339,145.650 91.145 C 150.185 90.849,154.252 86.527,154.602 81.633 C 154.755 79.495,154.393 78.532,151.695 73.915 C 149.870 70.791,148.951 68.822,148.686 67.467 L 148.504 66.533 149.325 67.467 C 149.776 67.980,150.803 69.374,151.607 70.564 M182.314 74.501 C 182.370 74.547,181.341 79.015,181.254 79.102 C 181.221 79.134,180.269 78.946,179.137 78.683 C 176.811 78.142,176.976 78.036,176.658 80.289 C 176.402 82.106,176.363 82.133,174.191 81.951 C 171.983 81.766,172.122 82.058,172.441 78.283 L 172.616 76.218 174.775 76.404 C 175.962 76.506,177.040 76.607,177.171 76.628 C 177.302 76.649,177.652 75.746,177.951 74.620 L 178.493 72.573 180.380 73.518 C 181.418 74.037,182.288 74.480,182.314 74.501 M260.361 74.467 C 260.249 74.650,258.772 76.904,257.079 79.476 C 255.385 82.048,253.678 84.748,253.286 85.477 L 252.571 86.803 254.005 88.535 C 255.865 90.783,255.884 90.728,252.953 91.700 C 249.420 92.871,248.724 92.842,248.943 91.533 C 249.766 86.613,252.092 82.643,257.303 77.267 C 260.187 74.292,260.825 73.707,260.361 74.467 M148.356 77.800 C 148.423 77.910,148.564 79.170,148.670 80.600 L 148.863 83.200 146.596 83.200 C 144.470 83.200,144.319 83.163,144.168 82.600 C 143.949 81.783,143.957 77.999,144.178 77.778 C 144.423 77.533,148.207 77.553,148.356 77.800 M250.229 95.799 L 250.393 97.864 248.269 98.932 C 245.659 100.244,245.686 100.244,245.329 98.918 C 244.889 97.285,245.547 96.170,247.867 94.616 C 250.053 93.150,250.017 93.132,250.229 95.799 M286.808 117.383 C 286.925 118.016,287.038 120.847,287.059 123.675 L 287.095 128.817 289.314 131.047 C 290.855 132.596,291.467 133.388,291.319 133.639 C 291.201 133.837,290.459 134.742,289.669 135.648 C 287.706 137.902,288.632 139.497,293.432 142.132 C 295.878 143.474,295.629 143.092,296.145 146.298 L 296.569 148.933 300.503 152.933 C 302.666 155.133,304.848 157.533,305.352 158.267 L 306.267 159.600 306.469 155.333 C 306.581 152.987,306.701 148.873,306.736 146.193 L 306.800 141.319 305.900 140.614 C 303.949 139.086,303.571 136.740,304.667 132.959 C 305.033 131.694,305.333 130.605,305.333 130.540 C 305.333 130.474,303.923 129.698,302.200 128.816 C 297.505 126.411,297.600 126.491,296.298 123.899 L 295.132 121.577 292.566 120.081 C 291.155 119.258,289.233 118.055,288.297 117.409 L 286.593 116.233 286.808 117.383 M109.867 119.496 C 98.612 129.028,94.667 138.289,94.667 155.172 C 94.667 156.753,97.071 161.578,97.867 161.594 C 98.115 161.599,103.677 154.000,105.090 151.726 C 108.926 145.551,110.018 141.597,110.794 131.067 C 111.250 124.896,111.815 120.432,112.380 118.556 C 112.857 116.971,112.841 116.977,109.867 119.496 M310.450 161.000 C 310.152 161.257,309.105 163.027,308.124 164.933 C 306.322 168.435,303.879 172.424,302.851 173.541 L 302.293 174.148 304.667 176.533 L 307.041 178.918 306.387 179.623 C 306.027 180.011,304.863 180.918,303.800 181.639 C 302.737 182.360,301.867 183.054,301.867 183.182 C 301.867 183.465,303.384 187.790,304.628 191.054 C 305.658 193.755,305.621 194.100,303.999 196.934 C 302.962 198.747,302.937 198.625,304.826 200.869 C 307.669 204.247,307.587 203.941,307.687 211.533 C 307.735 215.163,307.867 218.133,307.980 218.133 C 308.273 218.133,310.490 213.308,311.289 210.933 C 311.658 209.833,312.337 207.721,312.796 206.239 C 313.255 204.757,314.747 201.269,316.111 198.487 L 318.591 193.429 317.956 192.180 C 316.342 189.002,316.148 185.535,317.443 182.980 L 318.157 181.570 317.336 180.453 C 315.697 178.224,315.391 176.563,315.438 170.165 C 315.478 164.874,315.441 164.381,314.922 163.311 C 313.790 160.972,311.723 159.904,310.450 161.000 M94.754 161.817 C 94.596 162.064,92.997 163.947,91.200 166.000 C 83.731 174.534,82.529 177.164,82.541 184.933 C 82.550 190.508,82.972 192.750,85.503 200.667 L 86.953 205.200 89.276 207.415 L 91.600 209.630 91.915 205.815 C 92.344 200.626,92.610 198.896,94.289 190.361 C 97.100 176.065,97.407 170.745,95.834 163.532 C 95.375 161.427,95.190 161.133,94.754 161.817 M88.798 211.512 C 88.616 212.294,87.635 215.198,86.620 217.967 C 82.284 229.789,82.875 235.730,89.588 247.802 C 91.959 252.065,98.928 262.138,99.937 262.761 C 100.117 262.872,100.401 247.739,100.379 239.200 C 100.360 231.841,98.323 225.864,92.158 215.067 C 89.022 209.576,89.205 209.770,88.798 211.512 M311.567 219.106 C 309.385 220.668,306.958 222.373,306.173 222.895 L 304.746 223.845 304.906 225.122 C 304.995 225.825,305.140 226.982,305.229 227.693 L 305.391 228.985 303.296 230.678 C 302.143 231.609,300.392 233.078,299.405 233.942 L 297.611 235.512 299.157 237.556 C 300.007 238.680,300.790 239.746,300.896 239.925 C 301.026 240.145,300.317 240.638,298.700 241.450 C 296.851 242.379,296.335 242.756,296.416 243.125 C 300.232 260.641,300.302 262.544,297.302 267.505 C 295.685 270.179,294.328 272.800,294.560 272.800 C 294.653 272.800,295.551 272.253,296.558 271.584 C 299.671 269.514,302.027 266.401,305.730 259.467 C 308.255 254.739,307.796 255.293,311.383 252.637 C 315.049 249.923,315.062 249.901,314.689 247.133 C 314.105 242.788,314.057 242.929,316.808 240.870 C 319.759 238.661,320.533 236.575,321.221 228.990 L 321.408 226.926 319.900 225.345 C 318.124 223.484,316.973 221.207,316.354 218.333 C 315.809 215.802,316.292 215.724,311.567 219.106 M101.478 268.460 C 101.376 269.454,100.935 272.109,100.498 274.360 C 98.258 285.895,99.234 289.577,107.200 299.656 C 110.954 304.405,122.206 315.380,121.770 313.867 C 121.085 311.488,119.880 305.280,118.947 299.333 C 116.908 286.321,114.485 281.270,105.004 270.263 C 101.495 266.190,101.700 266.295,101.478 268.460 M301.067 271.361 C 298.322 273.130,297.087 273.717,292.800 275.289 C 291.535 275.753,289.227 277.451,286.171 280.165 C 284.486 281.662,284.205 281.812,282.767 281.976 C 281.905 282.074,280.690 282.223,280.067 282.308 L 278.933 282.461 277.054 286.329 L 275.175 290.198 276.555 292.299 L 277.934 294.400 276.879 295.545 C 275.444 297.102,274.586 299.029,273.615 302.876 C 271.979 309.354,270.784 311.408,265.088 317.525 C 260.056 322.930,257.406 326.133,257.967 326.133 C 258.360 326.133,262.522 322.529,266.148 319.048 C 268.794 316.508,271.401 314.303,273.348 312.956 C 277.169 310.314,279.758 308.222,282.701 305.396 L 285.001 303.187 285.114 300.018 C 285.274 295.545,285.763 295.254,292.593 295.559 C 297.039 295.758,296.606 296.283,297.186 290.000 C 297.982 281.387,298.346 280.505,301.542 279.442 C 304.259 278.537,304.267 278.523,304.267 274.022 C 304.267 271.907,304.340 269.987,304.429 269.755 C 304.684 269.088,304.326 269.260,301.067 271.361 M125.333 315.984 C 125.333 316.114,125.738 317.281,126.232 318.577 C 126.727 319.873,127.881 323.393,128.797 326.400 C 130.729 332.738,131.526 334.406,133.666 336.578 C 138.825 341.819,149.165 346.036,166.605 350.014 C 173.758 351.645,173.621 351.636,171.393 350.330 C 164.707 346.410,162.583 344.436,154.470 334.604 C 148.711 327.625,145.310 324.706,139.545 321.796 C 134.104 319.049,125.333 315.462,125.333 315.984 M257.653 320.053 C 256.811 320.896,257.614 322.322,258.767 322.032 C 259.520 321.843,259.796 321.276,259.571 320.379 C 259.391 319.663,258.240 319.467,257.653 320.053 M271.804 323.344 C 266.044 325.864,262.094 327.248,259.333 327.715 C 258.307 327.889,257.226 328.079,256.933 328.138 C 256.548 328.214,256.184 328.807,255.628 330.263 C 254.662 332.793,254.903 332.724,252.394 331.186 C 249.842 329.622,249.868 329.625,248.833 330.804 C 247.721 332.070,247.321 332.901,246.568 335.508 C 245.838 338.037,245.801 338.063,242.898 338.107 L 241.129 338.133 240.524 339.667 C 237.456 347.447,234.254 349.631,220.458 353.356 C 218.730 353.823,217.358 354.247,217.410 354.299 C 217.625 354.514,228.326 353.842,230.589 353.471 C 233.703 352.960,234.549 352.667,240.400 350.073 C 244.905 348.077,248.694 346.661,250.533 346.287 C 251.305 346.131,251.379 346.205,252.630 348.396 C 254.025 350.838,254.276 350.984,255.636 350.155 C 256.892 349.389,257.709 348.124,258.664 345.467 C 259.870 342.112,259.689 342.216,262.884 343.041 C 267.614 344.263,267.965 344.145,269.063 340.975 C 270.020 338.215,270.862 336.643,272.141 335.227 C 272.664 334.648,273.097 333.824,273.210 333.194 C 273.552 331.291,274.697 329.303,276.611 327.288 L 278.480 325.320 278.192 324.327 C 278.034 323.780,277.771 322.823,277.609 322.200 C 277.246 320.810,277.885 320.684,271.804 323.344 M193.768 331.319 C 188.332 333.200,186.596 333.437,179.972 333.201 L 174.744 333.015 174.572 333.874 C 174.477 334.347,174.400 337.352,174.400 340.552 L 174.400 346.371 178.144 348.291 C 180.204 349.347,183.228 351.107,184.866 352.201 L 187.843 354.190 189.510 352.362 C 190.427 351.356,191.153 350.449,191.122 350.345 C 191.010 349.964,181.415 339.923,179.916 338.617 L 178.365 337.266 179.105 336.493 L 179.846 335.720 183.469 339.336 L 187.092 342.952 189.879 341.628 C 195.898 338.768,200.786 338.861,209.221 341.993 L 211.108 342.695 216.014 340.014 C 221.626 336.948,221.627 336.947,220.573 338.467 C 219.250 340.373,217.383 341.832,214.240 343.415 C 211.618 344.735,210.664 345.714,208.702 349.101 L 207.987 350.335 210.163 351.958 C 212.013 353.338,212.406 353.532,212.797 353.257 C 213.174 352.992,219.801 347.062,224.389 342.886 L 225.467 341.905 225.417 337.592 C 225.390 335.220,225.290 333.202,225.194 333.106 C 225.099 333.011,221.281 332.932,216.710 332.929 L 208.400 332.926 204.358 331.528 C 198.690 329.568,198.822 329.570,193.768 331.319 M201.467 350.036 C 200.558 350.300,199.328 350.388,197.605 350.312 L 195.076 350.201 192.871 351.923 C 191.659 352.870,190.667 353.734,190.667 353.843 C 190.667 355.239,193.546 361.847,194.743 363.200 L 195.333 363.867 200.391 363.733 L 205.448 363.600 206.439 362.182 C 207.329 360.906,208.631 358.125,209.613 355.402 C 210.032 354.238,210.337 354.567,206.217 351.732 C 202.961 349.492,203.130 349.552,201.467 350.036 M187.641 360.948 C 183.641 361.884,179.742 362.200,172.067 362.210 C 168.133 362.215,165.067 362.323,165.067 362.457 C 165.067 363.322,169.475 368.633,171.238 369.892 C 171.936 370.391,171.959 370.389,173.441 369.734 C 174.895 369.090,177.730 368.459,182.933 367.620 C 186.448 367.053,187.143 366.816,188.663 365.660 C 190.643 364.155,191.600 362.153,191.038 360.688 C 190.845 360.184,190.935 360.177,187.641 360.948 M207.467 362.600 C 207.467 363.149,209.288 366.337,210.020 367.069 C 211.198 368.247,212.609 368.643,218.049 369.322 C 222.357 369.860,224.752 370.508,226.209 371.529 L 226.952 372.050 228.476 370.916 C 230.068 369.731,234.400 365.475,234.400 365.096 C 234.400 364.975,232.510 364.796,230.200 364.697 C 221.270 364.316,214.436 363.702,209.533 362.840 C 208.397 362.640,207.467 362.532,207.467 362.600 M148.988 369.614 C 150.339 370.381,151.805 371.321,152.248 371.704 L 153.053 372.400 152.124 374.375 C 151.613 375.461,151.242 376.398,151.300 376.456 C 151.358 376.514,154.089 376.754,157.369 376.989 C 165.958 377.606,170.864 377.100,175.200 375.152 L 176.932 374.373 174.134 372.908 C 172.595 372.103,170.259 370.716,168.942 369.826 L 166.548 368.208 164.674 368.532 C 160.679 369.221,153.205 369.150,147.600 368.369 C 146.623 368.233,146.739 368.338,148.988 369.614 M242.667 369.619 C 240.393 369.885,237.102 370.188,235.352 370.294 L 232.171 370.485 228.686 372.282 C 226.769 373.271,224.323 374.417,223.252 374.828 C 219.535 376.258,223.894 376.873,236.906 376.754 C 242.201 376.706,247.096 376.763,247.783 376.880 L 249.032 377.094 247.983 375.066 C 246.595 372.385,246.615 371.275,248.080 369.667 L 248.626 369.067 247.713 369.101 C 247.211 369.120,244.940 369.353,242.667 369.619 " stroke="none" fill="#fbf39d" fill-rule="evenodd"></path><path id="path3" d="M197.516 22.955 C 193.767 30.674,187.603 34.605,167.067 42.377 C 143.197 51.409,134.051 59.299,117.733 84.933 C 111.653 94.485,106.790 99.597,101.465 102.035 C 99.711 102.838,99.735 102.945,102.227 105.437 C 104.225 107.435,107.459 109.609,111.200 111.469 C 115.081 113.398,114.980 113.183,112.733 114.730 C 109.341 117.066,106.335 119.517,103.828 121.992 L 101.389 124.400 101.271 122.400 C 101.126 119.932,100.067 117.669,98.068 115.556 C 96.884 114.304,93.428 111.813,93.200 112.047 C 92.959 112.295,87.867 124.671,86.836 127.516 C 81.286 142.825,81.679 154.042,88.085 163.174 L 89.282 164.881 87.634 166.774 C 85.793 168.887,84.000 171.365,82.645 173.667 C 81.548 175.530,81.598 175.527,80.494 173.802 C 78.170 170.168,71.302 161.143,71.052 161.393 C 71.000 161.444,71.070 162.262,71.207 163.210 C 71.592 165.871,71.516 169.033,70.907 175.791 C 69.455 191.903,72.853 202.181,83.122 212.740 L 85.467 215.151 83.823 219.597 C 82.918 222.043,82.121 224.102,82.050 224.172 C 81.979 224.243,81.047 223.861,79.979 223.323 C 76.710 221.677,73.590 221.006,69.022 220.967 C 64.174 220.925,64.203 220.888,66.970 223.544 C 70.249 226.691,70.431 227.088,71.838 234.138 C 73.176 240.842,74.012 243.495,75.741 246.517 C 80.036 254.023,89.541 263.806,97.414 268.826 C 98.844 269.738,99.163 270.064,99.063 270.512 C 98.994 270.817,98.518 273.396,98.004 276.243 C 96.902 282.346,97.277 281.696,95.217 281.072 C 89.923 279.469,83.666 279.780,80.197 281.819 C 79.186 282.413,79.318 282.575,81.635 283.582 C 85.548 285.284,85.669 285.450,88.892 293.508 C 92.095 301.519,93.133 303.149,97.533 307.084 C 104.834 313.613,113.399 319.151,122.664 323.335 C 124.496 324.162,126.021 324.865,126.053 324.897 C 126.085 324.930,126.590 326.514,127.175 328.419 C 127.760 330.324,128.309 332.067,128.396 332.293 C 128.524 332.628,128.010 332.811,125.579 333.290 C 120.338 334.324,116.264 336.475,113.079 339.889 L 111.357 341.733 114.812 341.883 C 118.791 342.055,119.324 342.232,122.170 344.337 C 140.394 357.815,152.006 361.023,174.000 358.656 C 180.835 357.921,191.019 357.673,189.467 358.280 C 185.325 359.900,179.295 360.653,172.400 360.413 C 167.685 360.248,167.204 360.276,165.467 360.810 C 162.988 361.571,163.034 361.458,164.136 364.122 C 164.667 365.404,165.035 366.521,164.953 366.602 C 164.230 367.326,156.160 367.356,148.267 366.664 C 141.662 366.085,137.741 365.981,137.996 366.394 C 138.346 366.959,141.765 368.635,146.389 370.507 C 149.061 371.589,151.355 372.582,151.486 372.713 C 151.627 372.853,150.629 373.867,149.062 375.177 C 145.884 377.834,145.910 377.729,148.338 378.090 C 155.687 379.183,157.171 379.311,162.667 379.322 C 170.446 379.337,174.456 378.434,178.657 375.719 L 180.304 374.654 178.536 372.679 L 176.768 370.704 177.917 370.564 C 186.931 369.468,189.410 368.612,191.960 365.716 L 192.978 364.559 194.316 365.460 C 195.574 366.307,195.725 366.345,196.827 366.090 C 197.472 365.940,199.712 365.867,201.804 365.925 L 205.608 366.032 207.002 367.433 C 209.571 370.016,213.090 371.246,219.000 371.627 C 222.342 371.842,222.228 371.718,220.533 373.309 C 218.918 374.825,218.842 375.466,220.131 376.682 C 222.421 378.842,225.995 379.393,234.710 378.931 C 242.395 378.524,245.743 378.714,251.822 379.902 C 254.540 380.434,254.536 380.467,252.077 377.417 C 250.916 375.978,249.464 374.115,248.850 373.279 L 247.734 371.757 248.600 371.616 C 249.077 371.539,251.807 371.350,254.667 371.197 C 263.024 370.751,263.353 370.640,260.067 369.380 C 255.197 367.513,247.119 367.001,239.600 368.083 C 237.840 368.337,235.880 368.619,235.244 368.710 L 234.088 368.876 235.044 366.978 C 236.216 364.650,236.217 364.646,235.067 364.267 C 233.690 363.812,233.900 363.564,236.293 362.808 C 240.795 361.385,244.404 361.364,254.326 362.702 L 258.652 363.285 260.059 362.348 C 263.076 360.337,265.540 357.572,266.010 355.667 C 266.110 355.263,266.231 354.933,266.279 354.933 C 266.327 354.933,267.346 355.167,268.543 355.453 L 270.720 355.973 271.693 355.355 C 272.229 355.014,273.421 354.060,274.343 353.235 C 275.266 352.409,276.202 351.733,276.424 351.733 C 276.646 351.733,277.645 351.548,278.643 351.320 L 280.459 350.908 281.182 348.496 C 281.580 347.169,281.867 346.049,281.820 346.007 C 281.772 345.964,279.573 345.553,276.933 345.093 C 274.293 344.633,271.863 344.197,271.533 344.124 C 270.060 343.795,270.821 340.992,273.281 337.685 C 275.308 334.961,275.966 333.680,276.170 332.068 C 276.312 330.952,276.549 330.577,278.151 328.933 C 281.314 325.690,281.336 323.042,278.226 319.718 L 277.043 318.453 279.255 316.825 C 284.731 312.793,289.978 310.938,295.918 310.935 C 300.143 310.933,300.449 310.766,301.486 307.899 C 301.983 306.526,302.552 305.625,303.748 304.320 C 305.729 302.157,305.785 301.930,305.082 298.877 C 304.768 297.515,304.440 295.718,304.353 294.884 L 304.194 293.369 306.297 294.018 C 307.454 294.375,308.580 294.660,308.800 294.653 C 309.390 294.632,313.821 288.368,314.450 286.665 C 316.363 281.485,316.526 280.897,316.524 279.200 C 316.518 274.802,315.477 274.519,307.174 276.659 L 306.481 276.837 306.325 271.952 C 306.114 265.361,306.613 264.658,312.632 263.056 C 316.688 261.976,318.205 261.133,319.057 259.485 C 319.395 258.831,319.641 258.740,321.840 258.447 C 325.252 257.993,325.459 257.882,326.040 256.217 C 327.145 253.044,326.363 247.274,324.632 245.838 C 324.019 245.329,324.219 244.924,325.267 244.552 C 330.106 242.833,330.967 241.901,330.254 239.152 C 329.858 237.623,329.866 237.511,330.509 235.597 C 331.693 232.072,332.308 225.001,331.501 224.194 C 330.794 223.487,328.697 223.662,326.166 224.640 L 323.674 225.602 321.827 223.965 C 319.614 222.003,319.657 222.076,318.936 219.005 C 318.265 216.150,317.312 214.620,315.881 214.102 C 314.706 213.677,314.706 213.669,315.967 212.073 C 317.674 209.914,319.712 208.322,322.655 206.847 C 325.860 205.242,326.333 204.626,327.062 201.116 C 327.399 199.492,327.611 199.046,328.332 198.449 C 333.188 194.431,333.576 191.684,330.013 186.526 C 328.268 184.001,328.291 184.201,329.476 181.849 C 330.960 178.902,331.039 177.981,330.144 174.102 C 327.697 163.501,324.988 162.310,320.207 169.733 C 317.731 173.579,317.717 173.582,317.818 170.226 C 317.976 164.956,316.991 161.532,314.699 159.390 L 313.467 158.238 313.681 156.279 C 313.844 154.800,314.080 154.052,314.647 153.227 C 315.575 151.874,317.251 148.549,318.403 145.772 L 319.273 143.678 317.077 139.307 L 314.882 134.936 315.836 133.608 L 316.790 132.279 316.396 130.017 C 315.457 124.635,313.806 121.997,310.682 120.887 L 309.354 120.415 308.833 118.141 C 308.546 116.890,308.232 115.437,308.134 114.911 C 307.784 113.021,302.408 110.997,301.642 112.467 C 301.508 112.723,301.078 114.073,300.687 115.467 C 299.913 118.218,299.467 118.809,297.950 119.094 C 295.903 119.478,292.636 118.044,289.523 115.396 L 288.779 114.763 292.323 113.495 C 297.914 111.494,303.937 108.437,303.681 107.729 C 303.637 107.605,301.935 106.354,299.899 104.948 C 291.128 98.892,288.587 95.864,280.707 82.076 C 269.636 62.703,259.027 53.885,235.067 44.138 C 218.584 37.433,212.766 34.504,206.411 29.714 C 203.046 27.178,201.618 25.101,200.148 20.600 C 199.537 18.731,199.591 18.683,197.516 22.955 M206.106 32.764 C 211.407 36.694,218.348 40.272,229.200 44.669 C 243.162 50.325,247.982 52.715,255.600 57.758 C 266.109 64.716,270.888 70.214,279.322 85.055 C 285.930 96.684,288.884 100.323,295.954 105.547 L 299.240 107.976 298.220 108.405 C 297.659 108.641,294.740 109.683,291.733 110.721 C 282.765 113.817,279.729 115.328,275.674 118.717 C 272.516 121.355,266.410 125.077,265.264 125.062 C 265.082 125.060,264.213 123.958,263.334 122.614 C 228.882 69.969,171.081 70.015,135.686 122.716 L 133.951 125.299 133.042 124.749 C 131.605 123.879,129.740 122.266,125.852 118.530 C 121.246 114.104,119.854 113.072,114.871 110.384 C 109.588 107.534,104.533 104.570,104.533 104.321 C 104.533 104.212,105.667 103.189,107.052 102.047 C 111.960 98.000,115.400 93.663,122.532 82.533 C 136.463 60.792,145.626 53.342,169.578 44.280 C 185.428 38.283,193.186 33.860,198.093 28.021 L 199.253 26.642 201.591 28.896 C 202.877 30.136,204.909 31.876,206.106 32.764 M203.467 85.873 C 260.291 90.167,298.177 171.592,277.848 245.735 C 272.060 266.846,262.236 285.334,249.668 298.769 L 248.062 300.486 236.231 300.781 C 216.461 301.273,197.242 301.578,173.866 301.769 L 151.598 301.951 149.628 299.842 C 115.239 263.032,105.124 198.902,125.658 147.867 C 140.149 111.851,167.090 87.929,195.467 85.879 C 199.618 85.580,199.579 85.580,203.467 85.873 M306.015 117.200 C 307.969 121.623,307.940 121.582,310.584 123.648 C 313.949 126.275,314.351 127.460,313.680 132.767 C 313.200 136.567,313.242 136.744,315.773 141.488 L 317.064 143.910 315.902 146.288 C 315.263 147.596,314.116 149.747,313.354 151.067 C 312.130 153.185,311.930 153.748,311.650 155.867 L 311.333 158.267 309.667 159.148 L 308.000 160.029 308.000 158.607 C 308.000 157.824,308.197 155.688,308.438 153.859 C 309.447 146.204,308.959 141.194,306.893 138.000 C 305.946 136.537,305.938 136.371,306.686 133.905 C 307.805 130.217,307.311 129.326,302.699 126.709 C 299.085 124.658,297.217 122.808,298.086 122.139 C 298.376 121.916,299.058 121.388,299.601 120.967 C 301.236 119.697,302.796 116.935,303.912 113.333 C 304.073 112.812,304.089 112.840,306.015 117.200 M118.227 115.267 C 118.835 115.743,121.506 118.188,124.163 120.699 C 126.821 123.210,129.731 125.765,130.631 126.376 C 132.598 127.711,132.617 127.121,130.486 130.868 C 104.506 176.561,106.467 242.031,135.135 286.133 C 169.432 338.893,227.980 339.199,262.792 286.800 C 291.928 242.943,294.158 177.816,268.153 130.211 L 266.666 127.490 267.933 126.769 C 268.630 126.373,269.575 125.827,270.034 125.556 L 270.868 125.064 271.527 125.932 C 271.890 126.409,272.275 127.280,272.383 127.867 C 272.704 129.605,274.021 132.735,275.748 135.867 L 277.365 138.800 277.046 140.333 C 276.254 144.140,277.960 147.376,282.526 150.729 C 284.284 152.019,285.000 152.786,286.533 155.016 C 288.614 158.043,289.012 158.322,292.267 159.043 C 297.403 160.180,299.089 161.273,302.705 165.809 L 304.253 167.750 302.214 170.580 L 300.176 173.410 297.888 170.962 C 295.206 168.093,294.846 167.995,292.094 169.394 C 290.119 170.397,290.194 170.134,291.174 172.601 C 293.273 177.885,293.461 181.742,291.785 185.129 C 291.068 186.578,291.042 186.757,291.275 188.566 C 291.554 190.729,291.210 193.079,290.375 194.716 C 290.095 195.264,289.867 195.760,289.867 195.818 C 289.867 195.875,290.827 196.678,292.000 197.600 L 294.133 199.277 294.133 201.133 C 294.133 204.607,295.231 207.435,298.660 212.800 C 300.714 216.014,301.867 217.966,301.867 218.231 C 301.867 218.332,301.079 217.811,300.117 217.074 C 296.353 214.189,293.878 215.495,293.582 220.523 C 293.424 223.197,293.386 223.335,292.663 223.856 C 287.908 227.281,288.080 226.727,290.674 230.260 L 292.817 233.179 291.922 233.639 C 289.838 234.708,288.094 237.488,287.314 240.985 C 286.758 243.478,287.057 244.557,289.724 249.691 C 294.007 257.938,293.757 263.454,288.745 271.282 L 287.924 272.565 287.005 271.682 C 286.499 271.197,284.941 269.390,283.543 267.667 C 282.144 265.943,280.949 264.533,280.887 264.533 C 279.527 264.533,277.573 266.998,276.383 270.216 C 275.076 273.749,274.681 274.504,273.212 276.267 C 271.683 278.101,271.363 279.234,271.548 282.160 L 271.694 284.454 270.847 284.858 C 268.793 285.839,263.467 291.319,263.467 292.451 C 263.467 292.637,264.010 294.015,264.674 295.512 C 266.954 300.655,267.088 302.099,265.724 306.806 C 264.602 310.680,262.943 313.565,260.165 316.475 L 258.566 318.150 257.746 316.475 C 256.156 313.228,254.057 313.274,250.464 316.636 C 248.951 318.051,247.666 319.011,246.913 319.288 C 246.264 319.527,245.041 319.975,244.196 320.282 C 243.350 320.590,242.330 321.113,241.929 321.445 C 241.528 321.777,239.880 322.927,238.267 324.001 C 234.790 326.315,235.102 325.917,234.538 328.758 C 233.937 331.786,233.246 333.566,232.126 334.975 C 231.037 336.344,230.511 337.808,230.131 340.526 C 229.484 345.146,223.532 351.114,218.800 351.888 L 217.733 352.062 219.200 350.532 C 220.007 349.691,222.068 347.877,223.781 346.503 L 226.896 344.003 227.348 341.971 C 227.682 340.473,227.764 339.228,227.661 337.236 C 227.358 331.355,226.261 330.458,219.600 330.647 C 217.400 330.710,214.100 330.767,212.267 330.775 L 208.933 330.789 204.800 329.348 C 199.166 327.383,198.527 327.391,192.267 329.497 L 187.600 331.066 181.154 331.067 C 172.045 331.067,172.304 330.807,172.201 340.019 C 172.128 346.490,172.025 345.816,173.549 348.887 C 173.749 349.291,171.494 348.007,170.553 347.182 C 169.704 346.436,169.418 345.730,167.175 338.850 C 162.559 324.686,161.207 322.477,154.315 317.833 C 148.633 314.005,148.102 313.503,145.270 309.283 C 142.885 305.730,139.958 302.354,139.585 302.726 C 139.496 302.815,139.547 303.768,139.698 304.844 C 139.849 305.920,140.052 309.200,140.149 312.133 C 140.246 315.067,140.411 318.018,140.516 318.692 L 140.707 319.918 136.420 317.923 C 134.062 316.826,132.094 315.895,132.046 315.855 C 131.999 315.815,132.177 314.481,132.443 312.891 C 134.101 302.975,132.635 293.654,127.858 283.733 C 126.238 280.370,124.921 277.167,124.129 274.667 C 122.048 268.098,119.284 261.323,118.692 261.337 C 118.605 261.339,118.325 261.997,118.070 262.799 C 117.816 263.601,116.990 265.609,116.235 267.262 C 115.480 268.915,114.298 271.546,113.608 273.110 L 112.354 275.954 109.850 272.844 C 105.249 267.128,105.249 267.131,107.501 259.081 C 112.433 241.445,112.598 237.221,108.799 225.867 L 107.415 221.733 107.500 217.867 C 107.613 212.713,107.527 209.639,107.243 208.667 L 107.009 207.867 106.504 208.753 C 103.930 213.278,97.781 221.706,97.655 220.882 C 97.352 218.899,100.003 210.790,104.133 201.067 C 105.820 197.097,107.768 192.202,108.463 190.191 L 109.726 186.533 109.707 182.133 C 109.696 179.713,109.566 176.294,109.417 174.535 C 109.254 172.606,109.237 170.445,109.374 169.091 C 109.499 167.856,109.567 166.811,109.525 166.769 C 109.483 166.727,107.112 168.361,104.257 170.401 L 99.067 174.110 98.890 171.922 C 98.792 170.718,98.645 168.885,98.564 167.848 L 98.415 165.963 101.941 164.207 C 112.377 159.006,116.382 154.548,123.329 140.400 C 125.374 136.235,127.733 130.853,127.733 130.354 C 127.733 130.155,127.125 130.123,125.800 130.249 C 121.381 130.672,117.338 131.895,114.287 133.733 C 113.433 134.246,112.692 134.667,112.638 134.667 C 112.418 134.667,113.307 125.575,113.766 123.133 C 114.374 119.896,116.388 114.400,116.966 114.400 C 117.053 114.400,117.620 114.790,118.227 115.267 M96.417 116.933 C 100.040 121.353,100.078 123.500,96.695 132.585 C 93.841 140.247,93.283 143.188,92.804 153.067 C 92.544 158.437,92.112 163.444,91.888 163.667 C 91.843 163.713,91.160 163.045,90.370 162.184 C 84.165 155.419,83.376 144.780,88.018 130.509 C 89.636 125.536,94.237 114.825,94.684 114.991 C 94.796 115.033,95.576 115.907,96.417 116.933 M284.957 122.776 C 285.079 125.590,285.059 127.227,284.902 127.129 C 284.763 127.044,282.913 126.711,280.792 126.391 C 276.808 125.789,273.117 124.957,272.734 124.574 C 272.515 124.355,279.425 119.160,282.667 117.106 L 284.400 116.008 284.580 117.138 C 284.679 117.759,284.848 120.296,284.957 122.776 M288.497 117.432 C 289.471 118.073,291.363 119.234,292.702 120.011 C 295.131 121.421,295.141 121.430,296.169 123.543 C 297.435 126.146,297.784 126.445,302.126 128.653 C 304.037 129.624,305.600 130.445,305.600 130.476 C 305.600 130.508,305.366 131.149,305.080 131.901 C 303.609 135.771,303.802 138.175,305.752 140.259 L 306.933 141.522 306.909 145.494 C 306.896 147.679,306.746 151.786,306.576 154.622 L 306.267 159.777 305.098 158.118 C 304.455 157.205,302.222 154.705,300.136 152.563 C 296.385 148.709,296.341 148.651,296.154 147.200 C 295.681 143.535,295.625 143.426,293.677 142.400 C 290.517 140.736,287.955 138.262,288.344 137.250 C 288.415 137.065,289.176 136.090,290.035 135.084 L 291.596 133.255 289.265 131.076 L 286.933 128.896 286.914 123.981 C 286.903 121.278,286.805 118.437,286.695 117.667 C 286.455 115.984,286.325 116.001,288.497 117.432 M112.534 118.396 C 111.905 120.733,111.469 123.968,111.065 129.291 C 109.914 144.471,108.493 148.221,99.552 159.671 L 97.829 161.878 96.118 159.256 L 94.407 156.634 94.674 152.251 C 95.739 134.792,98.967 128.220,111.462 118.073 C 112.875 116.926,112.926 116.942,112.534 118.396 M280.400 128.415 C 283.348 129.207,289.067 132.261,289.067 133.044 C 289.067 133.153,288.421 133.956,287.632 134.828 L 286.197 136.413 286.788 138.044 C 287.856 140.994,290.105 143.377,292.710 144.319 C 293.246 144.513,293.600 144.822,293.600 145.096 C 293.600 147.423,295.496 150.571,299.400 154.730 C 302.509 158.041,304.009 160.153,304.673 162.151 C 305.317 164.092,305.115 164.139,303.200 162.493 C 299.569 159.373,296.328 157.609,293.456 157.190 C 290.938 156.822,289.182 155.420,287.205 152.198 C 286.701 151.377,285.740 150.361,284.878 149.737 C 283.151 148.487,278.787 143.999,278.539 143.219 C 278.425 142.858,278.685 142.111,279.321 140.973 L 280.275 139.268 279.227 137.544 C 278.651 136.595,277.259 133.982,276.134 131.736 L 274.089 127.652 276.445 127.818 C 277.740 127.910,279.520 128.179,280.400 128.415 M124.533 132.493 C 124.533 132.880,119.899 142.709,118.547 145.188 C 115.198 151.332,111.123 156.252,107.333 158.725 C 105.213 160.109,100.291 162.780,100.140 162.629 C 100.085 162.573,101.479 160.491,103.238 158.002 C 107.975 151.297,109.745 147.879,111.456 142.133 C 113.078 136.686,114.936 134.970,121.240 133.095 C 124.142 132.232,124.533 132.161,124.533 132.493 M313.675 161.426 C 315.506 163.257,315.600 163.702,315.600 170.533 C 315.600 177.350,315.795 178.327,317.607 180.582 L 318.431 181.607 317.929 182.337 C 316.223 184.815,316.215 188.058,317.905 191.761 L 318.709 193.521 316.718 197.498 C 314.115 202.695,313.465 204.262,312.250 208.267 C 311.120 211.995,309.758 215.376,308.623 217.271 L 307.867 218.533 307.718 211.867 C 307.542 203.952,307.688 204.409,303.920 199.920 L 302.906 198.712 304.120 196.411 C 305.620 193.566,305.644 194.029,303.747 189.010 C 301.310 182.559,301.348 183.162,303.292 181.883 C 304.195 181.289,305.406 180.401,305.984 179.909 L 307.035 179.014 304.588 176.587 C 303.242 175.253,302.256 174.089,302.397 174.002 C 302.953 173.658,306.179 168.483,307.883 165.200 C 310.550 160.063,311.617 159.368,313.675 161.426 M95.815 163.000 C 97.443 169.566,97.115 176.991,94.670 188.937 C 93.052 196.838,92.238 202.219,92.077 206.075 C 91.989 208.170,91.833 209.850,91.730 209.809 C 91.626 209.767,90.520 208.773,89.271 207.600 L 87.000 205.467 85.367 200.461 C 79.975 183.930,81.050 177.271,90.906 166.167 C 92.256 164.646,93.735 162.936,94.192 162.367 C 95.275 161.019,95.329 161.040,95.815 163.000 M326.918 170.579 C 327.494 172.365,328.172 174.788,328.425 175.964 L 328.884 178.102 327.599 181.041 L 326.315 183.980 328.381 188.057 C 330.838 192.906,330.840 192.806,328.245 195.605 C 326.435 197.557,325.700 198.761,324.555 201.646 C 323.821 203.497,323.888 203.436,319.465 206.275 C 317.486 207.545,315.350 209.007,314.719 209.522 C 314.087 210.038,313.514 210.403,313.445 210.334 C 313.209 210.098,314.866 206.011,317.472 200.400 C 320.519 193.840,320.583 193.448,319.262 189.400 L 318.456 186.932 319.364 184.131 L 320.273 181.330 319.484 179.798 C 319.050 178.956,318.449 177.907,318.149 177.467 C 317.359 176.309,317.419 176.140,319.371 174.040 C 320.346 172.991,322.102 170.893,323.275 169.378 C 325.742 166.191,325.474 166.102,326.918 170.579 M76.395 171.459 C 77.565 173.062,78.924 175.161,79.415 176.124 L 80.307 177.875 80.539 184.471 C 80.814 192.272,81.078 193.636,83.991 202.267 C 85.840 207.747,86.933 211.512,86.933 212.400 C 86.933 213.400,82.487 209.187,79.976 205.808 C 73.393 196.949,71.403 187.032,73.329 172.667 C 73.623 170.467,73.865 168.637,73.866 168.600 C 73.872 168.183,74.618 169.027,76.395 171.459 M301.915 176.863 C 304.713 178.838,304.677 178.477,302.250 180.242 L 300.267 181.685 300.267 183.529 C 300.267 185.560,300.907 187.785,302.493 191.265 L 303.435 193.330 302.251 195.829 C 300.783 198.927,300.705 198.348,303.065 201.865 C 305.883 206.062,305.990 206.526,305.755 213.467 C 305.651 216.547,305.483 219.724,305.383 220.527 L 305.200 221.987 304.174 219.327 C 302.970 216.202,300.606 211.581,298.661 208.550 C 296.896 205.798,296.534 204.556,296.529 201.224 C 296.524 198.093,296.648 198.345,294.315 196.698 C 292.960 195.741,292.540 195.301,292.667 194.973 C 293.308 193.321,293.615 191.335,293.560 189.200 C 293.500 186.905,293.535 186.742,294.349 185.481 C 295.554 183.613,295.352 179.418,293.750 173.081 C 293.374 171.595,293.067 170.266,293.067 170.128 C 293.067 169.990,294.528 171.076,296.315 172.541 C 298.102 174.005,300.622 175.951,301.915 176.863 M107.353 175.474 C 108.292 184.111,107.878 186.518,103.731 196.542 C 99.925 205.739,98.108 210.310,96.790 214.000 C 95.408 217.866,95.324 217.980,94.922 216.501 C 93.196 210.149,93.478 204.226,96.115 191.424 C 96.911 187.561,97.746 183.159,97.971 181.641 C 98.423 178.587,99.009 177.315,100.711 175.693 C 101.682 174.768,106.710 171.154,106.842 171.286 C 106.876 171.321,107.106 173.205,107.353 175.474 M92.127 214.800 C 96.490 222.466,98.441 226.898,99.819 232.267 C 100.373 234.429,100.785 263.197,100.261 263.199 C 100.185 263.200,99.210 262.030,98.095 260.600 C 91.613 252.288,87.635 245.376,85.324 238.413 C 82.592 230.181,82.779 227.883,87.131 216.267 C 87.708 214.727,88.399 212.652,88.666 211.656 C 88.933 210.660,89.241 209.940,89.349 210.056 C 89.458 210.172,90.708 212.307,92.127 214.800 M105.717 222.400 C 105.934 223.353,106.723 226.173,107.471 228.667 C 109.950 236.928,109.858 242.619,107.077 253.200 C 106.132 256.795,103.314 265.296,102.935 265.694 C 102.350 266.309,102.080 254.532,102.382 241.600 L 102.497 236.667 101.356 231.200 C 99.667 223.115,99.801 222.093,103.135 217.594 L 104.667 215.528 104.995 218.097 C 105.175 219.510,105.500 221.447,105.717 222.400 M316.267 216.977 C 316.267 219.473,318.098 223.449,320.207 225.534 L 321.624 226.934 321.186 230.334 C 320.230 237.756,319.794 238.785,316.606 241.134 L 314.346 242.800 314.518 244.400 C 315.162 250.378,315.395 249.764,311.333 252.800 C 308.194 255.147,308.102 255.259,305.856 259.467 C 302.153 266.408,298.719 270.744,295.709 272.279 C 293.939 273.182,294.085 272.692,297.062 267.733 C 300.059 262.742,300.090 261.908,297.721 250.193 C 296.014 241.753,295.854 242.810,299.085 241.147 L 301.001 240.160 299.294 237.898 L 297.587 235.635 298.594 234.594 C 299.147 234.022,300.877 232.534,302.438 231.287 L 305.277 229.021 305.146 227.911 C 305.074 227.300,304.920 226.140,304.802 225.333 C 304.653 224.309,304.681 223.813,304.894 223.690 C 305.062 223.593,306.340 222.700,307.733 221.706 C 316.375 215.542,316.267 215.602,316.267 216.977 M298.825 218.600 C 302.476 222.250,304.297 227.305,302.429 228.604 C 300.903 229.667,295.733 234.659,295.733 235.071 C 295.733 235.262,296.213 236.266,296.800 237.301 C 297.387 238.337,297.867 239.234,297.867 239.295 C 297.867 239.357,297.081 239.900,296.120 240.502 L 294.373 241.597 294.544 243.265 C 294.638 244.183,295.010 246.373,295.372 248.133 C 296.887 255.514,297.300 257.852,297.466 260.000 L 297.642 262.267 295.997 265.600 C 293.709 270.237,290.940 274.169,289.125 275.358 L 288.412 275.825 288.824 275.179 C 296.097 263.773,296.538 258.674,291.190 247.810 C 289.876 245.138,288.800 242.824,288.800 242.666 C 288.800 242.008,290.525 239.115,293.311 235.097 C 295.021 232.632,294.843 231.835,291.677 227.816 C 291.501 227.591,291.747 227.335,292.513 226.944 C 294.031 226.169,294.779 224.873,295.727 221.369 C 296.984 216.728,296.967 216.743,298.825 218.600 M77.525 224.558 C 80.221 225.714,81.600 227.446,81.600 229.676 C 81.600 237.356,85.389 245.742,95.537 260.522 C 100.616 267.918,100.558 267.797,98.510 266.697 C 92.698 263.575,86.094 257.318,80.066 249.224 C 76.719 244.730,75.746 242.269,73.727 233.200 C 73.042 230.120,72.133 226.508,71.707 225.172 C 71.282 223.837,70.933 222.681,70.933 222.602 C 70.933 222.401,75.996 223.903,77.525 224.558 M330.132 225.933 C 330.121 228.127,328.823 233.931,327.832 236.212 L 327.219 237.623 328.041 238.958 C 328.492 239.693,328.818 240.332,328.764 240.378 C 328.711 240.425,327.287 241.258,325.600 242.228 C 323.913 243.199,322.360 244.106,322.149 244.244 C 321.827 244.454,321.924 244.837,322.740 246.581 C 324.040 249.359,324.576 251.576,324.479 253.769 L 324.400 255.560 322.207 256.031 C 319.397 256.635,317.866 257.321,316.349 258.656 C 314.413 260.360,307.498 262.786,306.739 262.028 C 305.910 261.199,310.200 255.906,313.903 253.188 C 316.999 250.915,317.283 250.343,316.804 247.333 C 316.198 243.522,316.086 243.825,318.785 241.978 C 321.625 240.035,321.337 240.665,322.554 233.733 C 323.708 227.159,323.229 227.951,326.829 226.665 C 330.138 225.483,330.134 225.484,330.132 225.933 M104.758 269.830 C 114.501 281.111,117.029 286.254,118.935 298.667 C 119.845 304.600,121.098 311.132,121.721 313.205 C 122.290 315.094,122.212 315.053,118.474 311.523 C 109.120 302.689,104.461 297.093,101.229 290.813 C 98.903 286.293,98.704 283.068,100.258 275.067 C 100.713 272.720,101.149 270.080,101.227 269.200 C 101.531 265.746,101.177 265.683,104.758 269.830 M120.803 271.333 C 122.602 277.191,124.048 280.906,126.201 285.203 C 130.292 293.366,131.602 300.896,130.678 310.940 C 130.278 315.292,130.751 314.924,126.918 313.862 C 122.858 312.738,123.336 313.918,120.928 299.084 C 119.523 290.427,119.409 289.988,117.165 284.633 C 114.382 277.993,114.215 276.467,115.871 272.849 C 116.651 271.146,119.221 266.596,119.334 266.718 C 119.376 266.763,120.037 268.840,120.803 271.333 M285.010 272.906 C 286.669 275.103,286.688 275.320,285.425 277.786 L 284.443 279.706 282.955 279.862 C 282.136 279.948,280.634 280.164,279.617 280.342 L 277.767 280.667 275.316 285.200 L 272.866 289.733 274.049 291.937 L 275.232 294.140 274.676 294.920 C 273.621 296.402,272.551 299.083,271.339 303.284 C 269.962 308.055,268.897 310.445,267.380 312.169 C 265.962 313.779,265.944 313.636,267.057 309.563 C 269.178 301.798,269.166 300.457,266.930 295.491 C 265.515 292.350,265.636 292.129,271.542 287.023 L 273.351 285.460 273.457 283.463 C 273.594 280.865,274.167 279.300,276.899 274.061 C 278.141 271.681,279.354 269.045,279.596 268.204 L 280.036 266.675 281.828 268.871 C 282.813 270.078,284.245 271.895,285.010 272.906 M304.400 273.862 L 304.205 278.418 303.502 278.773 C 303.116 278.968,302.174 279.332,301.408 279.583 C 298.444 280.551,298.045 281.621,297.195 290.896 C 296.700 296.291,297.240 295.763,292.312 295.675 C 285.383 295.551,285.151 295.717,285.251 300.734 L 285.300 303.202 282.236 305.999 C 279.070 308.890,276.332 311.062,273.333 313.061 C 270.946 314.651,269.292 316.074,264.901 320.313 C 261.267 323.821,257.938 326.561,257.655 326.277 C 257.407 326.030,260.467 322.314,264.033 318.533 C 270.577 311.594,271.659 309.838,273.345 303.418 C 274.425 299.310,275.458 296.902,276.798 295.376 C 277.801 294.234,277.837 294.460,276.299 292.181 L 274.998 290.253 276.824 286.526 C 279.093 281.897,278.743 282.248,281.305 282.034 C 284.172 281.795,284.386 281.694,286.973 279.345 C 289.987 276.608,291.532 275.617,294.312 274.637 C 297.293 273.585,298.433 273.002,301.726 270.841 C 303.189 269.882,304.433 269.144,304.491 269.202 C 304.548 269.259,304.508 271.357,304.400 273.862 M313.964 277.886 C 314.854 278.586,314.845 278.990,313.876 281.881 C 312.875 284.870,311.337 287.932,309.768 290.060 L 308.544 291.720 306.037 291.555 L 303.529 291.390 303.041 292.135 C 302.396 293.119,302.245 295.725,302.663 298.642 L 302.993 300.944 301.534 303.472 C 300.732 304.862,299.756 306.630,299.367 307.400 L 298.658 308.800 295.480 308.800 C 287.792 308.800,281.833 311.506,274.724 318.224 C 271.592 321.184,270.096 322.100,265.968 323.584 C 263.508 324.468,263.526 324.476,264.715 323.024 C 266.313 321.073,269.882 318.050,276.142 313.346 C 286.559 305.517,287.779 304.043,287.253 299.920 C 287.100 298.719,287.017 297.694,287.070 297.641 C 287.189 297.522,287.568 297.519,291.899 297.594 C 298.321 297.706,298.646 297.262,299.610 287.060 C 300.113 281.728,299.567 282.516,304.243 280.383 C 310.235 277.651,312.820 276.986,313.964 277.886 M89.163 282.121 C 95.047 282.651,96.458 283.538,97.874 287.600 C 100.711 295.736,105.408 301.635,120.702 316.267 C 124.332 319.739,126.094 321.728,125.801 322.021 C 124.800 323.023,109.768 314.293,102.459 308.465 C 95.311 302.765,94.409 301.514,90.395 291.721 C 88.275 286.549,87.641 285.237,86.295 283.240 C 85.331 281.809,85.161 281.463,85.533 281.690 C 85.643 281.757,87.277 281.951,89.163 282.121 M244.514 303.933 C 241.938 306.379,239.983 307.670,238.597 307.841 C 237.050 308.032,203.053 308.535,179.200 308.720 L 159.600 308.872 156.433 306.236 L 153.265 303.600 174.699 303.432 C 186.488 303.340,205.493 303.067,216.933 302.825 C 242.325 302.289,243.546 302.262,245.138 302.190 L 246.410 302.133 244.514 303.933 M144.408 312.155 C 146.813 315.046,148.604 316.577,153.214 319.679 C 157.703 322.700,159.125 324.270,161.052 328.332 C 163.124 332.700,167.026 344.263,166.579 344.709 C 166.292 344.997,161.565 340.105,158.598 336.447 C 153.766 330.491,151.556 328.088,148.053 324.980 C 142.958 320.461,142.133 318.775,142.133 312.877 C 142.133 311.075,142.167 309.600,142.208 309.600 C 142.249 309.600,143.239 310.750,144.408 312.155 M237.333 309.715 C 237.333 309.990,232.967 312.874,231.681 313.447 C 229.518 314.412,199.903 315.358,178.267 315.153 L 169.200 315.067 167.746 314.301 C 166.946 313.880,165.369 312.904,164.242 312.133 L 162.193 310.729 176.230 310.551 C 183.950 310.452,198.847 310.216,209.333 310.025 C 231.514 309.621,237.333 309.556,237.333 309.715 M130.267 317.516 C 143.036 322.559,146.834 325.283,155.292 335.467 C 162.364 343.982,164.659 346.109,170.833 349.874 C 173.898 351.742,173.860 351.752,168.359 350.523 C 148.974 346.192,138.167 341.766,133.035 336.056 C 131.318 334.147,130.603 332.629,129.102 327.707 C 128.359 325.273,127.154 321.572,126.424 319.482 L 125.096 315.683 125.815 315.862 C 126.210 315.961,128.213 316.705,130.267 317.516 M255.487 316.333 C 255.497 316.663,255.657 318.613,255.841 320.667 L 256.176 324.400 255.096 326.598 L 254.017 328.795 251.445 328.627 C 247.418 328.363,246.264 329.286,244.971 333.804 L 244.381 335.867 241.936 336.229 L 239.491 336.591 238.772 338.496 C 236.687 344.020,235.604 345.228,229.796 348.509 L 228.259 349.377 229.727 346.604 C 230.534 345.079,231.670 342.384,232.250 340.616 C 232.831 338.847,233.692 336.829,234.163 336.131 C 235.174 334.633,236.436 331.142,236.684 329.156 L 236.860 327.749 240.681 325.074 C 242.784 323.603,244.633 322.400,244.792 322.400 C 246.371 322.400,249.687 320.433,253.067 317.492 C 255.292 315.555,255.458 315.475,255.487 316.333 M224.400 317.340 C 209.531 324.551,190.170 324.780,174.933 317.927 L 173.200 317.147 184.933 316.941 C 191.387 316.827,202.007 316.587,208.533 316.408 C 215.060 316.228,221.900 316.073,223.733 316.064 L 227.067 316.047 224.400 317.340 M259.686 320.616 C 259.803 321.641,259.291 322.178,258.289 322.080 C 257.443 321.998,257.060 321.097,257.445 320.095 C 257.745 319.313,259.586 319.741,259.686 320.616 M277.996 323.181 L 278.478 325.295 276.694 327.247 C 274.799 329.321,273.688 331.252,273.413 332.947 C 273.305 333.612,272.814 334.512,272.043 335.458 C 270.796 336.988,269.741 339.075,268.939 341.600 C 268.199 343.931,266.880 344.290,263.067 343.200 C 259.908 342.297,259.910 342.296,258.938 345.012 C 256.764 351.090,254.730 352.192,252.560 348.467 C 251.635 346.878,251.220 346.400,250.769 346.400 C 249.686 346.400,245.438 347.945,240.562 350.113 C 232.799 353.565,230.795 354.008,221.839 354.255 L 216.933 354.390 218.933 353.744 C 220.033 353.388,222.473 352.670,224.355 352.149 C 233.867 349.513,237.380 346.945,239.952 340.748 C 241.102 337.975,241.191 337.919,244.427 337.882 L 245.788 337.867 246.270 336.082 C 246.861 333.899,248.286 330.992,249.172 330.159 L 249.830 329.542 252.113 330.921 C 254.784 332.534,254.646 332.568,255.603 330.060 L 256.350 328.105 258.508 327.766 C 261.541 327.291,266.262 325.682,271.867 323.214 C 277.847 320.580,277.402 320.582,277.996 323.181 M203.705 331.179 C 208.881 332.923,209.911 333.071,215.333 332.851 C 217.827 332.749,221.065 332.727,222.531 332.800 L 225.195 332.933 225.414 334.400 C 225.929 337.840,225.551 342.109,224.666 342.851 C 224.226 343.220,221.367 345.759,218.313 348.494 C 211.691 354.423,212.709 353.975,210.139 352.090 C 207.594 350.223,207.631 350.521,209.585 347.554 C 211.291 344.965,211.337 344.924,214.677 343.077 C 217.572 341.475,219.245 340.183,220.270 338.755 C 221.371 337.222,221.375 337.221,216.000 340.133 C 210.524 343.101,211.605 342.913,207.557 341.596 C 199.285 338.905,195.878 338.919,190.052 341.670 L 187.171 343.030 183.649 339.515 C 179.901 335.776,179.808 335.714,179.075 336.524 C 178.612 337.035,178.740 337.191,184.264 342.857 C 192.299 351.099,191.774 350.031,189.178 352.865 L 187.823 354.345 185.578 352.807 C 182.834 350.926,178.141 348.212,175.792 347.147 L 174.051 346.357 174.226 341.936 C 174.322 339.504,174.400 336.523,174.400 335.310 L 174.400 333.105 181.667 333.017 L 188.933 332.928 193.333 331.401 C 198.683 329.544,198.844 329.541,203.705 331.179 M131.574 337.280 C 139.169 344.628,150.669 349.051,173.333 353.340 C 177.953 354.215,182.633 355.136,183.733 355.387 L 185.733 355.843 178.133 356.439 C 151.075 358.559,145.202 357.202,125.867 344.365 C 123.447 342.759,120.417 340.849,119.135 340.122 C 117.853 339.395,116.803 338.737,116.802 338.659 C 116.795 338.096,126.533 335.049,128.641 334.956 C 128.936 334.943,130.161 335.913,131.574 337.280 M203.067 342.383 C 204.387 342.664,206.268 343.172,207.248 343.513 L 209.030 344.133 207.813 346.355 C 206.754 348.292,206.524 348.554,206.032 348.400 C 204.934 348.054,198.229 347.951,195.333 348.235 L 192.400 348.522 191.128 347.128 C 190.429 346.361,189.622 345.419,189.334 345.034 L 188.812 344.334 190.499 343.503 C 193.925 341.817,198.485 341.410,203.067 342.383 M262.933 345.178 C 264.033 345.386,266.193 345.639,267.733 345.740 C 269.916 345.883,278.411 347.354,279.867 347.841 C 280.013 347.890,279.773 348.084,279.333 348.272 C 276.184 349.616,273.488 351.093,272.047 352.262 L 270.360 353.630 268.133 353.082 C 266.908 352.780,265.796 352.533,265.663 352.533 C 265.529 352.533,264.771 353.521,263.977 354.728 C 260.746 359.640,258.458 361.532,256.474 360.935 C 252.824 359.836,244.336 359.390,238.008 359.964 C 236.303 360.119,235.272 360.038,232.808 359.554 C 229.514 358.907,220.822 357.747,217.007 357.445 C 212.787 357.111,215.538 356.599,224.800 355.994 C 232.903 355.465,234.154 355.142,242.189 351.506 C 244.725 350.359,247.371 349.204,248.069 348.940 L 249.337 348.459 250.798 349.841 C 253.203 352.116,254.521 352.552,256.780 351.823 C 259.063 351.085,259.972 349.682,260.421 346.200 C 260.521 345.430,260.677 344.800,260.768 344.800 C 260.859 344.800,261.833 344.970,262.933 345.178 M205.712 351.239 C 207.044 352.141,208.576 353.225,209.118 353.649 L 210.102 354.420 209.435 356.210 C 206.738 363.442,206.491 363.645,200.170 363.793 L 195.139 363.911 194.345 362.822 C 192.870 360.800,190.647 355.429,190.677 353.961 C 190.683 353.662,191.581 352.779,192.951 351.726 L 195.215 349.985 197.008 350.228 C 198.358 350.411,199.260 350.372,200.667 350.071 C 201.693 349.851,202.704 349.655,202.912 349.636 C 203.120 349.616,204.380 350.338,205.712 351.239 M220.800 359.855 C 225.439 360.245,230.821 360.938,231.636 361.251 C 231.836 361.327,232.000 361.694,232.000 362.066 L 232.000 362.741 225.533 362.590 C 217.943 362.414,213.416 361.741,209.722 360.242 L 208.933 359.922 210.000 359.563 C 211.203 359.159,213.124 359.211,220.800 359.855 M191.196 361.763 C 191.207 364.745,188.262 366.866,182.906 367.734 C 177.216 368.656,175.535 369.022,173.787 369.722 C 172.854 370.095,171.944 370.400,171.763 370.400 C 170.927 370.400,164.800 363.299,164.800 362.329 C 164.800 362.257,168.610 362.135,173.267 362.060 C 181.871 361.920,184.734 361.652,188.941 360.594 C 191.048 360.064,191.190 360.138,191.196 361.763 M209.867 362.782 C 212.974 363.377,218.797 363.955,224.933 364.279 C 228.013 364.442,231.493 364.655,232.667 364.754 L 234.800 364.933 232.677 367.155 C 231.510 368.377,229.795 369.981,228.867 370.720 L 227.179 372.063 225.523 371.254 C 223.333 370.185,222.504 369.988,217.467 369.348 C 212.199 368.679,211.419 368.463,210.163 367.329 C 209.279 366.530,207.467 363.400,207.467 362.672 C 207.467 362.326,207.482 362.327,209.867 362.782 M150.000 368.561 C 153.704 369.012,161.737 368.962,164.393 368.471 L 166.520 368.078 168.829 369.648 C 170.098 370.512,172.491 371.923,174.145 372.783 L 177.153 374.347 175.734 375.067 C 173.315 376.292,169.623 377.094,165.632 377.262 C 162.555 377.391,152.221 376.957,151.274 376.659 C 151.052 376.588,151.257 375.908,151.924 374.502 L 152.900 372.447 152.023 371.715 C 151.541 371.313,150.136 370.416,148.900 369.722 C 146.705 368.490,145.822 367.793,146.833 368.090 C 147.108 368.171,148.533 368.383,150.000 368.561 M247.862 369.983 C 246.843 371.319,246.984 373.424,248.229 375.446 C 249.314 377.211,249.469 377.127,245.726 376.799 C 243.510 376.605,240.822 376.610,236.686 376.817 C 228.150 377.242,218.882 376.305,221.755 375.307 C 223.446 374.719,228.164 372.563,229.867 371.601 C 231.750 370.535,232.029 370.458,234.667 370.277 C 236.207 370.171,239.927 369.816,242.933 369.490 C 249.228 368.805,248.793 368.762,247.862 369.983 " stroke="none" fill="#2d241c" fill-rule="evenodd"></path><path id="path4" d="M200.933 28.533 C 201.506 29.120,202.035 29.600,202.108 29.600 C 202.182 29.600,201.773 29.120,201.200 28.533 C 200.627 27.947,200.098 27.467,200.025 27.467 C 199.952 27.467,200.360 27.947,200.933 28.533 M197.538 83.127 C 198.017 83.186,198.737 83.185,199.138 83.124 C 199.539 83.063,199.147 83.014,198.267 83.016 C 197.387 83.017,197.059 83.067,197.538 83.127 M201.000 83.126 C 201.477 83.185,202.257 83.185,202.733 83.126 C 203.210 83.067,202.820 83.019,201.867 83.019 C 200.913 83.019,200.523 83.067,201.000 83.126 M290.133 100.933 C 290.930 101.740,291.642 102.400,291.715 102.400 C 291.788 102.400,291.197 101.740,290.400 100.933 C 289.603 100.127,288.892 99.467,288.818 99.467 C 288.745 99.467,289.337 100.127,290.133 100.933 M247.333 103.467 C 247.906 104.053,248.435 104.533,248.508 104.533 C 248.582 104.533,248.173 104.053,247.600 103.467 C 247.027 102.880,246.498 102.400,246.425 102.400 C 246.352 102.400,246.760 102.880,247.333 103.467 M251.200 107.333 C 251.698 107.847,252.165 108.267,252.238 108.267 C 252.311 108.267,251.964 107.847,251.467 107.333 C 250.969 106.820,250.502 106.400,250.429 106.400 C 250.355 106.400,250.702 106.820,251.200 107.333 M128.267 120.933 C 128.764 121.447,129.231 121.867,129.305 121.867 C 129.378 121.867,129.031 121.447,128.533 120.933 C 128.036 120.420,127.569 120.000,127.495 120.000 C 127.422 120.000,127.769 120.420,128.267 120.933 M287.031 123.600 C 287.031 125.067,287.076 125.633,287.130 124.858 C 287.184 124.083,287.184 122.883,287.129 122.191 C 287.074 121.499,287.030 122.133,287.031 123.600 M104.791 123.933 L 103.333 125.467 104.867 124.009 C 106.291 122.655,106.522 122.400,106.324 122.400 C 106.283 122.400,105.593 123.090,104.791 123.933 M306.734 149.467 C 306.737 150.053,306.791 150.262,306.855 149.930 C 306.919 149.599,306.917 149.119,306.850 148.864 C 306.783 148.609,306.731 148.880,306.734 149.467 M306.462 154.133 C 306.462 154.647,306.517 154.857,306.584 154.600 C 306.651 154.343,306.651 153.923,306.584 153.667 C 306.517 153.410,306.462 153.620,306.462 154.133 M92.601 155.067 C 92.604 155.653,92.658 155.862,92.722 155.530 C 92.786 155.199,92.783 154.719,92.717 154.464 C 92.650 154.209,92.598 154.480,92.601 155.067 M94.467 155.867 C 94.470 156.453,94.525 156.662,94.589 156.330 C 94.652 155.999,94.650 155.519,94.583 155.264 C 94.516 155.009,94.464 155.280,94.467 155.867 M315.539 167.733 C 315.539 168.393,315.591 168.663,315.655 168.333 C 315.718 168.003,315.718 167.463,315.655 167.133 C 315.591 166.803,315.539 167.073,315.539 167.733 M318.250 175.267 L 317.467 176.133 318.333 175.350 C 319.141 174.620,319.323 174.400,319.117 174.400 C 319.071 174.400,318.681 174.790,318.250 175.267 M80.371 183.733 C 80.371 185.713,80.413 186.523,80.464 185.533 C 80.516 184.543,80.516 182.923,80.464 181.933 C 80.413 180.943,80.371 181.753,80.371 183.733 M300.076 183.333 C 300.078 184.067,300.130 184.335,300.191 183.930 C 300.253 183.524,300.251 182.924,300.188 182.596 C 300.124 182.268,300.074 182.600,300.076 183.333 M82.223 184.800 C 82.223 185.900,82.270 186.350,82.328 185.800 C 82.385 185.250,82.385 184.350,82.328 183.800 C 82.270 183.250,82.223 183.700,82.223 184.800 M328.387 195.267 L 327.333 196.400 328.467 195.346 C 329.521 194.366,329.723 194.133,329.521 194.133 C 329.477 194.133,328.967 194.643,328.387 195.267 M91.781 208.366 C 91.737 209.556,91.694 209.636,91.267 209.314 C 90.824 208.981,90.824 208.988,91.260 209.465 C 91.889 210.152,92.049 209.887,91.931 208.362 L 91.829 207.067 91.781 208.366 M305.662 208.000 C 305.662 208.513,305.717 208.723,305.784 208.467 C 305.851 208.210,305.851 207.790,305.784 207.533 C 305.717 207.277,305.662 207.487,305.662 208.000 M305.667 215.067 C 305.670 215.653,305.725 215.862,305.789 215.530 C 305.852 215.199,305.850 214.719,305.783 214.464 C 305.716 214.209,305.664 214.480,305.667 215.067 M109.156 238.933 C 109.156 240.033,109.203 240.483,109.261 239.933 C 109.318 239.383,109.318 238.483,109.261 237.933 C 109.203 237.383,109.156 237.833,109.156 238.933 M102.467 242.000 C 102.470 242.587,102.525 242.795,102.589 242.464 C 102.652 242.132,102.650 241.652,102.583 241.397 C 102.516 241.142,102.464 241.413,102.467 242.000 M100.347 245.067 C 100.347 245.873,100.397 246.203,100.458 245.800 C 100.519 245.397,100.519 244.737,100.458 244.333 C 100.397 243.930,100.347 244.260,100.347 245.067 M102.210 247.867 C 102.212 248.600,102.263 248.868,102.325 248.463 C 102.386 248.058,102.384 247.458,102.321 247.130 C 102.258 246.802,102.208 247.133,102.210 247.867 M100.099 255.733 C 100.099 257.273,100.143 257.903,100.197 257.133 C 100.250 256.363,100.250 255.103,100.197 254.333 C 100.143 253.563,100.099 254.193,100.099 255.733 M102.195 259.467 C 102.195 259.980,102.250 260.190,102.317 259.933 C 102.384 259.677,102.384 259.257,102.317 259.000 C 102.250 258.743,102.195 258.953,102.195 259.467 M297.410 261.200 C 297.412 261.933,297.463 262.202,297.525 261.796 C 297.586 261.391,297.584 260.791,297.521 260.463 C 297.458 260.135,297.408 260.467,297.410 261.200 M304.347 272.533 C 304.347 273.340,304.397 273.670,304.458 273.267 C 304.519 272.863,304.519 272.203,304.458 271.800 C 304.397 271.397,304.347 271.727,304.347 272.533 M289.983 274.467 L 289.200 275.333 290.067 274.550 C 290.875 273.820,291.056 273.600,290.850 273.600 C 290.804 273.600,290.414 273.990,289.983 274.467 M273.410 283.867 C 273.412 284.600,273.463 284.868,273.525 284.463 C 273.586 284.058,273.584 283.458,273.521 283.130 C 273.458 282.802,273.408 283.133,273.410 283.867 M307.267 291.650 C 307.523 291.718,307.943 291.718,308.200 291.650 C 308.457 291.583,308.247 291.529,307.733 291.529 C 307.220 291.529,307.010 291.583,307.267 291.650 M276.953 295.175 L 276.172 296.133 277.072 295.275 C 277.568 294.803,277.919 294.372,277.853 294.317 C 277.787 294.261,277.382 294.648,276.953 295.175 M302.210 295.333 C 302.212 296.067,302.263 296.335,302.325 295.930 C 302.386 295.524,302.384 294.924,302.321 294.596 C 302.258 294.268,302.208 294.600,302.210 295.333 M292.067 295.650 C 292.323 295.718,292.743 295.718,293.000 295.650 C 293.257 295.583,293.047 295.529,292.533 295.529 C 292.020 295.529,291.810 295.583,292.067 295.650 M291.800 297.784 C 292.057 297.851,292.477 297.851,292.733 297.784 C 292.990 297.717,292.780 297.662,292.267 297.662 C 291.753 297.662,291.543 297.717,291.800 297.784 M285.111 301.992 C 285.074 302.873,284.833 303.296,283.670 304.525 L 282.273 306.000 283.822 304.512 C 285.272 303.119,285.364 302.956,285.264 301.978 L 285.156 300.933 285.111 301.992 M285.324 305.800 L 283.867 307.333 285.400 305.876 C 286.243 305.074,286.933 304.384,286.933 304.342 C 286.933 304.145,286.678 304.375,285.324 305.800 M130.729 308.800 C 130.729 309.313,130.783 309.523,130.850 309.267 C 130.918 309.010,130.918 308.590,130.850 308.333 C 130.783 308.077,130.729 308.287,130.729 308.800 M294.200 308.728 C 294.750 308.785,295.650 308.785,296.200 308.728 C 296.750 308.670,296.300 308.623,295.200 308.623 C 294.100 308.623,293.650 308.670,294.200 308.728 M117.333 310.533 C 117.831 311.047,118.298 311.467,118.371 311.467 C 118.445 311.467,118.098 311.047,117.600 310.533 C 117.102 310.020,116.635 309.600,116.562 309.600 C 116.489 309.600,116.836 310.020,117.333 310.533 M121.046 313.933 C 121.732 314.711,122.133 314.867,122.133 314.356 C 122.133 314.184,122.052 314.126,121.953 314.225 C 121.854 314.324,121.464 314.134,121.086 313.802 L 120.400 313.200 121.046 313.933 M119.467 315.017 C 119.467 315.063,119.857 315.453,120.333 315.883 L 121.200 316.667 120.417 315.800 C 119.687 314.992,119.467 314.811,119.467 315.017 M263.321 319.267 L 262.267 320.400 263.400 319.346 C 264.454 318.366,264.656 318.133,264.454 318.133 C 264.411 318.133,263.901 318.643,263.321 319.267 M266.124 321.533 L 264.667 323.067 266.200 321.609 C 267.625 320.255,267.855 320.000,267.658 320.000 C 267.616 320.000,266.926 320.690,266.124 321.533 M145.589 322.733 C 146.694 323.911,146.933 324.122,146.933 323.922 C 146.933 323.879,146.363 323.309,145.667 322.656 L 144.400 321.467 145.589 322.733 M249.536 328.455 C 249.868 328.519,250.348 328.517,250.603 328.450 C 250.858 328.383,250.587 328.331,250.000 328.334 C 249.413 328.337,249.205 328.391,249.536 328.455 M212.867 332.984 C 213.123 333.051,213.543 333.051,213.800 332.984 C 214.057 332.917,213.847 332.862,213.333 332.862 C 212.820 332.862,212.610 332.917,212.867 332.984 M182.076 333.264 C 182.851 333.318,184.051 333.317,184.742 333.262 C 185.434 333.208,184.800 333.163,183.333 333.164 C 181.867 333.165,181.301 333.210,182.076 333.264 M225.395 335.733 C 225.395 336.247,225.450 336.457,225.517 336.200 C 225.584 335.943,225.584 335.523,225.517 335.267 C 225.450 335.010,225.395 335.220,225.395 335.733 M131.189 337.133 C 132.294 338.311,132.533 338.522,132.533 338.322 C 132.533 338.279,131.963 337.709,131.267 337.056 L 130.000 335.867 131.189 337.133 M243.000 338.050 C 243.257 338.118,243.677 338.118,243.933 338.050 C 244.190 337.983,243.980 337.929,243.467 337.929 C 242.953 337.929,242.743 337.983,243.000 338.050 M174.178 343.384 C 174.154 345.026,174.223 346.425,174.333 346.493 C 174.443 346.562,174.501 345.639,174.462 344.442 C 174.338 340.704,174.225 340.281,174.178 343.384 M185.733 344.533 C 186.306 345.120,186.835 345.600,186.908 345.600 C 186.982 345.600,186.573 345.120,186.000 344.533 C 185.427 343.947,184.898 343.467,184.825 343.467 C 184.752 343.467,185.160 343.947,185.733 344.533 M189.067 348.083 C 189.067 348.129,189.457 348.519,189.933 348.950 L 190.800 349.733 190.017 348.867 C 189.287 348.059,189.067 347.877,189.067 348.083 M221.133 354.324 C 221.537 354.385,222.197 354.385,222.600 354.324 C 223.003 354.263,222.673 354.213,221.867 354.213 C 221.060 354.213,220.730 354.263,221.133 354.324 M158.070 357.255 C 158.401 357.319,158.881 357.317,159.136 357.250 C 159.391 357.183,159.120 357.131,158.533 357.134 C 157.947 357.137,157.738 357.191,158.070 357.255 M165.267 357.255 C 165.597 357.318,166.137 357.318,166.467 357.255 C 166.797 357.191,166.527 357.139,165.867 357.139 C 165.207 357.139,164.937 357.191,165.267 357.255 M243.667 359.664 C 244.583 359.716,246.083 359.716,247.000 359.664 C 247.917 359.612,247.167 359.569,245.333 359.569 C 243.500 359.569,242.750 359.612,243.667 359.664 M225.133 364.450 C 225.390 364.518,225.810 364.518,226.067 364.450 C 226.323 364.383,226.113 364.329,225.600 364.329 C 225.087 364.329,224.877 364.383,225.133 364.450 M230.603 364.722 C 230.935 364.786,231.415 364.783,231.670 364.717 C 231.925 364.650,231.653 364.598,231.067 364.601 C 230.480 364.604,230.271 364.658,230.603 364.722 M153.933 368.984 C 154.190 369.051,154.610 369.051,154.867 368.984 C 155.123 368.917,154.913 368.862,154.400 368.862 C 153.887 368.862,153.677 368.917,153.933 368.984 M246.995 372.267 C 246.995 372.780,247.050 372.990,247.117 372.733 C 247.184 372.477,247.184 372.057,247.117 371.800 C 247.050 371.543,246.995 371.753,246.995 372.267 M151.161 376.601 C 151.295 376.735,151.689 376.801,152.036 376.746 C 152.570 376.662,152.532 376.624,151.792 376.502 C 151.262 376.414,151.013 376.453,151.161 376.601 M238.333 376.722 C 238.663 376.785,239.203 376.785,239.533 376.722 C 239.863 376.658,239.593 376.606,238.933 376.606 C 238.273 376.606,238.003 376.658,238.333 376.722 M244.333 376.717 C 244.590 376.784,245.010 376.784,245.267 376.717 C 245.523 376.650,245.313 376.595,244.800 376.595 C 244.287 376.595,244.077 376.650,244.333 376.717 M229.676 376.997 C 230.525 377.050,231.845 377.050,232.610 376.996 C 233.374 376.943,232.680 376.899,231.067 376.900 C 229.453 376.900,228.828 376.944,229.676 376.997 " stroke="none" fill="#77642f" fill-rule="evenodd"></path></g></svg>