<?xml version="1.0" encoding="UTF-8"?>
<svg xmlns="http://www.w3.org/2000/svg" xmlns:xlink="http://www.w3.org/1999/xlink" width="193pt" height="193pt" viewBox="0 0 193 193" version="1.1">
<g id="surface1">
<path style=" stroke:none;fill-rule:evenodd;fill:rgb(100%,100%,100%);fill-opacity:1;" d="M 0 0.242188 L 192.757813 0.242188 L 192.757813 193 L 0 193 L 0 0.242188 "/>
<path style="fill:none;stroke-width:13.1881;stroke-linecap:butt;stroke-linejoin:miter;stroke:rgb(25.898743%,33.699036%,62.69989%);stroke-opacity:1;stroke-miterlimit:2.6131;" d="M 358.720193 238.730873 L 1599.095252 238.730873 L 1599.095252 84.879489 L 358.720193 84.879489 Z M 358.720193 238.730873 " transform="matrix(0.0998123,0,0,-0.100188,0,193)"/>
<path style=" stroke:none;fill-rule:evenodd;fill:rgb(25.898743%,33.699036%,62.69989%);fill-opacity:1;" d="M 117.328125 12.933594 L 100.453125 168.511719 L 107.28125 10.554688 C 110.691406 11.222656 114.011719 11.984375 117.328125 12.933594 "/>
<path style=" stroke:none;fill-rule:evenodd;fill:rgb(25.898743%,33.699036%,62.69989%);fill-opacity:1;" d="M 124.816406 15.3125 C 128.230469 16.550781 131.453125 17.882813 134.582031 19.40625 L 101.402344 168.320313 L 124.816406 15.3125 "/>
<path style=" stroke:none;fill-rule:evenodd;fill:rgb(25.898743%,33.699036%,62.69989%);fill-opacity:1;" d="M 140.648438 22.734375 L 102.066406 168.035156 L 149.085938 28.351563 C 146.335938 26.351563 143.585938 24.449219 140.648438 22.734375 "/>
<path style=" stroke:none;fill-rule:evenodd;fill:rgb(25.898743%,33.699036%,62.69989%);fill-opacity:1;" d="M 154.679688 33.203125 L 102.917969 167.652344 L 161.789063 40.910156 C 159.605469 38.148438 157.238281 35.582031 154.679688 33.203125 "/>
<path style=" stroke:none;fill-rule:evenodd;fill:rgb(25.898743%,33.699036%,62.69989%);fill-opacity:1;" d="M 167.285156 48.710938 L 103.394531 168.035156 L 171.742188 56.703125 C 170.320313 53.945313 168.898438 51.28125 167.285156 48.710938 "/>
<path style=" stroke:none;fill-rule:evenodd;fill:rgb(25.898743%,33.699036%,62.69989%);fill-opacity:1;" d="M 174.773438 63.746094 L 104.625 168.226563 L 177.808594 72.691406 C 176.859375 69.550781 175.816406 66.601563 174.773438 63.746094 "/>
<path style=" stroke:none;fill-rule:evenodd;fill:rgb(25.898743%,33.699036%,62.69989%);fill-opacity:1;" d="M 181.125 90.960938 L 105.476563 168.511719 L 179.703125 81.824219 C 180.179688 84.015625 180.558594 86.203125 180.9375 88.484375 C 181.03125 89.246094 181.03125 90.105469 181.125 90.960938 "/>
<path style=" stroke:none;fill-rule:evenodd;fill:rgb(25.898743%,33.699036%,62.69989%);fill-opacity:1;" d="M 180.652344 110.371094 L 107.847656 168.128906 L 181.316406 99.90625 C 181.222656 103.519531 181.03125 107.042969 180.652344 110.371094 "/>
<path style=" stroke:none;fill-rule:evenodd;fill:rgb(25.898743%,33.699036%,62.69989%);fill-opacity:1;" d="M 177.144531 127.878906 L 110.027344 168.128906 L 179.515625 118.460938 C 178.851563 121.789063 178.09375 124.929688 177.144531 127.878906 "/>
<path style=" stroke:none;fill-rule:evenodd;fill:rgb(25.898743%,33.699036%,62.69989%);fill-opacity:1;" d="M 173.636719 136.253906 L 173.636719 137.015625 C 172.40625 139.679688 171.078125 142.246094 169.5625 144.722656 L 114.863281 168.226563 L 173.636719 136.253906 "/>
<path style=" stroke:none;fill-rule:evenodd;fill:rgb(25.898743%,33.699036%,62.69989%);fill-opacity:1;" d="M 159.605469 159.566406 L 119.035156 168.414063 L 166.527344 149.289063 C 164.535156 151.953125 161.976563 157.1875 159.605469 159.566406 "/>
<path style=" stroke:none;fill-rule:evenodd;fill:rgb(25.898743%,33.699036%,62.69989%);fill-opacity:1;" d="M 89.742188 9.507813 L 99.789063 168.128906 L 99.316406 9.128906 C 98.367188 9.035156 97.421875 8.84375 96.472656 8.746094 C 94.199219 8.9375 91.921875 9.222656 89.742188 9.507813 "/>
<path style=" stroke:none;fill-rule:evenodd;fill:rgb(25.898743%,33.699036%,62.69989%);fill-opacity:1;" d="M 82.824219 10.652344 L 98.558594 168.414063 L 73.058594 12.933594 C 76.1875 12.078125 79.503906 11.222656 82.824219 10.652344 "/>
<path style=" stroke:none;fill-rule:evenodd;fill:rgb(25.898743%,33.699036%,62.69989%);fill-opacity:1;" d="M 49.359375 23.78125 L 96 168.320313 L 41.300781 29.777344 C 43.859375 27.589844 46.515625 25.589844 49.359375 23.78125 "/>
<path style=" stroke:none;fill-rule:evenodd;fill:rgb(25.898743%,33.699036%,62.69989%);fill-opacity:1;" d="M 55.617188 19.976563 C 58.742188 18.359375 62.0625 16.835938 65.472656 15.503906 L 97.515625 168.035156 L 55.617188 19.976563 "/>
<path style=" stroke:none;fill-rule:evenodd;fill:rgb(25.898743%,33.699036%,62.69989%);fill-opacity:1;" d="M 28.691406 43.765625 C 30.875 40.71875 33.148438 37.960938 35.613281 35.296875 L 93.722656 168.796875 L 28.691406 43.765625 "/>
<path style=" stroke:none;fill-rule:evenodd;fill:rgb(25.898743%,33.699036%,62.69989%);fill-opacity:1;" d="M 24.144531 50.902344 L 91.164063 168.320313 L 19.402344 60.511719 C 20.824219 57.179688 22.4375 53.945313 24.144531 50.902344 "/>
<path style=" stroke:none;fill-rule:evenodd;fill:rgb(25.898743%,33.699036%,62.69989%);fill-opacity:1;" d="M 16.75 67.363281 L 87.847656 168.890625 L 14 76.210938 C 14.1875 75.640625 14.285156 75.164063 14.378906 74.59375 C 15.136719 72.121094 15.894531 69.644531 16.75 67.363281 "/>
<path style=" stroke:none;fill-rule:evenodd;fill:rgb(25.898743%,33.699036%,62.69989%);fill-opacity:1;" d="M 11.535156 94.863281 C 11.628906 91.910156 11.914063 88.867188 12.292969 85.917969 L 84.621094 168.511719 L 11.535156 94.863281 "/>
<path style=" stroke:none;fill-rule:evenodd;fill:rgb(25.898743%,33.699036%,62.69989%);fill-opacity:1;" d="M 12.386719 112.65625 C 11.914063 109.609375 11.628906 106.375 11.441406 103.140625 L 79.695313 167.75 L 12.386719 112.65625 "/>
<path style=" stroke:none;fill-rule:evenodd;fill:rgb(25.898743%,33.699036%,62.69989%);fill-opacity:1;" d="M 75.429688 168.226563 L 14.570313 122.648438 C 15.230469 124.835938 15.894531 126.929688 16.75 129.023438 C 17.414063 129.78125 18.074219 130.449219 18.835938 131.113281 L 75.429688 168.226563 "/>
<path style=" stroke:none;fill-rule:evenodd;fill:rgb(25.898743%,33.699036%,62.69989%);fill-opacity:1;" d="M 21.488281 138.917969 L 72.488281 167.84375 L 26.796875 147.003906 C 24.804688 144.4375 23.101563 141.773438 21.488281 138.917969 "/>
<path style=" stroke:none;fill-rule:evenodd;fill:rgb(25.898743%,33.699036%,62.69989%);fill-opacity:1;" d="M 41.492188 162.136719 C 41.773438 162.324219 42.15625 162.421875 42.4375 162.515625 L 68.980469 168.890625 L 30.875 152.046875 C 34 155.570313 37.605469 158.996094 41.492188 162.136719 "/>
<path style=" stroke:none;fill-rule:evenodd;fill:rgb(100%,100%,100%);fill-opacity:1;" d="M 38.269531 46.617188 C 36.84375 52.328125 37.699219 56.515625 36.84375 61.464844 C 37.699219 67.457031 40.542969 71.929688 44.523438 74.6875 C 40.542969 85.25 40.257813 94.101563 48.03125 98.761719 C 50.96875 100.953125 52.582031 104.851563 52.867188 110.371094 C 54.953125 111.796875 56.941406 115.984375 56.089844 118.648438 C 61.871094 114.367188 67.84375 115.035156 69.644531 122.550781 C 76.945313 133.398438 85.761719 141.582031 100.074219 142.4375 C 103.296875 142.53125 105.003906 139.394531 106.519531 138.824219 C 113.253906 136.539063 116.097656 139.011719 118.085938 143.199219 C 120.078125 147.578125 124.722656 149.195313 130.601563 149.480469 C 135.246094 149.289063 139.796875 149.957031 144.34375 150.144531 C 146.714844 145.960938 150.128906 144.628906 153.257813 142.53125 C 155.4375 138.347656 154.964844 134.828125 151.929688 132.066406 C 146.808594 131.972656 143.964844 127.214844 141.121094 123.597656 C 139.984375 114.84375 146.050781 115.222656 146.714844 109.992188 C 144.820313 105.898438 141.597656 107.136719 139.035156 105.804688 L 135.148438 94.957031 C 133.726563 90.578125 134.011719 86.296875 135.90625 82.015625 C 138.847656 73.261719 137.234375 67.648438 132.402344 64.128906 C 122.636719 58.417969 113.726563 52.234375 105.574219 54.039063 C 101.308594 56.039063 98.746094 58.324219 97.894531 60.988281 C 97.230469 64.410156 95.238281 65.746094 91.921875 65.175781 C 86.613281 65.648438 80.261719 68.980469 75.902344 65.933594 C 73.910156 63.746094 71.921875 62.796875 70.023438 62.414063 C 64.242188 63.84375 63.105469 60.605469 62.628906 56.800781 C 59.503906 53.46875 58.269531 51.472656 58.269531 45.382813 C 57.226563 45.859375 55.898438 44.621094 55.332031 45.476563 C 51.632813 50.902344 44.238281 52.613281 40.449219 46.335938 C 39.972656 45.476563 38.363281 47.378906 38.269531 46.617188 "/>
<path style="fill:none;stroke-width:13.1881;stroke-linecap:round;stroke-linejoin:round;stroke:rgb(25.898743%,33.699036%,62.69989%);stroke-opacity:1;stroke-miterlimit:2.6131;" d="M 383.375846 1461.081292 C 369.169494 1404.079081 377.701133 1362.282659 369.169494 1312.922331 C 377.701133 1253.073909 406.19211 1208.431274 446.071651 1180.904899 C 406.19211 1075.478101 403.335185 987.128573 481.215742 940.614457 C 510.645983 918.741516 526.809133 879.830294 529.666058 824.738554 C 550.56466 810.507496 570.484863 768.711073 561.953224 742.120439 C 619.874442 784.852602 679.713322 778.185449 697.754999 703.170227 C 770.900104 594.897218 859.229962 513.214844 1002.624113 504.676209 C 1034.911278 503.740468 1052.013692 535.048796 1067.198444 540.741219 C 1134.668836 563.549901 1163.120678 538.869737 1183.080016 497.073315 C 1203.039355 453.366421 1249.572009 437.224892 1308.43249 434.378681 C 1355.004281 436.289151 1400.597672 429.621998 1446.151927 427.750517 C 1469.907454 469.546939 1504.112281 482.842257 1535.421048 503.740468 C 1557.298048 545.497901 1552.523462 580.66616 1522.153958 608.192536 C 1470.846717 609.128276 1442.355739 656.617122 1413.864762 692.721122 C 1402.476198 780.09592 1463.254341 776.313967 1469.907454 828.520506 C 1450.926514 869.381188 1418.639349 857.021612 1392.96616 870.316929 L 1354.025882 978.589938 C 1339.780393 1022.296832 1342.637318 1065.028995 1361.657393 1107.761159 C 1391.087634 1195.135957 1374.924483 1251.163438 1326.513303 1286.331696 C 1228.673407 1343.294918 1139.404287 1405.014822 1057.727542 1387.001812 C 1014.991076 1367.039341 989.317887 1344.230659 980.786248 1317.679013 C 974.133135 1283.485485 954.173797 1270.151178 920.947368 1275.882591 C 867.761601 1271.125908 804.126533 1237.86812 760.450804 1268.279697 C 740.491465 1290.113649 720.571262 1299.627014 701.551187 1303.408966 C 643.629968 1289.177908 632.241405 1321.460966 627.466818 1359.436447 C 596.118915 1392.694235 583.791088 1412.617716 583.791088 1473.401879 C 573.341788 1468.684186 560.035562 1481.004774 554.360848 1472.466139 C 517.299095 1418.349129 443.214727 1401.23287 405.252847 1463.927504 C 400.47826 1472.466139 384.354245 1453.478398 383.375846 1461.081292 Z M 383.375846 1461.081292 " transform="matrix(0.0998123,0,0,-0.100188,0,193)"/>
<path style=" stroke:none;fill-rule:evenodd;fill:rgb(100%,100%,100%);fill-opacity:1;" d="M 64.621094 61.367188 C 62.535156 58.894531 62.628906 56.039063 62.535156 53.28125 L 65.191406 50.519531 C 65.851563 48.523438 65.285156 45.859375 64.050781 44.523438 C 64.527344 38.148438 78.175781 42.527344 86.140625 39.769531 C 87.941406 43.191406 90.40625 45.476563 94.578125 45.097656 C 93.15625 50.234375 94.199219 55.753906 97.230469 60.414063 C 98.367188 64.886719 95.050781 65.933594 89.742188 65.363281 C 83.675781 67.265625 78.554688 68.027344 75.238281 65.363281 L 70.117188 62.320313 C 67.84375 63.078125 66.136719 62.511719 64.621094 61.367188 "/>
<path style="fill:none;stroke-width:13.1881;stroke-linecap:butt;stroke-linejoin:round;stroke:rgb(25.898743%,33.699036%,62.69989%);stroke-opacity:1;stroke-miterlimit:2.6131;" d="M 647.426156 1313.858072 C 626.527555 1338.538236 627.466818 1367.039341 626.527555 1394.604706 L 653.140006 1422.131081 C 659.753983 1442.054562 654.079269 1468.684186 641.712306 1481.979504 C 646.486893 1545.609878 783.227931 1501.902985 863.02615 1529.46835 C 881.067827 1495.274821 905.762616 1472.466139 947.55982 1476.248091 C 933.314331 1424.977293 943.763632 1369.885553 974.133135 1323.332447 C 985.521699 1278.728802 952.295271 1268.279697 899.109504 1273.97212 C 838.33136 1254.984379 787.024119 1247.381485 753.797691 1273.97212 L 702.49045 1304.344707 C 679.713322 1296.741813 662.610908 1302.473225 647.426156 1313.858072 Z M 647.426156 1313.858072 " transform="matrix(0.0998123,0,0,-0.100188,0,193)"/>
<path style=" stroke:none;fill-rule:evenodd;fill:rgb(100%,100%,100%);fill-opacity:1;" d="M 53.339844 123.882813 L 56.753906 118.933594 C 63.292969 113.511719 67.371094 116.9375 70.78125 124.074219 C 77.230469 135.398438 87.371094 141.488281 100.835938 142.628906 C 101.78125 142.4375 104.71875 140.34375 106.238281 139.394531 C 111.734375 136.347656 114.863281 137.585938 117.992188 143.199219 C 120.644531 147.386719 125.007813 149.480469 131.832031 149.382813 L 143.871094 150.050781 C 145.957031 152.429688 147.09375 155.09375 146.335938 158.425781 C 140.839844 158.996094 135.339844 159.757813 131.546875 158.425781 C 128.421875 155.855469 124.910156 156.332031 121.214844 158.140625 C 118.464844 159.660156 114.199219 155.472656 114.296875 150.71875 C 114.296875 141.582031 111.828125 140.15625 106.710938 146.339844 C 103.394531 152.238281 99.128906 156.710938 92.679688 158.140625 C 87.183594 159.089844 82.0625 159.660156 81.875 155 C 81.210938 150.050781 79.789063 148.527344 77.417969 150.242188 C 73.34375 151.667969 70.59375 151.097656 71.730469 145.101563 C 71.636719 139.394531 66.515625 136.347656 61.96875 133.019531 C 57.890625 131.6875 55.234375 127.59375 53.339844 123.882813 "/>
<path style="fill:none;stroke-width:13.1881;stroke-linecap:butt;stroke-linejoin:miter;stroke:rgb(25.898743%,33.699036%,62.69989%);stroke-opacity:1;stroke-miterlimit:2.6131;" d="M 534.401509 689.87491 L 568.606337 739.274227 C 634.119931 793.391237 674.977871 759.197708 709.143562 687.964439 C 773.757029 574.934748 875.353977 514.150584 1010.216489 502.765738 C 1019.726527 504.676209 1049.156767 525.57442 1064.341519 535.048796 C 1119.444948 565.460372 1150.792851 553.100796 1182.140753 497.073315 C 1208.714069 455.276892 1252.428934 434.378681 1320.799453 435.353411 L 1441.416476 428.686257 C 1462.315078 404.941834 1473.703642 378.3512 1466.111266 345.093412 C 1411.007837 339.400989 1355.943544 331.798095 1317.942528 345.093412 C 1286.594626 370.748306 1251.450535 365.991623 1214.427919 347.978613 C 1186.876204 332.772825 1144.139738 374.569247 1145.079001 422.058093 C 1145.079001 513.214844 1120.384211 527.445902 1069.116106 465.725998 C 1035.850541 406.852305 993.114075 362.209671 928.539744 347.978613 C 873.475451 338.465248 822.16821 332.772825 820.289684 379.286941 C 813.636571 428.686257 799.391082 443.892045 775.635555 426.775787 C 734.816751 412.544728 707.265036 418.237152 718.6536 478.085574 C 717.714337 535.048796 666.407096 565.460372 620.813705 598.679171 C 579.9949 611.974488 553.382449 652.83517 534.401509 689.87491 Z M 534.401509 689.87491 " transform="matrix(0.0998123,0,0,-0.100188,0,193)"/>
<path style=" stroke:none;fill-rule:evenodd;fill:rgb(25.898743%,33.699036%,62.69989%);fill-opacity:1;" d="M 67.179688 66.789063 L 60.734375 73.167969 L 67.179688 79.828125 C 68.792969 81.351563 69.171875 83.917969 68.222656 87.535156 C 65.757813 103.234375 66.613281 117.507813 81.398438 126.167969 C 91.828125 131.402344 101.308594 131.496094 109.648438 126.832031 L 105.289063 119.507813 C 102.539063 119.410156 100.929688 120.742188 99.789063 122.835938 C 97.515625 124.738281 94.578125 125.027344 91.070313 123.695313 C 87.65625 119.695313 86.804688 118.363281 82.347656 118.078125 C 77.988281 115.984375 76.28125 113.320313 76.847656 109.609375 C 77.609375 105.710938 76.46875 105.710938 73.628906 101.808594 C 73.34375 97.242188 72.585938 94.003906 75.144531 92.386719 C 77.132813 90.769531 78.839844 88.960938 78.273438 85.25 C 78.082031 79.730469 76.753906 76.402344 74.953125 74.117188 L 67.179688 66.789063 "/>
<path style=" stroke:none;fill-rule:evenodd;fill:rgb(25.898743%,33.699036%,62.69989%);fill-opacity:1;" d="M 125.671875 132.257813 L 132.117188 125.882813 L 125.671875 119.222656 C 124.058594 117.699219 123.679688 115.128906 124.628906 111.515625 C 127.09375 95.8125 126.238281 81.445313 111.449219 72.882813 C 101.023438 67.648438 92.019531 67.265625 83.675781 71.929688 L 88.699219 78.496094 C 91.449219 77.925781 92.207031 77.828125 93.34375 75.734375 C 95.621094 73.832031 98.273438 74.023438 101.78125 75.355469 C 105.195313 79.351563 106.046875 80.683594 110.503906 80.96875 C 114.863281 83.0625 116.570313 85.632813 116 89.4375 C 115.242188 93.339844 116.378906 93.339844 119.222656 97.242188 C 119.507813 101.808594 120.265625 104.949219 117.707031 106.660156 C 115.714844 108.277344 114.011719 110.085938 114.578125 113.796875 C 114.769531 119.316406 116.097656 122.648438 117.898438 124.929688 L 125.671875 132.257813 "/>
<path style=" stroke:none;fill-rule:evenodd;fill:rgb(25.898743%,33.699036%,62.69989%);fill-opacity:1;" d="M 81.589844 86.394531 C 81.210938 81.539063 83.203125 80.207031 87.371094 80.777344 C 90.214844 80.96875 91.828125 80.113281 94.292969 78.6875 C 96.945313 76.78125 99.507813 76.496094 101.496094 79.542969 C 103.296875 82.015625 105.574219 83.0625 108.320313 82.96875 C 112.019531 82.96875 113.820313 85.0625 113.535156 89.34375 C 113.347656 92.007813 113.820313 94.386719 115.621094 96.195313 C 118.085938 99.046875 118.9375 101.902344 115.90625 104.566406 C 114.011719 106.28125 113.441406 108.375 112.871094 111.324219 C 113.0625 115.222656 111.828125 117.984375 107.375 116.9375 C 104.339844 116.460938 101.6875 117.316406 99.601563 119.507813 C 96.660156 121.980469 93.914063 121.886719 91.542969 119.125 C 89.835938 116.652344 87.089844 115.222656 83.675781 114.652344 C 79.976563 114.652344 79.410156 112.371094 79.316406 109.707031 C 79.503906 105.328125 78.554688 103.519531 77.230469 102.09375 C 74.195313 99.621094 74.480469 96.574219 77.039063 94.480469 C 79.789063 92.863281 81.210938 89.246094 81.589844 86.394531 "/>
<path style=" stroke:none;fill-rule:evenodd;fill:rgb(100%,100%,100%);fill-opacity:1;" d="M 89.835938 104.09375 C 90.027344 108.847656 91.828125 112.464844 97.136719 112.941406 C 101.78125 112.464844 103.582031 107.992188 103.675781 103.996094 C 102.066406 105.898438 99.601563 107.328125 97.515625 107.421875 L 97.515625 104.949219 C 99.601563 102.664063 101.214844 101.140625 101.023438 97.90625 C 99.980469 99.144531 98.746094 99.714844 97.515625 99.429688 L 97.515625 96.289063 C 99.507813 94.765625 99.507813 93.054688 97.515625 92.769531 L 97.515625 89.628906 C 97.136719 88.011719 96.09375 88.105469 95.808594 89.628906 L 95.808594 92.671875 C 93.628906 93.433594 93.820313 94.578125 95.808594 96.289063 L 95.808594 99.335938 C 94.386719 99.808594 93.15625 99.238281 92.019531 98.097656 C 92.300781 101.714844 93.722656 103.710938 95.808594 104.949219 L 95.808594 107.613281 C 93.25 107.421875 91.542969 106.089844 89.835938 104.09375 "/>
<path style="fill:none;stroke-width:13.1881;stroke-linecap:round;stroke-linejoin:miter;stroke:rgb(25.898743%,33.699036%,62.69989%);stroke-opacity:1;stroke-miterlimit:2.6131;" d="M 436.561614 311.874613 L 362.516381 243.487556 " transform="matrix(0.0998123,0,0,-0.100188,0,193)"/>
<path style="fill:none;stroke-width:13.1881;stroke-linecap:round;stroke-linejoin:miter;stroke:rgb(25.898743%,33.699036%,62.69989%);stroke-opacity:1;stroke-miterlimit:2.6131;" d="M 1596.238327 238.730873 L 1507.908469 332.772825 " transform="matrix(0.0998123,0,0,-0.100188,0,193)"/>
<path style=" stroke:none;fill-rule:evenodd;fill:rgb(25.898743%,33.699036%,62.69989%);fill-opacity:1;" d="M 113.726563 175.550781 L 113.0625 176.21875 L 112.113281 175.742188 L 112.683594 175.074219 Z M 157.238281 178.121094 C 157.238281 178.5 156.859375 178.691406 156.101563 178.691406 L 153.539063 178.691406 C 153.160156 178.691406 152.78125 178.691406 152.402344 178.597656 C 152.308594 178.597656 152.214844 178.40625 152.117188 178.121094 C 152.023438 177.835938 152.023438 177.359375 152.023438 176.789063 L 151.738281 173.363281 L 152.496094 172.699219 L 152.59375 174.503906 L 152.6875 176.3125 C 152.6875 176.597656 152.6875 176.980469 152.6875 177.265625 C 152.6875 177.550781 152.78125 177.738281 152.78125 177.929688 L 154.582031 177.929688 C 155.53125 177.929688 156.003906 177.929688 156.003906 177.929688 L 156.382813 177.835938 C 156.289063 177.550781 156.101563 177.265625 155.910156 177.074219 L 156.382813 176.027344 C 156.667969 176.597656 156.859375 177.074219 157.046875 177.359375 C 157.144531 177.738281 157.238281 178.027344 157.238281 178.121094 Z M 156.003906 180.976563 L 155.339844 181.546875 L 154.394531 181.070313 L 155.058594 180.5 Z M 149.085938 174.03125 L 148.515625 174.695313 L 147.472656 174.21875 L 148.136719 173.554688 Z M 150.316406 178.121094 C 150.316406 178.3125 150.128906 178.5 149.84375 178.597656 C 149.652344 178.597656 149.464844 178.691406 149.179688 178.691406 L 146.242188 178.691406 C 145.671875 178.691406 145.292969 178.691406 145.199219 178.597656 C 144.914063 178.691406 143.777344 178.785156 142.070313 178.785156 L 138.183594 178.785156 C 138.183594 178.785156 138.183594 178.691406 138.089844 178.691406 C 137.898438 178.691406 137.804688 178.691406 137.710938 178.691406 C 137.519531 178.691406 137.425781 178.691406 137.328125 178.597656 C 137.046875 178.597656 136.855469 178.40625 136.761719 178.027344 C 136.664063 177.738281 136.664063 177.453125 136.664063 177.265625 C 136.664063 176.789063 136.761719 176.40625 137.046875 175.933594 L 137.046875 176.027344 C 136.949219 176.3125 136.949219 176.597656 136.949219 176.882813 C 136.949219 177.359375 137.140625 177.644531 137.425781 177.835938 C 137.519531 177.835938 137.710938 177.929688 137.898438 177.929688 C 138.089844 177.929688 138.371094 177.929688 138.65625 177.929688 L 140.554688 178.027344 L 144.441406 177.929688 L 143.398438 176.980469 C 142.828125 176.503906 142.355469 176.21875 141.878906 176.21875 C 141.691406 176.21875 141.5 176.027344 141.121094 175.742188 C 140.839844 175.457031 140.742188 175.171875 140.742188 175.074219 C 140.742188 174.980469 140.742188 174.886719 140.839844 174.789063 L 145.484375 172.980469 L 145.007813 173.933594 C 144.820313 174.03125 144.535156 174.125 143.964844 174.316406 C 143.398438 174.503906 142.640625 174.789063 141.691406 175.171875 L 145.199219 177.644531 L 145.578125 177.929688 L 148.988281 177.929688 L 149.464844 177.835938 C 149.371094 177.644531 149.179688 177.359375 148.988281 177.074219 L 149.464844 176.027344 C 150.03125 177.167969 150.316406 177.835938 150.316406 178.121094 Z M 134.390625 174.03125 L 133.726563 174.695313 L 132.78125 174.21875 L 133.441406 173.554688 Z M 132.875 174.03125 L 132.210938 174.695313 L 131.261719 174.21875 L 131.925781 173.648438 Z M 134.582031 178.121094 C 134.582031 178.5 134.203125 178.691406 133.441406 178.691406 L 123.867188 178.691406 C 123.488281 178.691406 123.203125 178.691406 122.824219 178.597656 C 122.730469 178.597656 122.636719 178.40625 122.542969 178.121094 C 122.445313 177.835938 122.351563 177.359375 122.351563 176.789063 L 122.164063 173.363281 L 122.824219 172.699219 L 123.015625 174.503906 L 123.015625 176.3125 C 123.015625 176.597656 123.109375 176.980469 123.109375 177.265625 C 123.109375 177.550781 123.203125 177.738281 123.203125 177.929688 L 128.421875 177.929688 C 128.324219 177.835938 128.230469 177.738281 128.136719 177.738281 C 128.039063 177.644531 127.945313 177.550781 127.851563 177.453125 C 127.378906 177.074219 126.996094 176.882813 126.808594 176.789063 C 126.523438 176.695313 126.050781 176.695313 125.574219 176.695313 C 125.386719 176.695313 125.289063 176.695313 125.007813 176.789063 C 124.816406 176.882813 124.628906 176.882813 124.53125 176.882813 L 125.007813 176.503906 C 125.101563 176.3125 125.386719 176.21875 125.765625 176.121094 C 126.050781 176.027344 126.335938 176.027344 126.523438 176.027344 L 126.714844 176.027344 C 126.996094 176.027344 127.378906 176.121094 127.851563 176.503906 L 129.082031 177.453125 C 129.367188 177.644531 129.652344 177.738281 129.9375 177.835938 C 130.222656 177.929688 130.503906 177.929688 130.789063 177.929688 L 131.925781 177.929688 C 132.78125 177.929688 133.253906 177.929688 133.347656 177.929688 L 133.632813 177.835938 C 133.539063 177.550781 133.347656 177.265625 133.160156 177.074219 L 133.726563 176.027344 C 134.011719 176.597656 134.203125 177.074219 134.296875 177.359375 C 134.484375 177.738281 134.582031 178.027344 134.582031 178.121094 Z M 127.378906 181.261719 L 126.714844 181.925781 L 125.765625 181.453125 L 126.429688 180.785156 Z M 120.742188 178.40625 C 120.742188 178.40625 120.742188 178.40625 120.742188 178.5 C 120.742188 178.5 120.742188 178.597656 120.644531 178.597656 C 120.644531 178.691406 120.644531 178.691406 120.644531 178.785156 C 120.644531 178.785156 120.550781 178.882813 120.457031 178.976563 C 120.078125 179.644531 119.699219 180.117188 119.320313 180.40625 C 118.84375 180.691406 118.179688 180.878906 117.328125 180.878906 C 117.136719 180.878906 116.664063 180.59375 116.097656 180.117188 L 116 179.929688 C 116.664063 180.023438 117.136719 180.117188 117.613281 180.117188 C 118.179688 180.117188 118.65625 180.023438 119.035156 179.738281 C 119.128906 179.644531 119.320313 179.546875 119.507813 179.359375 C 119.699219 179.167969 119.886719 178.976563 120.171875 178.691406 C 120.171875 178.597656 119.886719 178.121094 119.320313 177.359375 L 119.886719 176.695313 C 120.363281 177.359375 120.644531 177.929688 120.742188 178.40625 Z M 112.210938 175.550781 L 111.546875 176.21875 L 110.597656 175.742188 L 111.164063 175.074219 Z M 115.8125 177.929688 C 115.8125 178.3125 115.714844 178.5 115.527344 178.597656 C 115.148438 178.691406 114.578125 178.882813 113.632813 178.976563 C 113.253906 179.074219 112.871094 179.074219 112.492188 179.074219 C 112.210938 179.167969 111.925781 179.167969 111.640625 179.167969 L 110.691406 179.167969 L 110.40625 179.074219 C 110.121094 179.074219 109.933594 179.074219 109.742188 179.074219 C 109.460938 178.976563 109.269531 178.882813 109.082031 178.882813 C 108.796875 178.691406 108.511719 178.597656 108.511719 178.40625 L 108.417969 178.121094 C 108.320313 178.027344 108.320313 177.929688 108.320313 177.835938 C 108.320313 177.453125 108.417969 177.167969 108.605469 176.980469 L 108.796875 176.980469 L 108.796875 177.167969 L 108.703125 177.644531 C 108.703125 177.644531 108.703125 177.738281 108.796875 177.929688 C 108.890625 178.027344 109.460938 178.121094 110.3125 178.214844 C 110.976563 178.3125 111.546875 178.3125 112.019531 178.3125 C 113.253906 178.3125 114.296875 178.214844 115.242188 177.835938 L 115.054688 177.453125 C 114.957031 177.265625 114.863281 177.167969 114.769531 176.980469 L 115.242188 176.21875 L 115.621094 177.074219 C 115.8125 177.359375 115.8125 177.738281 115.8125 177.929688 "/>
<path style=" stroke:none;fill-rule:evenodd;fill:rgb(25.898743%,33.699036%,62.69989%);fill-opacity:1;" d="M 45.472656 178.597656 C 45.472656 178.882813 45.566406 179.167969 45.757813 179.359375 C 45.851563 179.546875 46.136719 179.546875 46.421875 179.546875 C 46.894531 179.546875 47.179688 179.453125 47.367188 179.167969 C 47.652344 178.785156 47.746094 178.40625 47.746094 177.835938 C 47.746094 177.265625 47.652344 176.789063 47.367188 176.503906 C 46.988281 176.21875 46.515625 176.121094 45.851563 176.121094 L 45.472656 176.121094 Z M 102.160156 172.410156 C 102.730469 172.507813 103.203125 172.507813 103.773438 172.507813 C 104.246094 172.507813 104.816406 172.507813 105.382813 172.507813 C 105.761719 172.507813 106.238281 172.507813 106.710938 172.507813 C 107.183594 172.507813 107.660156 172.507813 108.226563 172.410156 L 108.226563 174.125 L 108.039063 174.03125 C 108.039063 173.554688 107.941406 173.269531 107.753906 173.078125 C 107.5625 172.886719 107.089844 172.792969 106.425781 172.792969 L 106.046875 172.792969 C 105.953125 172.792969 105.855469 172.792969 105.761719 172.792969 L 105.667969 172.792969 L 105.667969 178.597656 C 105.667969 178.976563 105.667969 179.261719 105.761719 179.359375 C 105.953125 179.546875 106.140625 179.644531 106.425781 179.644531 L 106.425781 179.832031 C 106.332031 179.832031 106.046875 179.832031 105.855469 179.832031 C 105.667969 179.832031 105.476563 179.832031 105.195313 179.832031 C 104.910156 179.832031 104.71875 179.832031 104.53125 179.832031 C 104.246094 179.832031 104.058594 179.832031 103.960938 179.832031 L 103.960938 179.644531 C 104.246094 179.644531 104.4375 179.546875 104.625 179.359375 C 104.71875 179.261719 104.71875 178.976563 104.71875 178.597656 L 104.71875 172.792969 C 104.71875 172.792969 104.625 172.792969 104.53125 172.792969 C 104.53125 172.792969 104.4375 172.792969 104.339844 172.792969 L 103.960938 172.792969 C 103.203125 172.792969 102.824219 172.886719 102.636719 173.078125 C 102.445313 173.269531 102.351563 173.554688 102.351563 174.03125 L 102.160156 174.125 Z M 99.601563 173.648438 L 98.558594 176.882813 L 100.550781 176.882813 Z M 99.789063 172.316406 L 99.980469 172.316406 L 101.972656 178.597656 C 102.066406 178.976563 102.160156 179.261719 102.351563 179.359375 C 102.445313 179.546875 102.636719 179.644531 102.917969 179.644531 L 102.917969 179.832031 C 102.730469 179.832031 102.539063 179.832031 102.351563 179.832031 C 102.066406 179.832031 101.875 179.832031 101.6875 179.832031 C 101.496094 179.832031 101.214844 179.832031 101.023438 179.832031 C 100.835938 179.832031 100.644531 179.832031 100.453125 179.832031 L 100.453125 179.644531 C 100.738281 179.644531 100.835938 179.546875 101.023438 179.453125 C 101.117188 179.453125 101.117188 179.359375 101.117188 179.167969 C 101.117188 179.167969 101.117188 179.074219 101.117188 178.882813 C 101.117188 178.785156 101.023438 178.597656 101.023438 178.5 L 100.644531 177.167969 L 98.464844 177.167969 L 98.085938 178.40625 C 98.085938 178.5 97.988281 178.597656 97.988281 178.691406 C 97.988281 178.785156 97.988281 178.882813 97.988281 178.976563 C 97.988281 179.167969 97.988281 179.359375 98.085938 179.453125 C 98.273438 179.546875 98.367188 179.644531 98.558594 179.644531 L 98.652344 179.832031 C 98.464844 179.832031 98.273438 179.832031 98.085938 179.832031 C 97.894531 179.832031 97.800781 179.832031 97.707031 179.832031 C 97.515625 179.832031 97.324219 179.832031 97.230469 179.832031 C 97.136719 179.832031 97.136719 179.832031 97.042969 179.832031 C 96.945313 179.832031 96.851563 179.832031 96.757813 179.832031 C 96.757813 179.832031 96.757813 179.832031 96.660156 179.832031 C 96.566406 179.832031 96.472656 179.832031 96.378906 179.832031 C 96.1875 179.832031 96.09375 179.832031 95.902344 179.832031 C 95.808594 179.832031 95.714844 179.832031 95.621094 179.832031 L 93.628906 176.695313 C 93.628906 176.597656 93.535156 176.597656 93.441406 176.503906 C 93.441406 176.503906 93.34375 176.503906 93.25 176.503906 L 93.058594 176.503906 L 93.058594 178.597656 C 93.058594 178.976563 93.15625 179.261719 93.25 179.453125 C 93.34375 179.546875 93.535156 179.644531 93.914063 179.644531 L 93.914063 179.832031 C 93.722656 179.832031 93.535156 179.832031 93.34375 179.832031 C 93.15625 179.832031 92.871094 179.832031 92.679688 179.832031 C 92.398438 179.832031 92.207031 179.832031 91.921875 179.832031 C 91.734375 179.832031 91.542969 179.832031 91.355469 179.832031 L 91.355469 179.644531 C 91.734375 179.644531 91.921875 179.546875 92.019531 179.453125 C 92.113281 179.261719 92.207031 178.976563 92.207031 178.597656 L 92.207031 173.742188 C 92.207031 173.363281 92.113281 173.078125 92.019531 172.980469 C 91.921875 172.792969 91.734375 172.792969 91.355469 172.792969 L 91.355469 172.507813 C 91.542969 172.507813 91.734375 172.507813 91.828125 172.507813 C 92.019531 172.507813 92.113281 172.507813 92.207031 172.507813 C 92.492188 172.507813 92.777344 172.507813 93.15625 172.507813 C 93.535156 172.507813 93.722656 172.507813 93.914063 172.507813 C 94.578125 172.507813 95.144531 172.601563 95.429688 172.980469 C 95.808594 173.269531 96 173.742188 96 174.410156 C 96 174.886719 95.808594 175.359375 95.523438 175.648438 C 95.238281 176.027344 94.859375 176.21875 94.386719 176.21875 C 94.480469 176.40625 94.480469 176.40625 94.578125 176.503906 C 94.671875 176.597656 94.765625 176.695313 94.765625 176.789063 L 96.28125 179.074219 C 96.378906 179.261719 96.472656 179.359375 96.660156 179.453125 C 96.757813 179.546875 96.851563 179.546875 96.851563 179.644531 C 97.136719 179.546875 97.230469 179.453125 97.324219 179.359375 C 97.515625 179.167969 97.707031 178.785156 97.800781 178.3125 Z M 93.058594 176.21875 L 93.34375 176.21875 C 93.914063 176.21875 94.386719 176.027344 94.578125 175.835938 C 94.859375 175.550781 95.050781 175.074219 95.050781 174.503906 C 95.050781 173.839844 94.859375 173.457031 94.671875 173.171875 C 94.386719 172.792969 94.007813 172.699219 93.535156 172.699219 C 93.34375 172.699219 93.25 172.699219 93.15625 172.792969 C 93.15625 172.792969 93.058594 172.980469 93.058594 173.078125 Z M 87.941406 173.648438 L 86.898438 176.882813 L 88.890625 176.882813 Z M 88.128906 172.316406 L 88.320313 172.316406 L 90.3125 178.597656 C 90.40625 178.976563 90.5 179.261719 90.691406 179.359375 C 90.785156 179.546875 90.972656 179.644531 91.257813 179.644531 L 91.257813 179.832031 C 91.070313 179.832031 90.878906 179.832031 90.59375 179.832031 C 90.40625 179.832031 90.214844 179.832031 90.027344 179.832031 C 89.742188 179.832031 89.550781 179.832031 89.363281 179.832031 C 89.171875 179.832031 88.984375 179.832031 88.792969 179.832031 L 88.792969 179.644531 C 89.078125 179.644531 89.171875 179.546875 89.269531 179.453125 C 89.457031 179.453125 89.457031 179.359375 89.457031 179.167969 C 89.457031 179.167969 89.457031 179.074219 89.457031 178.882813 C 89.457031 178.785156 89.363281 178.597656 89.363281 178.5 L 88.984375 177.167969 L 86.804688 177.167969 L 86.425781 178.40625 C 86.328125 178.5 86.328125 178.597656 86.328125 178.691406 C 86.328125 178.785156 86.328125 178.882813 86.328125 178.976563 C 86.328125 179.167969 86.328125 179.359375 86.425781 179.453125 C 86.519531 179.546875 86.707031 179.644531 86.898438 179.644531 L 86.898438 179.832031 C 86.707031 179.832031 86.613281 179.832031 86.425781 179.832031 C 86.234375 179.832031 86.140625 179.832031 86.042969 179.832031 C 85.855469 179.832031 85.664063 179.832031 85.570313 179.832031 C 85.382813 179.832031 85.191406 179.832031 85.097656 179.832031 L 85.097656 179.644531 C 85.382813 179.546875 85.570313 179.453125 85.664063 179.359375 C 85.855469 179.167969 86.042969 178.785156 86.140625 178.3125 Z M 82.347656 172.507813 C 82.539063 172.507813 82.726563 172.507813 82.917969 172.507813 C 83.203125 172.507813 83.390625 172.507813 83.675781 172.507813 C 83.863281 172.507813 84.054688 172.507813 84.339844 172.507813 C 84.527344 172.507813 84.71875 172.507813 84.90625 172.507813 L 84.90625 172.792969 C 84.621094 172.792969 84.339844 172.792969 84.242188 172.980469 C 84.148438 173.078125 84.054688 173.363281 84.054688 173.742188 L 84.054688 180.214844 C 84.054688 180.691406 84.054688 181.070313 84.054688 181.355469 C 84.054688 181.546875 83.960938 181.738281 83.863281 181.925781 C 83.769531 182.210938 83.484375 182.402344 83.203125 182.59375 C 82.917969 182.78125 82.632813 182.78125 82.253906 182.78125 C 81.78125 182.78125 81.496094 182.78125 81.304688 182.59375 C 81.019531 182.496094 80.925781 182.210938 80.925781 182.023438 C 80.925781 181.832031 80.925781 181.738281 81.019531 181.640625 C 81.117188 181.546875 81.210938 181.546875 81.304688 181.546875 C 81.398438 181.546875 81.398438 181.546875 81.496094 181.640625 C 81.496094 181.640625 81.589844 181.738281 81.589844 181.925781 C 81.683594 182.210938 81.78125 182.308594 81.875 182.402344 C 81.96875 182.59375 82.0625 182.59375 82.253906 182.59375 C 82.632813 182.59375 82.824219 182.496094 83.011719 182.308594 C 83.105469 182.117188 83.203125 181.640625 83.203125 180.878906 L 83.203125 173.742188 C 83.203125 173.363281 83.203125 173.078125 83.011719 172.980469 C 82.917969 172.792969 82.726563 172.792969 82.347656 172.792969 Z M 76.753906 172.507813 C 76.945313 172.507813 77.230469 172.507813 77.511719 172.507813 C 77.894531 172.507813 78.175781 172.507813 78.554688 172.507813 C 79.125 172.507813 79.503906 172.507813 79.976563 172.507813 C 80.355469 172.507813 80.734375 172.507813 81.019531 172.507813 L 81.019531 174.125 L 80.832031 174.125 C 80.832031 173.554688 80.640625 173.269531 80.453125 173.078125 C 80.261719 172.886719 79.789063 172.792969 79.125 172.792969 C 78.746094 172.792969 78.554688 172.792969 78.460938 172.886719 C 78.460938 172.886719 78.367188 173.078125 78.367188 173.363281 L 78.367188 175.835938 C 78.460938 175.835938 78.554688 175.835938 78.652344 175.835938 C 79.03125 175.835938 79.316406 175.742188 79.503906 175.550781 C 79.695313 175.359375 79.789063 174.980469 79.789063 174.503906 L 79.976563 174.503906 C 79.976563 174.695313 79.976563 174.886719 79.976563 175.171875 C 79.976563 175.457031 79.976563 175.648438 79.976563 175.933594 C 79.976563 176.21875 79.976563 176.40625 79.976563 176.695313 C 79.976563 176.882813 79.976563 177.167969 79.976563 177.359375 L 79.789063 177.359375 C 79.789063 176.882813 79.695313 176.597656 79.503906 176.40625 C 79.316406 176.21875 79.03125 176.121094 78.652344 176.121094 C 78.554688 176.121094 78.554688 176.121094 78.460938 176.121094 C 78.460938 176.121094 78.460938 176.121094 78.367188 176.121094 L 78.367188 178.214844 C 78.367188 178.785156 78.460938 179.167969 78.652344 179.261719 C 78.839844 179.453125 79.125 179.546875 79.695313 179.546875 C 80.167969 179.546875 80.640625 179.453125 80.832031 179.261719 C 81.117188 179.074219 81.210938 178.691406 81.304688 178.121094 L 81.496094 178.121094 L 81.398438 179.832031 C 80.832031 179.832031 80.261719 179.832031 79.789063 179.832031 C 79.316406 179.832031 78.839844 179.832031 78.554688 179.832031 C 77.988281 179.832031 77.609375 179.832031 77.324219 179.832031 C 77.132813 179.832031 76.945313 179.832031 76.753906 179.832031 L 76.753906 179.644531 C 77.039063 179.644531 77.230469 179.546875 77.324219 179.453125 C 77.511719 179.261719 77.511719 178.976563 77.511719 178.597656 L 77.511719 173.742188 C 77.511719 173.363281 77.511719 173.078125 77.324219 172.980469 C 77.230469 172.792969 77.039063 172.792969 76.753906 172.792969 Z M 70.308594 172.410156 C 70.78125 172.507813 71.351563 172.507813 71.824219 172.507813 C 72.394531 172.507813 72.964844 172.507813 73.53125 172.507813 C 73.910156 172.507813 74.386719 172.507813 74.859375 172.507813 C 75.332031 172.507813 75.808594 172.507813 76.28125 172.410156 L 76.28125 174.125 L 76.1875 174.03125 C 76.1875 173.554688 76.089844 173.269531 75.902344 173.078125 C 75.710938 172.886719 75.238281 172.792969 74.574219 172.792969 L 74.195313 172.792969 C 74.101563 172.792969 74.007813 172.792969 73.910156 172.792969 C 73.816406 172.792969 73.816406 172.792969 73.722656 172.792969 L 73.722656 178.597656 C 73.722656 178.976563 73.816406 179.261719 73.910156 179.359375 C 74.007813 179.546875 74.289063 179.644531 74.574219 179.644531 L 74.574219 179.832031 C 74.386719 179.832031 74.195313 179.832031 74.007813 179.832031 C 73.816406 179.832031 73.53125 179.832031 73.34375 179.832031 C 73.058594 179.832031 72.773438 179.832031 72.585938 179.832031 C 72.394531 179.832031 72.203125 179.832031 72.015625 179.832031 L 72.015625 179.644531 C 72.394531 179.644531 72.585938 179.546875 72.679688 179.359375 C 72.773438 179.261719 72.867188 178.976563 72.867188 178.597656 L 72.867188 172.792969 C 72.773438 172.792969 72.773438 172.792969 72.679688 172.792969 C 72.585938 172.792969 72.585938 172.792969 72.394531 172.792969 L 72.015625 172.792969 C 71.351563 172.792969 70.972656 172.886719 70.78125 173.078125 C 70.59375 173.269531 70.5 173.554688 70.5 174.03125 L 70.308594 174.125 Z M 62.25 172.507813 C 62.441406 172.507813 62.628906 172.507813 62.820313 172.507813 C 63.007813 172.507813 63.292969 172.507813 63.484375 172.507813 C 63.769531 172.507813 63.957031 172.507813 64.148438 172.507813 C 64.429688 172.507813 64.621094 172.507813 64.714844 172.507813 L 64.8125 172.792969 C 64.429688 172.792969 64.242188 172.792969 64.148438 172.980469 C 63.957031 173.078125 63.957031 173.363281 63.957031 173.742188 L 63.957031 176.695313 L 64.335938 176.121094 C 64.8125 175.550781 65.191406 174.886719 65.570313 174.316406 C 65.949219 173.742188 66.042969 173.363281 66.042969 173.171875 C 66.042969 172.980469 66.042969 172.886719 65.949219 172.792969 C 65.851563 172.792969 65.757813 172.699219 65.570313 172.699219 C 65.570313 172.699219 65.570313 172.699219 65.570313 172.792969 C 65.472656 172.792969 65.472656 172.792969 65.472656 172.792969 L 65.472656 172.507813 L 65.570313 172.507813 C 66.042969 172.507813 66.328125 172.507813 66.421875 172.507813 C 66.613281 172.507813 66.707031 172.507813 66.894531 172.507813 C 66.992188 172.507813 67.179688 172.507813 67.277344 172.507813 L 67.277344 172.792969 L 67.179688 172.792969 C 66.894531 172.792969 66.613281 173.078125 66.234375 173.742188 C 66.042969 174.03125 65.851563 174.316406 65.757813 174.503906 L 65 175.550781 L 66.992188 178.5 C 67.277344 178.976563 67.464844 179.261719 67.65625 179.453125 C 67.75 179.546875 67.9375 179.644531 68.035156 179.644531 L 68.128906 179.644531 L 68.128906 179.832031 C 67.84375 179.832031 67.65625 179.832031 67.464844 179.832031 C 67.277344 179.832031 67.085938 179.832031 66.992188 179.832031 C 66.707031 179.832031 66.421875 179.832031 66.234375 179.832031 C 65.949219 179.832031 65.757813 179.832031 65.570313 179.832031 L 65.570313 179.644531 L 65.664063 179.644531 C 65.851563 179.644531 66.042969 179.546875 66.042969 179.546875 C 66.136719 179.453125 66.234375 179.359375 66.234375 179.261719 C 66.234375 179.167969 66.136719 178.882813 65.949219 178.597656 C 65.757813 178.214844 65.472656 177.738281 65.09375 177.167969 L 64.527344 176.3125 L 63.957031 176.980469 L 63.957031 178.597656 C 63.957031 178.976563 63.957031 179.261719 64.148438 179.453125 C 64.242188 179.546875 64.429688 179.644531 64.714844 179.644531 L 64.8125 179.832031 C 64.621094 179.832031 64.429688 179.832031 64.148438 179.832031 C 63.957031 179.832031 63.769531 179.832031 63.484375 179.832031 C 63.199219 179.832031 63.007813 179.832031 62.820313 179.832031 C 62.628906 179.832031 62.441406 179.832031 62.25 179.832031 L 62.25 179.644531 C 62.535156 179.644531 62.820313 179.546875 62.914063 179.453125 C 63.007813 179.261719 63.007813 178.976563 63.007813 178.597656 L 63.007813 173.742188 C 63.007813 173.363281 63.007813 173.078125 62.914063 172.980469 C 62.820313 172.792969 62.535156 172.792969 62.25 172.792969 Z M 59.597656 172.507813 C 59.691406 172.507813 59.882813 172.507813 59.976563 172.507813 C 60.164063 172.507813 60.355469 172.507813 60.449219 172.507813 C 60.734375 172.507813 60.921875 172.507813 61.019531 172.507813 C 61.207031 172.507813 61.304688 172.507813 61.398438 172.507813 L 61.398438 172.699219 C 61.113281 172.699219 60.828125 172.792969 60.734375 172.980469 C 60.640625 173.078125 60.640625 173.363281 60.640625 173.933594 L 60.640625 179.929688 L 60.355469 179.929688 L 56.375 173.648438 L 56.375 178.5 C 56.375 178.976563 56.375 179.261719 56.5625 179.453125 C 56.65625 179.546875 56.847656 179.644531 57.132813 179.644531 L 57.132813 179.832031 C 57.039063 179.832031 56.941406 179.832031 56.753906 179.832031 C 56.65625 179.832031 56.46875 179.832031 56.183594 179.832031 C 55.996094 179.832031 55.898438 179.832031 55.710938 179.832031 C 55.617188 179.832031 55.425781 179.832031 55.332031 179.832031 L 55.332031 179.644531 C 55.617188 179.644531 55.804688 179.546875 55.996094 179.359375 C 56.089844 179.261719 56.089844 178.976563 56.089844 178.40625 L 56.089844 173.269531 C 55.996094 173.078125 55.898438 172.980469 55.804688 172.886719 C 55.617188 172.792969 55.425781 172.792969 55.234375 172.792969 L 55.234375 172.507813 C 55.425781 172.507813 55.519531 172.507813 55.710938 172.507813 C 55.804688 172.507813 55.996094 172.507813 56.089844 172.507813 C 56.089844 172.507813 56.183594 172.507813 56.277344 172.507813 C 56.375 172.507813 56.5625 172.507813 56.65625 172.507813 L 60.355469 178.214844 L 60.355469 173.933594 C 60.355469 173.363281 60.261719 173.078125 60.164063 172.980469 C 60.070313 172.792969 59.882813 172.699219 59.597656 172.699219 Z M 51.824219 173.648438 L 50.78125 176.882813 L 52.773438 176.882813 Z M 52.011719 172.316406 L 52.203125 172.316406 L 54.195313 178.597656 C 54.289063 178.976563 54.382813 179.261719 54.574219 179.359375 C 54.667969 179.546875 54.855469 179.644531 55.140625 179.644531 L 55.140625 179.832031 C 54.953125 179.832031 54.761719 179.832031 54.574219 179.832031 C 54.289063 179.832031 54.097656 179.832031 53.910156 179.832031 C 53.71875 179.832031 53.433594 179.832031 53.246094 179.832031 C 53.054688 179.832031 52.867188 179.832031 52.675781 179.832031 L 52.675781 179.644531 C 52.960938 179.644531 53.152344 179.546875 53.246094 179.453125 C 53.339844 179.453125 53.339844 179.359375 53.339844 179.167969 C 53.339844 179.167969 53.339844 179.074219 53.339844 178.882813 C 53.339844 178.785156 53.246094 178.597656 53.246094 178.5 L 52.867188 177.167969 L 50.6875 177.167969 L 50.304688 178.40625 C 50.304688 178.5 50.210938 178.597656 50.210938 178.691406 C 50.210938 178.785156 50.210938 178.882813 50.210938 178.976563 C 50.210938 179.167969 50.210938 179.359375 50.402344 179.453125 C 50.496094 179.546875 50.589844 179.644531 50.875 179.644531 L 50.875 179.832031 C 50.6875 179.832031 50.496094 179.832031 50.304688 179.832031 C 50.117188 179.832031 50.023438 179.832031 49.925781 179.832031 C 49.738281 179.832031 49.546875 179.832031 49.453125 179.832031 C 49.265625 179.832031 49.167969 179.832031 48.980469 179.832031 L 48.980469 179.644531 C 49.265625 179.546875 49.453125 179.453125 49.644531 179.359375 C 49.738281 179.167969 49.925781 178.785156 50.023438 178.3125 Z M 45.472656 175.835938 L 45.566406 175.835938 C 46.230469 175.835938 46.703125 175.742188 46.894531 175.550781 C 47.179688 175.265625 47.273438 174.886719 47.273438 174.316406 C 47.273438 173.839844 47.179688 173.363281 46.988281 173.171875 C 46.800781 172.886719 46.421875 172.699219 46.039063 172.699219 C 45.757813 172.699219 45.660156 172.792969 45.566406 172.792969 C 45.566406 172.886719 45.472656 172.980469 45.472656 173.171875 Z M 43.765625 172.507813 C 43.859375 172.507813 43.859375 172.507813 43.859375 172.507813 C 44.238281 172.507813 44.523438 172.507813 44.714844 172.507813 C 44.902344 172.507813 45.1875 172.507813 45.472656 172.507813 C 45.757813 172.507813 46.039063 172.507813 46.136719 172.507813 C 46.800781 172.507813 47.367188 172.699219 47.652344 172.980469 C 48.03125 173.269531 48.222656 173.648438 48.222656 174.21875 C 48.222656 174.695313 48.125 175.074219 47.84375 175.265625 C 47.652344 175.550781 47.273438 175.742188 46.800781 175.933594 C 47.464844 176.027344 47.9375 176.21875 48.316406 176.503906 C 48.601563 176.882813 48.789063 177.359375 48.789063 177.929688 C 48.789063 178.5 48.601563 179.074219 48.222656 179.359375 C 47.746094 179.738281 47.179688 179.832031 46.421875 179.832031 C 46.421875 179.832031 46.324219 179.832031 46.230469 179.832031 C 45.757813 179.832031 45.1875 179.832031 44.714844 179.832031 C 44.523438 179.832031 44.429688 179.832031 44.238281 179.832031 C 44.050781 179.832031 43.957031 179.832031 43.765625 179.832031 L 43.765625 179.644531 C 44.144531 179.644531 44.335938 179.546875 44.429688 179.453125 C 44.523438 179.261719 44.617188 178.976563 44.617188 178.597656 L 44.617188 173.742188 C 44.617188 173.363281 44.523438 173.078125 44.429688 172.980469 C 44.335938 172.792969 44.144531 172.792969 43.765625 172.792969 L 43.765625 172.507813 "/>
</g>
</svg>
