<?xml version="1.0" encoding="UTF-8" standalone="no"?>
<!-- Generator: Adobe Illustrator 22.1.0, SVG Export Plug-In . SVG Version: 6.00 Build 0)  -->
<svg version="1.1" id="Capa_1" x="0px" y="0px" viewBox="0 0 537 547" style="enable-background:new 0 0 537 547;" xml:space="preserve" sodipodi:docname="ایران زمین - Copy.svg" inkscape:version="1.1.2 (0a00cf5339, 2022-02-04, custom)" xmlns:inkscape="http://www.inkscape.org/namespaces/inkscape" xmlns:sodipodi="http://sodipodi.sourceforge.net/DTD/sodipodi-0.dtd" xmlns="http://www.w3.org/2000/svg" xmlns:svg="http://www.w3.org/2000/svg"><defs id="defs13"/><sodipodi:namedview id="namedview11" pagecolor="#ffffff" bordercolor="#666666" borderopacity="1.0" inkscape:pageshadow="2" inkscape:pageopacity="0.0" inkscape:pagecheckerboard="0" showgrid="false" inkscape:zoom="1.1755027" inkscape:cx="268.3958" inkscape:cy="205.01866" inkscape:window-width="1600" inkscape:window-height="829" inkscape:window-x="-8" inkscape:window-y="-8" inkscape:window-maximized="1" inkscape:current-layer="Capa_1"/>
<style type="text/css" id="style2">
	.st0{fill:none;}
	.st1{fill:#4C2A93;}
	.st2{fill:#F10B7C;}
</style>
<symbol id="Bank_Iran_Zamin_Color" viewBox="-24 -24 48 48">
	<g id="Bank_Iran_Zamin_Color_5_" transform="translate(1386)">
		<rect id="Boundary_171_" x="-1410" y="-24" class="st0" width="48" height="48"/>
		<path id="Shape_294_" class="st1" d="M-1403.2-17.2c20.3-8.3,35.4,7.8,27.7,25c13.7-15.7,2.4-31.8-12.1-31.8    C-1392.7-24-1398.2-22-1403.2-17.2z M-1393.6,10.7c21.4,18.4,43-9.2,24.7-28C-1360.4,3-1376.4,18.2-1393.6,10.7z M-1403,17.6    c-8.6-20.3,7.2-35.6,24.5-28.1c-5-4.2-9.9-6-14.4-6C-1407.8-16.5-1417.2,3.2-1403,17.6z M-1367.3,15.7    c-19.5,10.2-35.9-4.4-29.9-22.3C-1413.6,16.4-1384.4,35.6-1367.3,15.7L-1367.3,15.7z"/>
		<path id="Shape_293_" class="st2" d="M-1386-9c5,0,9,4,9,9s-4,9-9,9s-9-4-9-9C-1395-5-1391-9-1386-9"/>
	</g>
</symbol>
<g id="Welcome" stroke="none" stroke-width="1" fill="none" fill-rule="evenodd" transform="matrix(8.6326681,0,0,8.6326681,20.776295,103.65008)"><g id="Landing" transform="translate(-1185,-20)"><g id="Logo" transform="translate(1185,20)"><circle id="Oval" fill="#000000" cx="14.025974" cy="2.3376625" r="2.3376625"/><path d="m 44.415584,15.077922 v 11.103896 0 c 0,2.454365 1.81934,4.324675 4.207793,4.324675 2.364567,0 4.207792,-1.870581 4.207212,-4.253158 l 4.6e-4,-11.175413 c 1.86e-4,-1.613772 1.308426,-2.921958 2.922198,-2.922078 h 2.922078 v 0 13.792208 C 58.675325,31.49959 54.174914,36 48.623377,36 43.071839,36 38.571429,31.49959 38.571429,25.948052 V 12.155844 h 2.922078 c 1.613819,0 2.922077,1.308259 2.922077,2.922078 z" id="Combined-Shape" fill="#4e91e6" fill-rule="nonzero"/><path d="m 30.974026,3.2727273 h 2.922078 v 0 29.8051947 C 33.896104,34.691741 32.587845,36 30.974026,36 H 28.051948 V 36 6.1948052 c 0,-1.6138191 1.308259,-2.9220779 2.922078,-2.9220779 z" id="Rectangle" fill="#4e91e6"/><path d="M 5.8441558,3.2727273 5.8440241,14.36867 c 1.8498401,-1.675848 4.2093049,-2.680358 6.7793529,-2.680358 5.938854,0 10.753246,5.363861 10.753246,11.980519 0,0.05047 -2.8e-4,0.100875 -8.38e-4,0.151202 5.76e-4,0.04688 8.38e-4,0.09391 8.38e-4,0.141006 C 23.375785,30.798535 18.143588,36 11.688312,36 5.3469543,36 0.18507964,30.798535 0.00486714,24.311849 L 0,24.311688 V 6.1948052 C 0,4.5710064 1.3233964,3.2727273 2.9220779,3.2727273 Z M 11.571429,17.064935 c -3.3567441,0 -6.0779225,3.008995 -6.0779225,6.720779 0,3.711784 2.7211784,6.720779 6.0779225,6.720779 3.356743,0 6.077922,-3.008995 6.077922,-6.720779 0,-3.711784 -2.721179,-6.720779 -6.077922,-6.720779 z" id="path7" fill="#4e91e6" fill-rule="nonzero"/></g></g></g>
</svg>