<?xml version="1.0" encoding="UTF-8" standalone="no"?>
<!-- Generator: Adobe Illustrator 22.1.0, SVG Export Plug-In . SVG Version: 6.00 Build 0)  -->
<svg version="1.1" id="Capa_1" x="0px" y="0px" viewBox="0 0 537 547" style="enable-background:new 0 0 537 547;" xml:space="preserve" sodipodi:docname="صنعت و معدن.svg" inkscape:version="1.1.2 (0a00cf5339, 2022-02-04, custom)" xmlns:inkscape="http://www.inkscape.org/namespaces/inkscape" xmlns:sodipodi="http://sodipodi.sourceforge.net/DTD/sodipodi-0.dtd" xmlns="http://www.w3.org/2000/svg" xmlns:svg="http://www.w3.org/2000/svg" xmlns:rdf="http://www.w3.org/1999/02/22-rdf-syntax-ns#" xmlns:cc="http://creativecommons.org/ns#" xmlns:dc="http://purl.org/dc/elements/1.1/"><metadata id="metadata15"><rdf:RDF><cc:Work rdf:about=""><dc:format>image/svg+xml</dc:format><dc:type rdf:resource="http://purl.org/dc/dcmitype/StillImage"/><dc:title/></cc:Work></rdf:RDF></metadata><defs id="defs13"/><sodipodi:namedview pagecolor="#ffffff" bordercolor="#666666" borderopacity="1" objecttolerance="10" gridtolerance="10" guidetolerance="10" inkscape:pageopacity="0" inkscape:pageshadow="2" inkscape:window-width="1920" inkscape:window-height="1009" id="namedview11" showgrid="false" inkscape:zoom="1.725777" inkscape:cx="328.8374" inkscape:cy="304.21081" inkscape:window-x="-8" inkscape:window-y="-8" inkscape:window-maximized="1" inkscape:current-layer="Capa_1" inkscape:pagecheckerboard="0"/>
<style type="text/css" id="style2">
	.st0{fill:none;}
	.st1{fill-rule:evenodd;clip-rule:evenodd;fill:#B17D53;}
	.st2{fill-rule:evenodd;clip-rule:evenodd;}
</style>
<symbol id="Bank_x5F_Parsian_x5F_Color" viewBox="-24 -24 48 48">
	<rect id="Boundary_124_" x="-24" y="-24" class="st0" width="48" height="48"/>
	<path id="Shape_184_" class="st1" d="M20.8-24H0.8v19.6C1-1.2,1.5,1.7,2.7,3.8C3.4,3.4,4.6,1.7,5-1.6C5.9,0.2,7.2,1.8,9,3   c0.1-3.6-0.1-5-1.1-7.5c-1-2.2-3-3.8-5.3-4.4v-13.3H19c0,10.9,0.2,21.7,0,32.6c0,0.1,0,0.2,0,0.3c0,0.5-0.2,1-0.4,1.5   c-0.5,1.2-1.5,2.2-2.7,2.7l0,0c0.3,0.5,0.7,1,1.1,1.5c0.6-0.3,1.2-0.8,1.8-1.3c0.7-0.7,1.3-1.6,1.6-2.6c0.3-0.7,0.4-1.5,0.4-2.3   L20.8-24z M-0.8-24h-20.1v34.2c0,0.8,0.1,1.6,0.4,2.3c0.3,1,0.9,1.9,1.6,2.6c0.5,0.5,1.1,0.9,1.8,1.3c0.4-0.5,0.8-1,1.1-1.5l0,0   c-1.2-0.5-2.1-1.5-2.7-2.7c-0.2-0.5-0.3-1-0.4-1.5c0-0.1,0-0.2,0-0.3c-0.2-10.9,0-21.7,0-32.6h16.5v13.3c-2.3,0.6-4.3,2.2-5.3,4.4   C-8.9-2-9.1-0.6-9,3c1.7-1.1,3.1-2.7,4-4.6c0.4,3.3,1.6,5.1,2.3,5.4c1.2-2.1,1.6-5,1.9-8.2L-0.8-24z M7.6,22.8c0-0.2,0-0.3-0.1-0.5   c0-0.2-0.1-0.5-0.2-0.7c-0.6-1.8-1.6-3.4-3-4.8c-0.2-0.3-0.5-0.5-0.7-0.8c-0.2-0.2-0.5-0.5-0.7-0.7c0.4-1.1,0.8-2.2,1.3-3.3   c0.2-0.4,0.4-0.9,0.6-1.3c0.6,1,1.3,1.9,2,2.7c0.6,0.7,1.2,1.3,1.8,1.9c-0.5,0.9-0.8,1.9-0.9,2.9C7.6,19.8,7.5,21.3,7.6,22.8z    M-7.6,22.8c0-0.2,0-0.3,0.1-0.5c0-0.2,0.1-0.5,0.2-0.7c0.6-1.8,1.6-3.4,3-4.8c0.2-0.3,0.5-0.5,0.7-0.8c0.2-0.2,0.5-0.5,0.7-0.7   c-0.4-1.1-0.8-2.2-1.3-3.3c-0.2-0.4-0.4-0.9-0.6-1.3c-0.6,1-1.3,1.9-2,2.7c-0.6,0.7-1.2,1.3-1.8,1.9c0.5,0.9,0.8,1.9,0.9,2.9   C-7.6,19.8-7.5,21.3-7.6,22.8L-7.6,22.8z"/>
	<path id="Shape_183_" class="st2" d="M19,19.4c-3.2-2.3-6.9-7.3-7.3-12.5c-0.4-4.3-1.1-6.2-1.6-7c0.2,1.7,0.2,3.3,0,5   C9.1,4.5,8.2,3.9,7.5,3.1C7.4,3.5,6.4,5.4,3.3,4.6c0.1,0.5,0.3,1,0.5,1.4c0.4,1.1,1,2.2,1.6,3.2l0,0c0.7,1.1,1.4,2.2,2.2,3.2   c0.7,0.8,1.5,1.6,2.3,2.4c0,0,0,0,0.1,0.1c0.6,0.5,1.2,1,1.9,1.5c1.8,1.3,3.9,2.3,6,2.9C18.2,19.3,18.6,19.4,19,19.4z M-19,19.4   c3.2-2.3,6.9-7.3,7.3-12.5c0.4-4.3,1.1-6.2,1.6-7c-0.2,1.7-0.2,3.3,0,5c0.9-0.5,1.8-1.1,2.5-1.8c0.1,0.4,1.1,2.3,4.2,1.4   c-0.1,0.5-0.3,1-0.5,1.4c-0.4,1.1-1,2.2-1.6,3.2l0,0c-0.7,1.1-1.4,2.2-2.2,3.2c-0.7,0.8-1.5,1.6-2.3,2.4c0,0,0,0-0.1,0.1   c-0.6,0.5-1.2,1-1.9,1.5c-1.8,1.3-3.9,2.3-6,2.9C-18.2,19.3-18.6,19.4-19,19.4L-19,19.4z M1.9,4.1C1.4,4.6,0.7,4.8,0,4.8   c-0.7,0-1.4-0.2-1.9-0.7C-2.4,6-3.2,7.9-4.2,9.6c0.8,1.5,1.4,3,2,4.6c0.9,2.8,1.7,6.2,2.2,8c0.5-1.8,1.3-5.4,2.2-8   c0.4-1,1.6-3.8,2-4.6C3.2,7.9,2.4,6,1.9,4.1L1.9,4.1z M8.9,20.8c0.2,1.9,2.4,2,3.7,1.6c1.9-0.6,2.6-2.4,1-3.4   c-0.7-0.5-1.5-0.9-2.3-1.4c-0.6-0.4-1.2-0.9-1.7-1.3l0,0C9.1,17.7,8.9,19.2,8.9,20.8L8.9,20.8z M-8.9,20.8c-0.2,1.9-2.4,2-3.7,1.6   c-1.9-0.6-2.6-2.4-1-3.4c0.7-0.5,1.5-0.9,2.3-1.4c0.6-0.4,1.2-0.9,1.7-1.3l0,0C-9.1,17.7-8.9,19.2-8.9,20.8L-8.9,20.8z M1.5,21.7   c-0.1,1.2,0.8,2.3,2.1,2.3c0.1,0,0.3,0,0.4,0c0.7-0.1,2.7-0.6,2.2-2.3c-0.2-0.7-0.5-1.3-0.9-1.9c-0.7-1-1.5-2-2.4-2.8l-0.3-0.3   c-0.3,1.1-0.6,2.3-0.8,3.4C1.6,20.6,1.5,21.1,1.5,21.7L1.5,21.7z M-1.5,21.7c0.1,1.2-0.8,2.3-2.1,2.3c-0.1,0-0.3,0-0.4,0   c-0.7-0.1-2.7-0.6-2.2-2.3c0.2-0.7,0.5-1.3,0.9-1.9c0.7-1,1.5-2,2.4-2.8l0.3-0.3c0.3,1.1,0.6,2.3,0.8,3.4   C-1.6,20.6-1.5,21.1-1.5,21.7L-1.5,21.7z"/>
</symbol>

<path id="Path_189" d="m 339.18954,351.41788 a 61.461178,61.461178 0 0 1 -54.2752,-67.14591 v -0.68057 a 61.976607,61.976607 0 0 1 54.2752,-54.27519 91.346063,91.346063 0 0 0 0,122.10167 z" class="cls-1" style="fill:#1d2b8a;stroke-width:5.00417"/><path id="Path_190" d="m 472.16527,351.4379 a 89.574588,89.574588 0 0 0 0,-120.76556 61.461178,61.461178 0 0 1 54.27519,67.16592 v 0.68057 a 62.617141,62.617141 0 0 1 -54.27519,52.91907 z" class="cls-1" style="fill:#1d2b8a;stroke-width:5.00417"/><path id="Path_191" d="m 466.73574,223.88669 a 89.574588,89.574588 0 0 0 -120.76556,0 61.461178,61.461178 0 0 1 67.16593,-54.2752 h 0.68057 a 63.317724,63.317724 0 0 1 52.91906,54.2752 z" class="cls-1" style="fill:#1d2b8a;stroke-width:5.00417"/><path id="Path_192" d="m 466.71573,356.86241 a 61.461178,61.461178 0 0 1 -67.14591,54.2752 h -0.68057 a 61.976607,61.976607 0 0 1 -54.2752,-54.2752 89.909867,89.909867 0 0 0 122.10168,0 z" class="cls-1" style="fill:#1d2b8a;stroke-width:5.00417"/><g id="Group_934" transform="matrix(5.0041669,0,0,5.0041669,190.60581,275.44962)" style="fill:#1d2b8a;fill-opacity:1"><g id="Group_932" transform="translate(0,6.643)" style="fill:#1d2b8a;fill-opacity:1"><path id="Path_1508" d="m 35.565,28.9 a 0.133,0.133 0 0 0 -0.136,0.136 c -0.136,0.136 -0.271,0.136 -0.542,0.271 -0.136,0.136 -0.407,0.271 -0.542,0.407 l -0.678,0.678 a 12.5,12.5 0 0 0 -0.678,1.085 3.449,3.449 0 0 0 -0.271,0.949 c 0,0.271 0,0.407 0.136,0.407 0.136,0 0.136,0.136 0.407,0.271 a 0.42,0.42 0 0 1 0.271,0.136 c 0.136,0 0.136,0 0.271,0.136 0.135,0.136 0.136,0 0.271,0.136 l 0.136,0.136 a 1.025,1.025 0 0 1 -0.136,0.542 1.059,1.059 0 0 1 -0.542,0.542 c -0.271,0.136 -0.407,0.271 -0.678,0.407 a 3.959,3.959 0 0 1 -1.22,0.271 2.1,2.1 0 0 1 -1.085,-0.271 1.172,1.172 0 0 1 -0.407,-0.813 2.681,2.681 0 0 1 0.271,-1.356 c 0.136,-0.271 0.136,-0.542 0.271,-0.813 l 0.407,-0.813 V 31.2 l -0.136,0.136 v 0.136 a 7.777,7.777 0 0 1 -0.542,0.949 c -0.136,0.271 -0.271,0.678 -0.407,0.949 a 3.191,3.191 0 0 0 -0.271,1.085 2.985,2.985 0 0 0 -0.136,1.085 0.815,0.815 0 0 0 0.136,0.542 c 0.136,0.136 0.136,0.407 0.271,0.542 a 1.428,1.428 0 0 0 1.356,0.542 2.29,2.29 0 0 0 1.356,-0.407 1.872,1.872 0 0 0 0.542,-0.407 c 0.136,-0.136 0.271,-0.407 0.407,-0.542 a 4.241,4.241 0 0 0 0.678,-1.356 5.967,5.967 0 0 0 0.271,-1.356 0.7,0.7 0 0 0 -0.271,-0.542 0.594,0.594 0 0 0 -0.407,-0.136 c -0.136,0 -0.271,-0.136 -0.407,-0.136 -0.136,-0.136 -0.136,-0.136 -0.136,-0.271 a 1.049,1.049 0 0 1 0.136,-0.407 c 0.136,-0.136 0.271,-0.407 0.542,-0.542 0.271,-0.135 0.407,-0.271 0.678,-0.407 a 1.025,1.025 0 0 1 0.542,-0.136 h 0.136 a 0.133,0.133 0 0 1 0.136,-0.136 0.473,0.473 0 0 0 0.136,-0.271 c 0,-0.136 0.136,-0.136 0.136,-0.271 0,-0.135 0,-0.136 0.136,-0.271 v -0.271 z" class="cls-1" transform="translate(-29.6,-27.137)" style="fill:#1d2b8a;fill-opacity:1"/><path id="Path_1509" d="m 35.6,31.05 a 2.758,2.758 0 0 0 -0.136,0.678 2.514,2.514 0 0 1 -0.271,0.949 c -0.136,0.407 -0.271,0.542 -0.271,0.678 -0.136,0.136 -0.271,0.407 -0.542,0.542 a 2.38,2.38 0 0 1 -0.678,0.542 c -0.136,0.136 -0.271,0.271 -0.407,0.271 v 0.136 h 0.542 a 2.291,2.291 0 0 0 0.678,-0.271 c 0.271,-0.136 0.407,-0.136 0.542,-0.271 0.135,-0.135 0.136,-0.271 0.271,-0.542 a 8.64,8.64 0 0 0 0.271,-0.949 11.621,11.621 0 0 0 0.407,-1.763 V 30.914 C 35.6,30.779 35.6,30.915 35.6,31.05 Z" class="cls-1" transform="translate(-28.284,-26.441)" style="fill:#1d2b8a;fill-opacity:1"/><path id="Path_1510" d="M 36.885,34.971 36.749,34.835 36.613,34.699 H 36.477 L 35.8,35.785 c 0.136,0.136 0.271,0.136 0.407,0.271 0.136,0.135 0.271,0.136 0.271,0.271 h 0.271 a 0.133,0.133 0 0 0 0.136,-0.136 l 0.136,-0.136 0.136,-0.136 0.136,-0.136 c 0.136,-0.136 0.136,-0.136 0.136,-0.271 v -0.271 c 0,-0.136 0,-0.136 -0.136,-0.271 -0.273,0.137 -0.273,0.137 -0.408,10e-4 z" class="cls-1" transform="translate(-27.394,-25.074)" style="fill:#1d2b8a;fill-opacity:1"/><path id="Path_1511" d="m 37.7,28.5 0.136,0.136 0.136,0.136 0.136,0.136 h 0.136 L 38.38,28.772 V 28.636 L 38.244,28.5 Z" class="cls-1" transform="translate(-26.718,-27.28)" style="fill:#1d2b8a;fill-opacity:1"/><path id="Path_1512" d="m 38.6,28.685 c 0.136,0.136 0.271,0.136 0.271,0.271 0,0.135 0.136,0.136 0.271,0.271 h 0.136 a 0.133,0.133 0 0 0 0.136,-0.136 l 0.136,-0.136 a 0.473,0.473 0 0 0 0.136,-0.271 c 0,-0.136 0.136,-0.136 0.136,-0.271 V 28.142 A 0.133,0.133 0 0 0 39.686,28.006 L 39.55,27.87 39.414,27.734 39.278,27.598 Z" class="cls-1" transform="translate(-26.398,-27.6)" style="fill:#1d2b8a;fill-opacity:1"/><path id="Path_1513" d="m 42.043,31.3 c 0,0.136 -0.136,0.136 -0.136,0.271 0,0.135 -0.136,0.136 -0.136,0.271 -0.136,0.136 -0.136,0.271 -0.271,0.271 h -0.27 a 0.36,0.36 0 0 1 -0.407,-0.407 v -0.271 c 0,-0.136 0.136,-0.136 0.136,-0.271 0.136,-0.136 0.136,-0.136 0.271,-0.136 h 0.407 a 0.292,0.292 0 0 0 0.271,-0.271 c 0,-0.136 0,-0.271 -0.136,-0.271 -0.136,0 -0.136,-0.136 -0.271,-0.136 a 0.7,0.7 0 0 0 -0.542,0.271 c -0.136,0.136 -0.271,0.271 -0.271,0.407 a 0.5,0.5 0 0 0 -0.136,0.407 c 0,0.136 -0.136,0.271 -0.136,0.407 a 0.133,0.133 0 0 1 -0.136,0.136 h -0.27 c -0.136,0 -0.136,-0.136 -0.271,-0.271 V 31.3 L 39.6,31.7 a 1.987,1.987 0 0 0 -0.271,1.491 0.133,0.133 0 0 1 -0.136,0.136 0.133,0.133 0 0 0 -0.136,0.136 c -0.136,0 -0.136,0 -0.407,-0.136 -0.271,-0.136 -0.271,-0.136 -0.407,-0.136 -0.136,0 -0.271,0 -0.271,0.136 l -0.407,0.407 a 1.036,1.036 0 0 1 -0.678,0.271 c -0.678,0 -0.949,-0.407 -0.949,-1.085 v -0.949 a 4.67,4.67 0 0 1 0.136,-1.22 c 0.136,-0.542 0.136,-1.085 0.271,-1.627 0,-0.136 0,-0.136 -0.136,0 0,0.136 -0.136,0.271 -0.136,0.407 0,0.136 -0.136,0.271 -0.136,0.407 a 5.872,5.872 0 0 0 -0.136,0.678 c 0,0.271 -0.136,0.542 -0.136,0.813 0,0.271 -0.136,0.678 -0.136,1.356 a 4.361,4.361 0 0 0 -0.136,1.085 2.554,2.554 0 0 0 0.271,1.085 0.82,0.82 0 0 0 0.813,0.407 1.4,1.4 0 0 0 0.949,-0.678 1.6,1.6 0 0 1 0.678,-0.678 h 0.271 a 1,1 0 0 0 0.813,-0.271 l 0.407,-0.407 a 0.254,0.254 0 0 0 0.407,0 1.222,1.222 0 0 0 0.678,-0.136 3.594,3.594 0 0 0 0.813,-0.678 2.963,2.963 0 0 0 0.407,-0.678 c 0.136,0 0.271,-0.271 0.136,-0.542 h 0.136 c 0,-0.136 0,-0.136 -0.136,0 z" class="cls-1" transform="translate(-27.536,-27.093)" style="fill:#1d2b8a;fill-opacity:1"/><path id="Path_1514" d="m 42.02,29.4 -0.136,0.136 -0.407,1.085 c 0,0.136 -0.136,0.407 -0.136,0.542 a 1.72,1.72 0 0 1 -0.136,0.813 V 33.2 a 0.815,0.815 0 0 1 -0.136,0.542 c -0.136,0.136 0,0.407 -0.136,0.542 a 0.5,0.5 0 0 0 -0.136,0.407 v 0.136 c 0.136,0 0.136,-0.136 0.271,-0.407 l 0.407,-0.813 a 8.643,8.643 0 0 0 0.271,-1.22 v -2.58 c 0.271,-0.136 0.407,-0.271 0.271,-0.407 z" class="cls-1" transform="translate(-25.615,-26.96)" style="fill:#1d2b8a;fill-opacity:1"/></g><g id="Group_933" transform="translate(2.44)" style="fill:#1d2b8a;fill-opacity:1"><path id="Path_1515" d="m 39.4,23.1 a 0.42,0.42 0 0 0 -0.136,0.271 c 0,0.136 -0.136,0.136 -0.136,0.271 0,0.135 -0.136,0.136 -0.136,0.271 0,0.135 -0.136,0 -0.136,0 H 38.72 l -0.136,0.136 c 0,0.136 -0.136,0.136 -0.136,0.271 a 0.133,0.133 0 0 1 -0.136,0.136 c -0.136,0.136 -0.136,0.136 -0.271,0.136 H 37.634 A 0.473,0.473 0 0 1 37.363,24.456 C 37.227,24.32 37.227,24.32 37.227,24.185 v -0.136 a 0.42,0.42 0 0 0 -0.136,0.271 c 0,0.136 -0.136,0.271 -0.136,0.407 v 0.407 a 0.5,0.5 0 0 0 0.136,0.407 0.133,0.133 0 0 1 -0.136,0.136 l -0.136,0.136 c -0.136,0 -0.136,0.136 -0.271,0.136 h -0.136 l -0.136,0.136 c -0.136,0.136 -0.136,0.271 -0.271,0.271 A 0.133,0.133 0 0 1 35.869,26.22 l -0.136,0.136 -0.136,0.136 a 0.5,0.5 0 0 1 -0.407,0.136 h -0.271 a 2.341,2.341 0 0 0 -0.542,0.407 0.678,0.678 0 0 1 -0.813,0 c -0.136,-0.136 -0.271,-0.136 -0.542,-0.136 -0.136,0 -0.407,0.136 -0.542,0.136 a 2.957,2.957 0 0 0 -0.678,0.542 c -0.271,0.271 -0.407,0.407 -0.407,0.542 v 0.271 h 0.136 a 2.554,2.554 0 0 1 1.085,-0.271 0.42,0.42 0 0 1 0.271,0.136 1.152,1.152 0 0 0 1.085,0 l 0.407,-0.407 0.407,-0.407 A 0.5,0.5 0 0 1 35.2,27.3 h 0.271 a 0.42,0.42 0 0 0 0.271,-0.136 l 0.136,-0.136 a 0.5,0.5 0 0 1 0.407,-0.136 l 0.407,-0.271 a 0.42,0.42 0 0 0 0.271,-0.136 l 0.136,-0.136 0.136,-0.136 0.136,-0.136 0.136,-0.136 0.136,-0.136 h 0.407 c 0.136,0 -0.407,-0.136 -0.407,-0.136 0.136,0 0.136,-0.136 0.271,-0.271 0.135,-0.135 0.136,-0.271 0.271,-0.407 0,-0.136 0.136,-0.136 0.271,-0.271 0.135,-0.135 0.136,0 0.271,-0.136 a 0.292,0.292 0 0 0 0.271,-0.271 c 0.136,-0.136 0.136,-0.271 0.271,-0.407 0,-0.136 0.136,-0.271 0.136,-0.407 0,0 0.136,-0.136 0,-0.407 z" class="cls-1" transform="translate(-31.4,-22.558)" style="fill:#1d2b8a;fill-opacity:1"/><path id="Path_1516" d="M 42.145,22.971 C 42.009,22.7 41.874,22.7 41.738,22.7 c -0.136,0.136 -0.136,0.136 -0.136,0.271 -0.136,0.136 -0.271,0.271 -0.271,0.407 l -0.407,0.407 c -0.136,0.136 -0.136,0.271 -0.271,0.271 a 2.964,2.964 0 0 1 -0.407,0.678 l -0.407,0.407 c 0,-0.136 -0.136,-0.271 -0.136,-0.407 -0.136,-0.136 -0.271,-0.271 -0.407,-0.271 -0.136,0 -0.271,0.136 -0.407,0.271 a 1.872,1.872 0 0 0 -0.407,0.542 c -0.136,0.271 -0.136,0.407 -0.271,0.542 v 0.271 a 0.479,0.479 0 0 0 0.542,0.542 h 0.407 v 0.136 h 0.14 c 0,0.136 -0.136,0.271 -0.271,0.407 a 1.872,1.872 0 0 1 -0.542,0.407 2.963,2.963 0 0 1 -0.678,0.407 1.678,1.678 0 0 0 -0.407,0.271 h 0.407 c 0.136,0 0.407,-0.136 0.542,-0.136 0.135,0 0.271,-0.136 0.407,-0.136 a 1.042,1.042 0 0 0 0.271,-0.407 3.239,3.239 0 0 0 0.407,-0.949 0.473,0.473 0 0 1 0.136,-0.271 c 0,-0.136 0.136,-0.136 0.271,-0.271 a 0.133,0.133 0 0 1 0.136,-0.136 0.473,0.473 0 0 0 0.136,-0.271 c 0.271,-0.407 0.407,-0.678 0.678,-0.813 h 0.678 c 0.136,0 0.136,0 0.271,-0.136 l 0.407,-0.407 a 0.815,0.815 0 0 0 0.136,-0.542 1.468,1.468 0 0 0 -0.14,-0.813 z" class="cls-1" transform="translate(-29.265,-22.7)" style="fill:#1d2b8a;fill-opacity:1"/></g></g><g id="Group_935" transform="matrix(5.0041669,0,0,5.0041669,7.423276,255.94338)" style="fill:#1d2b8a;fill-opacity:1"><path id="Path_1517" d="m 3.413,22.976 a 4.731,4.731 0 0 1 0.813,-2.44 V 20.4 H 4.091 a 3.2,3.2 0 0 0 -1.085,1.22 2.616,2.616 0 0 0 -0.406,1.356 2.616,2.616 0 0 0 0.407,1.356 8.772,8.772 0 0 0 1.085,1.22 h 0.136 v -0.136 a 12.766,12.766 0 0 1 -0.815,-2.44 z" class="cls-1" transform="translate(-2.6,-19.62)" style="fill:#1d2b8a;fill-opacity:1"/><path id="Path_1518" d="M 8.225,21.436 A 5.872,5.872 0 0 0 7.547,21.3 H 7.412 A 0.473,0.473 0 0 0 7.276,21.571 L 6.869,22.249 6.056,22.656 C 5.785,22.792 5.649,23.063 5.514,23.198 5.378,23.469 5.243,23.605 5.107,23.876 A 1.016,1.016 0 0 1 4.971,24.554 8,8 0 0 0 4.7,26.454 V 29.3 28.622 a 4.182,4.182 0 0 1 0.136,-1.22 c 0,-0.542 0.136,-0.949 0.136,-1.356 0,-0.407 0.136,-0.813 0.136,-1.085 0,-0.272 0.136,-0.407 0.271,-0.678 0,-0.136 0.136,-0.271 0.271,-0.407 l 0.407,-0.407 a 2.963,2.963 0 0 1 0.678,-0.407 c 0.271,-0.136 0.542,-0.136 0.813,-0.271 0.136,0 0.271,0 0.271,-0.136 0.136,0 0.136,-0.136 0.271,-0.271 0.135,-0.135 0.136,-0.136 0.136,-0.271 a 0.473,0.473 0 0 1 0.136,-0.271 v -0.271 z" class="cls-1" transform="translate(-1.853,-19.3)" style="fill:#1d2b8a;fill-opacity:1"/><path id="Path_1519" d="m 11.054,23.145 c -0.136,0.136 -0.136,0.271 -0.271,0.407 a 0.7,0.7 0 0 1 -0.542,0.271 c -0.136,0 -0.271,0 -0.271,-0.136 -0.136,-0.136 -0.136,-0.136 -0.136,-0.271 0,-0.135 0.136,-0.271 0.136,-0.407 a 0.7,0.7 0 0 1 0.542,-0.271 h 0.542 a 0.188,0.188 0 0 0 0,-0.271 c 0,-0.136 0,-0.136 -0.136,-0.136 h -0.271 c -0.271,0 -0.407,0.136 -0.678,0.271 A 2.964,2.964 0 0 0 9.562,23.28 1.927,1.927 0 0 0 9.291,24.093 H 8.885 A 0.292,0.292 0 0 1 8.614,23.822 1.016,1.016 0 0 1 8.478,23.144 V 22.331 A 2.647,2.647 0 0 1 8.614,21.382 4.612,4.612 0 0 0 8.75,20.026 c 0,-0.136 0,-0.136 -0.136,0 0,0.136 -0.136,0.271 -0.136,0.407 0,0.136 -0.136,0.271 -0.136,0.407 A 5.872,5.872 0 0 0 8.206,21.518 5.872,5.872 0 0 1 8.07,22.196 c 0,0.271 -0.136,0.542 -0.136,1.085 a 4.811,4.811 0 0 1 -0.136,0.949 1.146,1.146 0 0 0 0.271,0.813 0.82,0.82 0 0 0 0.813,0.407 2.086,2.086 0 0 0 1.491,-0.813 2.964,2.964 0 0 1 0.407,-0.678 0.5,0.5 0 0 0 0.136,-0.407 c 0,-0.136 0.136,-0.136 0.136,-0.271 V 23.01 c 0.137,-0.136 0.002,-0.136 0.002,0.135 z" class="cls-1" transform="translate(-0.75,-19.789)" style="fill:#1d2b8a;fill-opacity:1"/><path id="Path_1520" d="m 16.723,20.171 c -0.136,-0.136 -0.407,-0.136 -0.678,-0.271 -0.136,0 -0.136,0 -0.271,0.136 a 3.527,3.527 0 0 1 -0.407,0.949 0.133,0.133 0 0 0 0.136,0.136 c 0.136,0 0.136,0 0.136,0.136 v 0.136 l -0.271,0.271 -0.407,0.407 c -0.136,0.136 -0.271,0.271 -0.271,0.407 -0.136,0.136 -0.136,0.271 -0.271,0.271 a 1.927,1.927 0 0 0 -0.271,0.813 0.5,0.5 0 0 0 0.136,0.407 c 0.136,0.136 0.136,0.136 0.271,0.136 h 0.136 c 0.136,0 0.136,0 0.271,0.136 0.135,0.136 0.136,0 0.136,0.136 l 0.136,0.136 a 0.5,0.5 0 0 1 -0.136,0.407 1.872,1.872 0 0 0 -0.407,0.542 2.964,2.964 0 0 1 -0.678,0.407 2.514,2.514 0 0 1 -0.949,0.271 1.96,1.96 0 0 1 -0.949,-0.271 0.82,0.82 0 0 1 -0.407,-0.813 2.476,2.476 0 0 1 0.271,-1.22 c 0.136,-0.271 0.136,-0.542 0.271,-0.678 l 0.407,-0.813 V 22.2 H 12.52 l -0.407,0.813 -0.407,0.813 a 8.64,8.64 0 0 0 -0.271,0.949 2.307,2.307 0 0 0 -0.136,0.949 v 0.542 a 1.028,1.028 0 0 0 0.271,0.542 1.674,1.674 0 0 0 1.085,0.542 2.187,2.187 0 0 0 1.22,-0.407 c 0.136,-0.136 0.407,-0.271 0.542,-0.407 l 0.407,-0.407 a 2.555,2.555 0 0 0 0.542,-1.22 5.031,5.031 0 0 0 0.271,-1.22 c 0,-0.271 0,-0.407 -0.136,-0.542 A 0.473,0.473 0 0 0 15.23,23.011 0.473,0.473 0 0 1 14.959,22.875 l -0.136,-0.136 0.271,-0.271 0.271,-0.271 c 0.136,-0.136 0.271,-0.136 0.542,-0.271 0.271,-0.135 0.407,-0.271 0.542,-0.271 l 0.407,-0.407 a 1.028,1.028 0 0 0 0.271,-0.542 1.872,1.872 0 0 0 -0.404,-0.535 z" class="cls-1" transform="translate(0.495,-19.798)" style="fill:#1d2b8a;fill-opacity:1"/><path id="Path_1521" d="m 21.394,21.825 a 0.133,0.133 0 0 0 -0.136,0.136 c -0.136,0.271 -0.271,0.407 -0.407,0.271 0,0.136 -0.136,0.271 -0.136,0.407 -0.136,0.136 -0.136,0.136 -0.407,0 a 1.239,1.239 0 0 0 -0.678,0.407 2.963,2.963 0 0 0 -0.407,0.678 c -0.136,-0.136 -0.136,-0.271 -0.271,-0.271 a 0.473,0.473 0 0 1 -0.271,-0.136 c -0.136,0 -0.271,0 -0.271,0.136 -0.136,0 -0.136,0.136 -0.271,0.136 l -0.271,0.271 c 0,0.136 -0.136,0.136 -0.271,0.136 -0.135,0 -0.271,0.136 -0.407,0.136 h -0.407 a 0.292,0.292 0 0 1 -0.271,-0.271 c 0,-0.136 -0.136,-0.271 -0.136,-0.407 v -1.22 a 2.647,2.647 0 0 1 0.136,-0.949 c 0,-0.407 0.136,-0.949 0.136,-1.356 0,-0.136 0,-0.136 -0.136,0 0,0.136 -0.136,0.271 -0.136,0.407 0,0.136 -0.136,0.271 -0.136,0.407 a 5.872,5.872 0 0 0 -0.136,0.678 5.872,5.872 0 0 1 -0.136,0.678 c 0,0.271 -0.136,0.542 -0.136,1.085 a 4.811,4.811 0 0 1 -0.136,0.949 1.96,1.96 0 0 0 0.271,0.949 c 0.136,0.271 0.271,0.271 0.542,0.271 h 0.136 c 0.271,0 0.407,0 0.542,-0.136 0.135,-0.136 0.271,-0.271 0.271,-0.407 0.136,-0.136 0.136,-0.271 0.271,-0.407 0.135,-0.136 0.136,-0.271 0.271,-0.271 a 0.254,0.254 0 0 1 0.407,0 0.292,0.292 0 0 1 0.271,0.271 c 0.136,0.136 0.136,0.271 0,0.542 a 1.025,1.025 0 0 0 -0.136,0.542 v 0.136 a 0.133,0.133 0 0 0 0.136,-0.136 c 0,-0.136 0,-0.136 0.136,-0.271 0,-0.136 0.136,-0.271 0.136,-0.407 0,-0.136 0.136,-0.271 0.136,-0.407 0,-0.136 0.136,-0.136 0.136,-0.271 0,-0.136 0.136,-0.271 0.271,-0.407 l 0.271,-0.271 c 0.136,0 0.136,-0.136 0.271,0 h 0.271 a 0.133,0.133 0 0 0 0.136,-0.136 l 0.136,-0.136 a 0.473,0.473 0 0 1 0.271,-0.136 c 0.136,0 0.271,-0.136 0.271,-0.407 a 0.815,0.815 0 0 0 0.136,-0.542 l 0.136,-0.271 z" class="cls-1" transform="translate(2.061,-19.825)" style="fill:#1d2b8a;fill-opacity:1"/><path id="Path_1522" d="M 21.52,21.52 A 4.392,4.392 0 0 0 20.435,20.3 H 20.3 v 0.136 a 5.147,5.147 0 0 1 0.813,2.44 5.147,5.147 0 0 1 -0.813,2.44 v 0.136 h 0.136 a 3.2,3.2 0 0 0 1.085,-1.22 2.616,2.616 0 0 0 0.407,-1.356 3.031,3.031 0 0 0 -0.408,-1.356 z" class="cls-1" transform="translate(3.697,-19.656)" style="fill:#1d2b8a;fill-opacity:1"/></g><path id="Path_1523" d="m 255.74005,195.39296 a 9.7881505,9.7881505 0 0 0 -7.46122,-4.74895 61.87152,61.87152 0 0 0 -4.06838,10.85403 c -1.35613,4.74896 -2.71226,7.46122 -3.39283,7.46122 a 11.959959,11.959959 0 0 1 -10.17848,-6.10509 30.33526,30.33526 0 0 1 -4.74895,-15.60299 c 0,-4.06839 0.68057,-8.82235 0.68057,-14.24686 a 277.33093,277.33093 0 0 1 6.10508,-37.31608 c 0.68057,-3.39282 0.68057,-4.74895 0,-4.74895 -0.68057,0 -1.35613,0.68057 -2.0367,2.0367 l -11.50958,30.52541 a 75.267675,75.267675 0 0 0 -4.74895,19.67639 c -0.68057,4.06839 -1.35613,11.50958 -2.71226,22.38864 0,0.68057 -0.68057,2.0367 -0.68057,2.71226 v 4.06839 c 0,2.71226 -0.68057,5.42952 -0.68057,8.14178 a 13.401159,13.401159 0 0 1 -14.28689,10.18348 11.234355,11.234355 0 0 1 -8.14178,-3.39283 16.66888,16.66888 0 0 1 -3.39283,-11.50958 v -6.81067 c 0,-4.74896 0.68057,-9.50792 0.68057,-14.24687 0,-5.42952 0.68057,-10.85403 0.68057,-15.60299 0,-4.74895 0.66555,-9.49791 0.66555,-12.89073 a 26.582135,26.582135 0 0 1 1.35613,-8.82235 c 0,-2.0367 0,-2.71226 -0.68057,-3.39282 -0.68056,0 -1.35613,0.68056 -2.03669,1.35612 l -10.14845,29.1793 a 69.612966,69.612966 0 0 1 -2.71226,9.50792 122.79225,122.79225 0 0 0 -2.0367,23.74477 c -0.68056,12.21017 -0.68056,23.74477 -0.68056,35.95994 0,12.21518 -0.68057,24.42534 -1.35613,37.31608 a 77.904871,77.904871 0 0 1 -0.68057,12.89073 c -1.35613,24.42534 -5.42952,42.74059 -12.21017,53.59963 a 80.487021,80.487021 0 0 1 -24.42534,25.78147 77.474512,77.474512 0 0 1 -43.421152,11.50958 59.04917,59.04917 0 0 1 -29.174293,-8.82234 34.728918,34.728918 0 0 1 -14.912419,-25.77146 73.736399,73.736399 0 0 1 0.68057,-12.21017 122.33186,122.33186 0 0 1 3.39282,-12.89073 98.917367,98.917367 0 0 1 4.74896,-12.89074 c 2.03669,-4.74895 3.392823,-8.82234 5.429519,-12.89073 a 28.133426,28.133426 0 0 0 2.712259,-8.14178 c 0,-2.0367 0,-2.71226 -0.680567,-2.71226 l -4.068388,8.82235 c -14.261873,27.81316 -21.723093,53.59463 -21.723093,77.3394 0.68057,14.92743 4.74896,26.46203 13.57131,34.59881 a 48.260186,48.260186 0 0 0 31.886547,12.91075 c 26.462037,0 48.850677,-12.21017 67.165927,-37.99164 a 190.65876,190.65876 0 0 0 19.67638,-36.6355 219.32263,219.32263 0 0 0 12.89074,-54.2752 74.75725,74.75725 0 0 0 1.35613,-12.21016 c 0.68056,-4.74896 0.68056,-14.24687 1.35613,-28.49373 a 45.002473,45.002473 0 0 0 11.50958,-1.35613 29.559614,29.559614 0 0 0 17.63969,-18.32026 l 4.06839,-8.14177 c 0,-0.68057 0.68056,-0.68057 0.68056,-1.35613 a 14.832351,14.832351 0 0 0 2.0367,3.39282 18.665543,18.665543 0 0 0 14.24686,8.82235 c 8.82235,0 15.603,-5.42952 21.0175,-16.95912 a 67.556253,67.556253 0 0 0 5.42953,-25.78147 33.072539,33.072539 0 0 0 -2.67723,-7.49124 z" class="cls-1" style="fill:#1d2b8a;stroke-width:5.00417"/><g id="Group_936" transform="matrix(5.0041669,0,0,5.0041669,358.18536,243.54806)" style="fill:#1d2b8a;fill-opacity:1"><path id="Path_1524" d="m 63.79,36.846 a 9.518,9.518 0 0 1 -9.49,-9.49 9.423,9.423 0 0 1 18.845,0.136 9.2,9.2 0 0 1 -9.355,9.354 z M 57.283,26.813 h 1.356 c 0.136,0 0.271,0 0.271,-0.271 a 8.742,8.742 0 0 1 0.407,-2.712 c 0,-0.136 0,-0.136 -0.136,-0.136 h -2.3 c -0.136,0 -0.136,0 -0.271,0.136 a 9.862,9.862 0 0 0 -0.813,2.847 c 0,0.271 0,0.271 0.271,0.271 a 3.753,3.753 0 0 1 1.215,-0.135 z m 13.151,0 h 1.356 c 0.136,0 0.271,0 0.271,-0.136 A 11.255,11.255 0 0 0 71.248,23.83 c -0.136,-0.136 -0.136,-0.136 -0.271,-0.136 h -2.17 c -0.136,0 -0.271,0 -0.136,0.271 a 18.374,18.374 0 0 1 0.271,2.712 c 0,0.271 0.136,0.271 0.271,0.271 a 3.009,3.009 0 0 1 1.221,-0.135 z m -4.474,0 h 1.22 c 0.271,0 0.271,0 0.271,-0.271 A 8.742,8.742 0 0 0 67.044,23.83 0.292,0.292 0 0 0 66.773,23.559 H 64.6 c -0.136,0 -0.271,0 -0.271,0.271 v 2.712 c 0,0.136 0,0.271 0.271,0.271 z m -2.712,-1.627 v -1.355 c 0,-0.136 0,-0.271 -0.271,-0.271 h -2.169 c -0.136,0 -0.271,0 -0.271,0.136 a 20.567,20.567 0 0 0 -0.407,2.847 c 0,0.136 0,0.271 0.271,0.271 h 2.576 c 0.136,0 0.271,0 0.271,-0.271 z m -5.965,2.847 h -1.356 c -0.136,0 -0.271,0 -0.271,0.271 a 8.179,8.179 0 0 0 0.813,2.576 c 0,0.136 0.136,0.136 0.271,0.136 h 2.3 c 0.136,0 0.271,0 0.271,-0.271 a 16.612,16.612 0 0 1 -0.271,-2.576 0.292,0.292 0 0 0 -0.271,-0.271 5.561,5.561 0 0 1 -1.486,0.136 z m 13.151,0 h -1.356 c -0.136,0 -0.271,0 -0.271,0.271 a 16.612,16.612 0 0 1 -0.271,2.576 c 0,0.271 0,0.271 0.271,0.271 h 2.169 c 0.271,0 0.271,-0.136 0.407,-0.271 a 5.608,5.608 0 0 0 0.678,-2.576 c 0,-0.136 0,-0.271 -0.271,-0.271 z m -4.474,0 h -1.22 c -0.136,0 -0.271,0 -0.271,0.271 v 2.576 c 0,0.136 0,0.271 0.271,0.271 h 2.3 c 0.136,0 0.136,0 0.271,-0.136 0.136,-0.813 0.271,-1.763 0.407,-2.712 0,-0.136 0,-0.271 -0.271,-0.271 z m -2.712,1.491 V 28.3 c 0,-0.271 -0.136,-0.271 -0.271,-0.271 H 60.4 c -0.136,0 -0.271,0 -0.271,0.271 a 8.513,8.513 0 0 0 0.407,2.576 0.292,0.292 0 0 0 0.271,0.271 h 2.169 c 0.136,0 0.271,0 0.271,-0.271 l 10e-4,-1.351 z m 1.22,4.338 v 1.085 c 0,0.136 -0.136,0.407 0,0.407 0.136,0.136 0.271,-0.136 0.407,-0.136 a 5.517,5.517 0 0 0 1.763,-2.576 c 0.136,-0.136 0,-0.136 -0.136,-0.136 h -1.763 c -0.271,0 -0.271,0.136 -0.271,0.271 z m -1.22,1.491 v -2.845 a 0.133,0.133 0 0 0 -0.136,-0.136 h -1.9 c -0.136,0 -0.136,0 -0.136,0.271 a 7.937,7.937 0 0 0 1.356,2.3 1.159,1.159 0 0 0 0.816,0.412 z m 1.22,-14.507 v 1.22 c 0,0.136 0,0.271 0.271,0.271 H 66.5 c 0.136,0 0.271,-0.136 0.136,-0.271 a 5.32,5.32 0 0 0 -1.085,-1.9 l -0.813,-0.813 c -0.136,-0.136 -0.136,0 -0.136,0.136 a 5.086,5.086 0 0 0 -0.134,1.359 z m -1.22,0 V 19.9 c 0,-0.136 0.136,-0.407 0,-0.542 -0.136,-0.135 -0.271,0.136 -0.542,0.271 a 5.958,5.958 0 0 0 -1.627,2.44 c -0.136,0.136 0,0.136 0.136,0.136 h 1.763 c 0.271,0 0.271,-0.136 0.271,-0.271 L 63.248,20.848 Z M 70.3,32.372 h -2.036 c -0.136,0 -0.136,0 -0.271,0.136 a 12.018,12.018 0 0 1 -1.085,2.3 v 0.136 A 8.09,8.09 0 0 0 70.3,32.372 Z m -12.88,0 a 7.834,7.834 0 0 0 3.389,2.576 13.313,13.313 0 0 1 -1.085,-2.44 c 0,-0.136 -0.136,-0.136 -0.271,-0.136 z M 70.163,22.339 a 10.705,10.705 0 0 0 -3.389,-2.576 10.266,10.266 0 0 1 1.22,2.44 0.133,0.133 0 0 0 0.136,0.136 z M 60.808,19.9 a 7.4,7.4 0 0 0 -3.254,2.44 h 2.034 c 0.136,0 0.136,0 0.271,-0.136 A 4.922,4.922 0 0 1 60.808,19.9 Z" class="cls-1" transform="translate(-54.3,-17.998)" style="fill:#1d2b8a;fill-opacity:1"/></g><g id="Group_937" transform="matrix(5.0041669,0,0,5.0041669,328.49563,213.87835)" style="fill:#f67e22;fill-opacity:1"><path id="Path_1525" d="m 59.665,19.421 a 9.114,9.114 0 0 1 3.254,-0.542 h 0.136 l -1.22,-3.118 a 3.437,3.437 0 0 0 -6.372,2.576 l 1.22,3.118 h 0.136 a 6.923,6.923 0 0 1 2.846,-2.034 z" class="cls-2" transform="translate(-48.039,-13.625)" style="fill:#f67e22;fill-opacity:1"/><path id="Path_1526" d="m 55.857,23.13 a 6.55,6.55 0 0 1 1.9,-2.712 v -0.136 l -3.118,-1.22 a 3.437,3.437 0 1 0 -2.576,6.372 l 3.118,1.22 v -0.136 a 15.026,15.026 0 0 1 0.676,-3.388 z" class="cls-2" transform="translate(-49.925,-11.774)" style="fill:#f67e22;fill-opacity:1"/><path id="Path_1527" d="M 55.821,28.689 A 9.114,9.114 0 0 1 55.279,25.435 V 25.3 l -3.118,1.356 a 3.437,3.437 0 1 0 2.576,6.372 l 3.118,-1.356 v -0.136 a 6.148,6.148 0 0 1 -2.034,-2.847 z" class="cls-2" transform="translate(-49.889,-9.471)" style="fill:#f67e22;fill-opacity:1"/><path id="Path_1528" d="M 64.889,19.421 A 9.114,9.114 0 0 0 61.635,18.879 H 61.5 l 1.22,-3.118 a 3.437,3.437 0 0 1 6.372,2.576 l -1.22,3.118 h -0.136 a 6.923,6.923 0 0 0 -2.847,-2.034 z" class="cls-2" transform="translate(-45.806,-13.625)" style="fill:#f67e22;fill-opacity:1"/><path id="Path_1529" d="m 59.665,32.534 a 9.114,9.114 0 0 0 3.254,0.542 h 0.136 l -1.22,3.118 a 3.437,3.437 0 0 1 -6.372,-2.576 l 1.22,-3.118 h 0.136 a 6.923,6.923 0 0 0 2.846,2.034 z" class="cls-2" transform="translate(-48.039,-7.621)" style="fill:#f67e22;fill-opacity:1"/><path id="Path_1530" d="m 64.889,32.534 a 9.114,9.114 0 0 1 -3.254,0.542 H 61.5 l 1.22,3.118 a 3.437,3.437 0 0 0 6.372,-2.576 L 67.872,30.5 h -0.136 a 6.923,6.923 0 0 1 -2.847,2.034 z" class="cls-2" transform="translate(-45.806,-7.621)" style="fill:#f67e22;fill-opacity:1"/><path id="Path_1531" d="m 68.7,23.13 a 6.55,6.55 0 0 0 -1.9,-2.712 v -0.136 l 3.118,-1.22 a 3.437,3.437 0 1 1 2.576,6.372 l -3.118,1.22 V 26.518 A 15.026,15.026 0 0 0 68.7,23.13 Z" class="cls-2" transform="translate(-43.921,-11.774)" style="fill:#f67e22;fill-opacity:1"/><path id="Path_1532" d="m 68.734,28.689 a 9.114,9.114 0 0 0 0.542,-3.254 V 25.3 l 3.118,1.356 a 3.437,3.437 0 1 1 -2.576,6.372 L 66.7,31.672 v -0.136 a 6.148,6.148 0 0 0 2.034,-2.847 z" class="cls-2" transform="translate(-43.956,-9.471)" style="fill:#f67e22;fill-opacity:1"/></g></svg>