<?xml version="1.0" encoding="UTF-8" standalone="no"?>
<!-- Generator: Adobe Illustrator 22.1.0, SVG Export Plug-In . SVG Version: 6.00 Build 0)  -->
<svg version="1.1" id="Capa_1" x="0px" y="0px" viewBox="0 0 537 547" style="enable-background:new 0 0 537 547;" xml:space="preserve" sodipodi:docname="ایران زمین.svg" inkscape:version="1.1.1 (3bf5ae0d25, 2021-09-20)" xmlns:inkscape="http://www.inkscape.org/namespaces/inkscape" xmlns:sodipodi="http://sodipodi.sourceforge.net/DTD/sodipodi-0.dtd" xmlns="http://www.w3.org/2000/svg" xmlns:svg="http://www.w3.org/2000/svg"><defs id="defs13"/><sodipodi:namedview id="namedview11" pagecolor="#ffffff" bordercolor="#666666" borderopacity="1.0" inkscape:pageshadow="2" inkscape:pageopacity="0.0" inkscape:pagecheckerboard="0" showgrid="false" inkscape:zoom="1.4844607" inkscape:cx="186.26293" inkscape:cy="198.72537" inkscape:window-width="1920" inkscape:window-height="992" inkscape:window-x="-8" inkscape:window-y="-8" inkscape:window-maximized="1" inkscape:current-layer="Capa_1"/>
<style type="text/css" id="style2">
	.st0{fill:none;}
	.st1{fill:#4C2A93;}
	.st2{fill:#F10B7C;}
</style>
<symbol id="Bank_Iran_Zamin_Color" viewBox="-24 -24 48 48">
	<g id="Bank_Iran_Zamin_Color_5_" transform="translate(1386)">
		<rect id="Boundary_171_" x="-1410" y="-24" class="st0" width="48" height="48"/>
		<path id="Shape_294_" class="st1" d="M-1403.2-17.2c20.3-8.3,35.4,7.8,27.7,25c13.7-15.7,2.4-31.8-12.1-31.8    C-1392.7-24-1398.2-22-1403.2-17.2z M-1393.6,10.7c21.4,18.4,43-9.2,24.7-28C-1360.4,3-1376.4,18.2-1393.6,10.7z M-1403,17.6    c-8.6-20.3,7.2-35.6,24.5-28.1c-5-4.2-9.9-6-14.4-6C-1407.8-16.5-1417.2,3.2-1403,17.6z M-1367.3,15.7    c-19.5,10.2-35.9-4.4-29.9-22.3C-1413.6,16.4-1384.4,35.6-1367.3,15.7L-1367.3,15.7z"/>
		<path id="Shape_293_" class="st2" d="M-1386-9c5,0,9,4,9,9s-4,9-9,9s-9-4-9-9C-1395-5-1391-9-1386-9"/>
	</g>
</symbol>
<path id="Path_488" d="M 318.92141,538.1192 H 209.39905 a 16.88046,17.589696 0 0 1 -16.75956,-17.49016 16.88046,17.589696 0 0 1 16.785,-17.49016 h 110.29283 a 16.88046,17.589696 0 0 1 16.785,17.49016 18.173078,18.936625 0 0 1 -17.58091,17.49016 z" class="cls-1" style="fill:#021b7b;stroke-width:6.49998"/><path id="Path_489" d="m 22.40219,260.7911 c 0,0 183.82574,-70.79002 289.3302,231.52584 H 210.24594 A 31.736027,33.069425 0 0 1 179.04474,466.4997 C 165.46901,408.19686 123.10557,269.94103 22.40219,260.7911 Z" class="cls-1" style="fill:#021b7b;stroke-width:6.49998"/><g id="Group_213" transform="matrix(6.3675817,0,0,6.6351174,266.17239,253.57881)"><path id="Path_490" d="m 30.5,48.791 a 85.6,85.6 0 0 1 8.41,17.322 l 0.126,0.251 a 5.309,5.309 0 0 0 3.64,-3.64 c 2.134,-8.786 8.786,-29.622 24.6,-31 C 67.277,31.721 46.817,24.19 30.5,48.791 Z" class="cls-1" transform="translate(-30.5,-30.635)" style="fill:#021b7b;fill-opacity:1"/></g><g id="Group_214" transform="matrix(6.3675817,0,0,6.6351174,33.106088,14.269956)" style="fill:#0fbbb9;fill-opacity:1"><path id="Path_491" d="M 32.676,25.246 H 28.408 L 26.4,5.415 c 0,-1.883 1.883,-3.515 4.142,-3.515 2.259,0 4.142,1.506 4.142,3.515 z" class="cls-2" transform="translate(5.056,-1.9)" style="fill:#0fbbb9;fill-opacity:1"/><path id="Path_492" d="M 25.8,26.211 29.817,24.956 26.056,5.375 C 25.556,3.492 23.295,2.614 21.035,3.241 A 3.894,3.894 0 0 0 18.023,7.76 Z" class="cls-2" transform="translate(2.89,-1.609)" style="fill:#0fbbb9;fill-opacity:1"/><path id="Path_493" d="M 26.778,25.734 23.263,27.993 11.59,13.182 c -1,-1.506 -0.251,-3.766 1.757,-5.021 1.883,-1.255 4.268,-1 5.272,0.628 z" class="cls-2" transform="translate(1.164,-0.505)" style="fill:#0fbbb9;fill-opacity:1"/><path id="Path_494" d="M 22.213,30.118 24.6,26.855 10.916,14.3 c -1.381,-1 -3.64,-0.5 -5.021,1.381 -1.381,1.757 -1.255,4.142 0.251,5.146 z" class="cls-2" transform="translate(-0.422,1.136)" style="fill:#0fbbb9;fill-opacity:1"/><path id="Path_495" d="M 21.75,32.542 22.88,28.651 5.809,21.622 c -1.632,-0.5 -3.64,0.753 -4.268,3.012 -0.628,2.134 0.251,4.268 2.008,4.77 z" class="cls-2" transform="translate(-1.339,3.105)" style="fill:#0fbbb9;fill-opacity:1"/><path id="Path_496" d="M 36.117,26.211 32.1,24.955 35.991,5.375 c 0.5,-1.883 2.761,-2.761 5.021,-2.134 a 3.894,3.894 0 0 1 3.012,4.519 z" class="cls-2" transform="translate(6.511,-1.609)" style="fill:#0fbbb9;fill-opacity:1"/><path id="Path_497" d="m 35.9,25.734 3.515,2.259 11.673,-14.811 c 1,-1.506 0.251,-3.766 -1.757,-5.021 -1.883,-1.255 -4.268,-1 -5.272,0.628 z" class="cls-2" transform="translate(7.48,-0.505)" style="fill:#0fbbb9;fill-opacity:1"/><path id="Path_498" d="M 41.385,30.093 39,26.829 52.681,14.4 c 1.381,-1 3.64,-0.5 5.021,1.381 1.381,1.757 1.255,4.142 -0.251,5.146 z" class="cls-2" transform="translate(8.271,1.161)" style="fill:#0fbbb9;fill-opacity:1"/><path id="Path_499" d="M 42.13,32.541 41,28.65 58.07,21.621 c 1.757,-0.5 3.64,0.879 4.268,3.012 0.628,2.134 -0.251,4.268 -2.008,4.77 z" class="cls-2" transform="translate(8.782,3.106)" style="fill:#0fbbb9;fill-opacity:1"/></g><circle id="Ellipse_27" cx="260.57523" cy="253.29338" class="cls-2" style="fill:#0fbbb9;stroke-width:6.49998" r="0"/>
</svg>